<svg viewBox="0 0 330 200" xmlns="http://www.w3.org/2000/svg"><g><g><g><g><g><line x1="58" y1="178" x2="53" y2="178" style="visibility: inherit;" fill="rgb(0, 0, 0)" stroke="rgb(204, 204, 204)" stroke-width="1px"></line><line x1="58" y1="164.30769230769232" x2="53" y2="164.30769230769232" style="visibility: inherit;" fill="rgb(0, 0, 0)" stroke="rgb(204, 204, 204)" stroke-width="1px"></line><line x1="58" y1="150.6153846153846" x2="53" y2="150.6153846153846" style="visibility: inherit;" fill="rgb(0, 0, 0)" stroke="rgb(204, 204, 204)" stroke-width="1px"></line><line x1="58" y1="136.9230769230769" x2="53" y2="136.9230769230769" style="visibility: inherit;" fill="rgb(0, 0, 0)" stroke="rgb(204, 204, 204)" stroke-width="1px"></line><line x1="58" y1="123.23076923076923" x2="53" y2="123.23076923076923" style="visibility: inherit;" fill="rgb(0, 0, 0)" stroke="rgb(204, 204, 204)" stroke-width="1px"></line><line x1="58" y1="109.53846153846155" x2="53" y2="109.53846153846155" style="visibility: inherit;" fill="rgb(0, 0, 0)" stroke="rgb(204, 204, 204)" stroke-width="1px"></line><line x1="58" y1="95.84615384615385" x2="53" y2="95.84615384615385" style="visibility: inherit;" fill="rgb(0, 0, 0)" stroke="rgb(204, 204, 204)" stroke-width="1px"></line><line x1="58" y1="82.15384615384616" x2="53" y2="82.15384615384616" style="visibility: inherit;" fill="rgb(0, 0, 0)" stroke="rgb(204, 204, 204)" stroke-width="1px"></line><line x1="58" y1="68.46153846153848" x2="53" y2="68.46153846153848" style="visibility: inherit;" fill="rgb(0, 0, 0)" stroke="rgb(204, 204, 204)" stroke-width="1px"></line><line x1="58" y1="54.769230769230774" x2="53" y2="54.769230769230774" style="visibility: inherit;" fill="rgb(0, 0, 0)" stroke="rgb(204, 204, 204)" stroke-width="1px"></line><line x1="58" y1="41.076923076923094" x2="53" y2="41.076923076923094" style="visibility: inherit;" fill="rgb(0, 0, 0)" stroke="rgb(204, 204, 204)" stroke-width="1px"></line><line x1="58" y1="27.384615384615387" x2="53" y2="27.384615384615387" style="visibility: inherit;" fill="rgb(0, 0, 0)" stroke="rgb(204, 204, 204)" stroke-width="1px"></line><line x1="58" y1="13.69230769230768" x2="53" y2="13.69230769230768" style="visibility: inherit;" fill="rgb(0, 0, 0)" stroke="rgb(204, 204, 204)" stroke-width="1px"></line><line x1="58" y1="0" x2="53" y2="0" style="visibility: inherit;" fill="rgb(0, 0, 0)" stroke="rgb(204, 204, 204)" stroke-width="1px"></line></g><g transform="translate(48, 0)"><text x="0" y="178" dx="0em" dy="0.3em" style="text-anchor: end; visibility: hidden; font-family: &quot;Helvetica Neue&quot;, sans-serif; font-size: 12px; font-weight: 200;" fill="rgb(50, 49, 63)" stroke="none" stroke-width="1px">-0.1</text><text x="0" y="164.30769230769232" dx="0em" dy="0.3em" style="text-anchor: end; visibility: inherit; font-family: &quot;Helvetica Neue&quot;, sans-serif; font-size: 12px; font-weight: 200;" fill="rgb(50, 49, 63)" stroke="none" stroke-width="1px">0</text><text x="0" y="150.6153846153846" dx="0em" dy="0.3em" style="text-anchor: end; visibility: hidden; font-family: &quot;Helvetica Neue&quot;, sans-serif; font-size: 12px; font-weight: 200;" fill="rgb(50, 49, 63)" stroke="none" stroke-width="1px">0.1</text><text x="0" y="136.9230769230769" dx="0em" dy="0.3em" style="text-anchor: end; visibility: inherit; font-family: &quot;Helvetica Neue&quot;, sans-serif; font-size: 12px; font-weight: 200;" fill="rgb(50, 49, 63)" stroke="none" stroke-width="1px">0.2</text><text x="0" y="123.23076923076923" dx="0em" dy="0.3em" style="text-anchor: end; visibility: hidden; font-family: &quot;Helvetica Neue&quot;, sans-serif; font-size: 12px; font-weight: 200;" fill="rgb(50, 49, 63)" stroke="none" stroke-width="1px">0.3</text><text x="0" y="109.53846153846155" dx="0em" dy="0.3em" style="text-anchor: end; visibility: inherit; font-family: &quot;Helvetica Neue&quot;, sans-serif; font-size: 12px; font-weight: 200;" fill="rgb(50, 49, 63)" stroke="none" stroke-width="1px">0.4</text><text x="0" y="95.84615384615385" dx="0em" dy="0.3em" style="text-anchor: end; visibility: hidden; font-family: &quot;Helvetica Neue&quot;, sans-serif; font-size: 12px; font-weight: 200;" fill="rgb(50, 49, 63)" stroke="none" stroke-width="1px">0.5</text><text x="0" y="82.15384615384616" dx="0em" dy="0.3em" style="text-anchor: end; visibility: inherit; font-family: &quot;Helvetica Neue&quot;, sans-serif; font-size: 12px; font-weight: 200;" fill="rgb(50, 49, 63)" stroke="none" stroke-width="1px">0.6</text><text x="0" y="68.46153846153848" dx="0em" dy="0.3em" style="text-anchor: end; visibility: hidden; font-family: &quot;Helvetica Neue&quot;, sans-serif; font-size: 12px; font-weight: 200;" fill="rgb(50, 49, 63)" stroke="none" stroke-width="1px">0.7</text><text x="0" y="54.769230769230774" dx="0em" dy="0.3em" style="text-anchor: end; visibility: inherit; font-family: &quot;Helvetica Neue&quot;, sans-serif; font-size: 12px; font-weight: 200;" fill="rgb(50, 49, 63)" stroke="none" stroke-width="1px">0.8</text><text x="0" y="41.076923076923094" dx="0em" dy="0.3em" style="text-anchor: end; visibility: hidden; font-family: &quot;Helvetica Neue&quot;, sans-serif; font-size: 12px; font-weight: 200;" fill="rgb(50, 49, 63)" stroke="none" stroke-width="1px">0.9</text><text x="0" y="27.384615384615387" dx="0em" dy="0.3em" style="text-anchor: end; visibility: inherit; font-family: &quot;Helvetica Neue&quot;, sans-serif; font-size: 12px; font-weight: 200;" fill="rgb(50, 49, 63)" stroke="none" stroke-width="1px">1</text><text x="0" y="13.69230769230768" dx="0em" dy="0.3em" style="text-anchor: end; visibility: hidden; font-family: &quot;Helvetica Neue&quot;, sans-serif; font-size: 12px; font-weight: 200;" fill="rgb(50, 49, 63)" stroke="none" stroke-width="1px">1.1</text><text x="0" y="0" dx="0em" dy="0.3em" style="text-anchor: end; visibility: hidden; font-family: &quot;Helvetica Neue&quot;, sans-serif; font-size: 12px; font-weight: 200;" fill="rgb(50, 49, 63)" stroke="none" stroke-width="1px">1.2</text></g><line x1="58" y1="0" x2="58" y2="178" fill="rgb(0, 0, 0)" stroke="rgb(204, 204, 204)" stroke-width="1px"></line></g></g><g transform="translate(58, 0)" clip-path="url(#clip_0)"><clipPath id="clip_0"><rect width="272" height="178"></rect></clipPath><g><g><g><line x1="0" y1="0" x2="0" y2="178" fill="rgb(0, 0, 0)" stroke="rgb(60, 60, 60)" stroke-width="1px" opacity="0.25"></line><line x1="22.666666666666664" y1="0" x2="22.666666666666664" y2="178" fill="rgb(0, 0, 0)" stroke="rgb(60, 60, 60)" stroke-width="1px" opacity="0.25"></line><line x1="45.33333333333333" y1="0" x2="45.33333333333333" y2="178" fill="rgb(0, 0, 0)" stroke="rgb(60, 60, 60)" stroke-width="1px" opacity="0.25"></line><line x1="68" y1="0" x2="68" y2="178" fill="rgb(0, 0, 0)" stroke="rgb(60, 60, 60)" stroke-width="1px" opacity="0.25"></line><line x1="90.66666666666666" y1="0" x2="90.66666666666666" y2="178" fill="rgb(0, 0, 0)" stroke="rgb(60, 60, 60)" stroke-width="1px" opacity="0.25"></line><line x1="113.33333333333334" y1="0" x2="113.33333333333334" y2="178" fill="rgb(0, 0, 0)" stroke="rgb(60, 60, 60)" stroke-width="1px" opacity="0.25"></line><line x1="136" y1="0" x2="136" y2="178" fill="rgb(0, 0, 0)" stroke="rgb(60, 60, 60)" stroke-width="1px" opacity="0.25"></line><line x1="158.66666666666669" y1="0" x2="158.66666666666669" y2="178" fill="rgb(0, 0, 0)" stroke="rgb(60, 60, 60)" stroke-width="1px" opacity="0.25"></line><line x1="181.33333333333331" y1="0" x2="181.33333333333331" y2="178" fill="rgb(0, 0, 0)" stroke="rgb(60, 60, 60)" stroke-width="1px" opacity="0.25"></line><line x1="204" y1="0" x2="204" y2="178" fill="rgb(0, 0, 0)" stroke="rgb(60, 60, 60)" stroke-width="1px" opacity="0.25"></line><line x1="226.66666666666669" y1="0" x2="226.66666666666669" y2="178" fill="rgb(0, 0, 0)" stroke="rgb(60, 60, 60)" stroke-width="1px" opacity="0.25"></line><line x1="249.33333333333331" y1="0" x2="249.33333333333331" y2="178" fill="rgb(0, 0, 0)" stroke="rgb(60, 60, 60)" stroke-width="1px" opacity="0.25"></line><line x1="272" y1="0" x2="272" y2="178" fill="rgb(0, 0, 0)" stroke="rgb(60, 60, 60)" stroke-width="1px" opacity="0.25"></line></g><g><line x1="0" y1="178" x2="272" y2="178" fill="rgb(0, 0, 0)" stroke="rgb(60, 60, 60)" stroke-width="1px" opacity="0.25"></line><line x1="0" y1="164.30769230769232" x2="272" y2="164.30769230769232" fill="rgb(0, 0, 0)" stroke="rgb(60, 60, 60)" stroke-width="1px" opacity="0.25"></line><line x1="0" y1="150.6153846153846" x2="272" y2="150.6153846153846" fill="rgb(0, 0, 0)" stroke="rgb(60, 60, 60)" stroke-width="1px" opacity="0.25"></line><line x1="0" y1="136.9230769230769" x2="272" y2="136.9230769230769" fill="rgb(0, 0, 0)" stroke="rgb(60, 60, 60)" stroke-width="1px" opacity="0.25"></line><line x1="0" y1="123.23076923076923" x2="272" y2="123.23076923076923" fill="rgb(0, 0, 0)" stroke="rgb(60, 60, 60)" stroke-width="1px" opacity="0.25"></line><line x1="0" y1="109.53846153846155" x2="272" y2="109.53846153846155" fill="rgb(0, 0, 0)" stroke="rgb(60, 60, 60)" stroke-width="1px" opacity="0.25"></line><line x1="0" y1="95.84615384615385" x2="272" y2="95.84615384615385" fill="rgb(0, 0, 0)" stroke="rgb(60, 60, 60)" stroke-width="1px" opacity="0.25"></line><line x1="0" y1="82.15384615384616" x2="272" y2="82.15384615384616" fill="rgb(0, 0, 0)" stroke="rgb(60, 60, 60)" stroke-width="1px" opacity="0.25"></line><line x1="0" y1="68.46153846153848" x2="272" y2="68.46153846153848" fill="rgb(0, 0, 0)" stroke="rgb(60, 60, 60)" stroke-width="1px" opacity="0.25"></line><line x1="0" y1="54.769230769230774" x2="272" y2="54.769230769230774" fill="rgb(0, 0, 0)" stroke="rgb(60, 60, 60)" stroke-width="1px" opacity="0.25"></line><line x1="0" y1="41.076923076923094" x2="272" y2="41.076923076923094" fill="rgb(0, 0, 0)" stroke="rgb(60, 60, 60)" stroke-width="1px" opacity="0.25"></line><line x1="0" y1="27.384615384615387" x2="272" y2="27.384615384615387" fill="rgb(0, 0, 0)" stroke="rgb(60, 60, 60)" stroke-width="1px" opacity="0.25"></line><line x1="0" y1="13.69230769230768" x2="272" y2="13.69230769230768" fill="rgb(0, 0, 0)" stroke="rgb(60, 60, 60)" stroke-width="1px" opacity="0.25"></line><line x1="0" y1="0" x2="272" y2="0" fill="rgb(0, 0, 0)" stroke="rgb(60, 60, 60)" stroke-width="1px" opacity="0.25"></line></g></g></g><g><g><line x1="0" y1="164.30769230769232" x2="272" y2="164.30769230769232" fill="rgb(0, 0, 0)" stroke="rgb(153, 153, 153)" stroke-width="1.5px"></line></g></g><g><g><line x1="22.666666666666664" y1="0" x2="22.666666666666664" y2="178" fill="rgb(0, 0, 0)" stroke="rgb(153, 153, 153)" stroke-width="1.5px"></line></g></g><g><g><g><g><g><path stroke="rgb(204, 51, 17)" stroke-width="2px" d="M22.666666666666664,151.43692351763065L24.93333333333333,149.29749993062936L27.200000000000003,148.22342225801626L29.46666666666667,147.30909504926854L31.733333333333334,146.54579546165462L34,147.04685473432812L36.266666666666666,145.92343358664846L38.53333333333333,146.10542474711355L40.8,146.93189138089116L43.06666666666666,144.997902248152L45.33333333333333,144.61458133667608L47.599999999999994,144.2208151142533L49.86666666666666,145.13676254370003L52.13333333333334,145.02781805199487L54.400000000000006,144.85291662698887L56.66666666666667,142.8305637828664L58.93333333333334,142.2200812133115L61.2,140.86791116008186L63.46666666666667,139.89237980036089L65.73333333333333,139.9643535298522L68,139.24075010999965L70.26666666666668,137.82073872183858L72.53333333333333,137.5164407777383L74.80000000000001,138.53879232909657L77.06666666666666,138.76881449336904L79.33333333333334,138.85205793820873L81.6,138.62815774126864L83.86666666666667,139.6439722047019L86.13333333333333,139.70576768022767L88.4,138.86653773742174L90.66666666666666,138.19869184339728L92.93333333333334,138.6195229232446L95.19999999999999,139.31017548861334L97.46666666666667,138.8482591456744L99.73333333333332,137.20187822916222L102,136.4878964090043L104.26666666666668,135.34750669043228L106.53333333333333,134.0060423924687L108.80000000000001,134.29654820618848L111.06666666666666,133.53977533117865L113.33333333333334,133.0857116068202L115.6,133.9086577598349L117.86666666666667,133.03319435531412L120.13333333333333,133.71283938336626L122.4,133.35385724762125L124.66666666666666,132.80985273172928L126.93333333333334,132.4834500222158L129.2,131.24699335138484L131.46666666666667,131.38142718486156L133.73333333333332,130.3119337563053L136,130.43700603547688L138.26666666666665,131.716972473377L140.53333333333336,131.55387597453029L142.8,131.72986396790878L145.06666666666666,131.67114955477408L147.33333333333331,130.59530586178556L149.60000000000002,130.4427220896028L151.86666666666667,129.36532612294792L154.13333333333333,129.26658032832736L156.39999999999998,128.33102501560927L158.66666666666669,126.72907678287109L160.93333333333334,126.86329141397269L163.2,126.01274383105078L165.46666666666664,126.26918443371888L167.73333333333335,125.54674095937402L170,125.98958271071281L172.26666666666665,124.88605666583527L174.53333333333336,124.60732561511935L176.8,124.9877804023123L179.06666666666666,123.84682217894724L181.33333333333331,123.81947771382491L183.60000000000002,124.40553297801114L185.86666666666667,125.35962807978248L188.13333333333333,123.08408426595913L190.39999999999998,122.04737402823864L192.66666666666669,121.91827114534144L194.93333333333334,121.95034809912761L197.2,122.46251589888413L199.46666666666664,120.96243238120954L201.73333333333335,120.71961273950149L204,121.55976747394686L206.26666666666665,120.96847511161938L208.53333333333336,120.50416264294867L210.8,120.06126632033434L213.06666666666666,117.87860564571271L215.33333333333331,118.97885538172787L217.60000000000002,119.47469801417537L219.86666666666667,118.73158854853654L222.13333333333333,118.83341465452546L224.39999999999998,119.00404900164332L226.66666666666669,118.55873782454182L228.93333333333334,118.56539701096702L231.2,117.91216205392541L233.46666666666664,118.0131427071853L235.73333333333335,116.9235773705094L238,117.36522337149856L240.26666666666665,116.69913461050925L242.53333333333336,117.99732686791968L244.8,119.05008811505206L247.06666666666666,117.54574461522945" style="fill: none;" fill="none"></path></g><g><path stroke="rgb(187, 187, 187)" stroke-width="2px" d="M22.666666666666664,149.6569229708268L24.93333333333333,151.88192301673385L27.200000000000003,149.76869703359094L29.46666666666667,149.4027090673061L31.733333333333334,148.919096740768L34,149.1712210004909L36.266666666666666,149.5964833723444L38.53333333333333,149.23113824023258L40.8,148.628610892608L43.06666666666666,148.49141395303124L45.33333333333333,148.13478522744873L47.599999999999994,147.9216378551816L49.86666666666666,148.6166596481369L52.13333333333334,147.9368474531367L54.400000000000006,147.80327636290826L56.66666666666667,148.54494423873496L58.93333333333334,149.15414646638226L61.2,148.47888065224754L63.46666666666667,147.36172144982788L65.73333333333333,147.29395346911505L68,146.37696720656402L70.26666666666668,146.9221875361308L72.53333333333333,147.03023645189649L74.80000000000001,146.82121806496605L77.06666666666666,146.69580766667121L79.33333333333334,146.07286812012129L81.6,146.79449098831859L83.86666666666667,146.29638689513467L86.13333333333333,146.70952470798946L88.4,147.06694559795736L90.66666666666666,146.1860131411388L92.93333333333334,147.41006955320833L95.19999999999999,146.17281102113472L97.46666666666667,146.0876864274299L99.73333333333332,145.87230446078172L102,145.6883059408353L104.26666666666668,145.79698338236173L106.53333333333333,146.30034376644693L108.80000000000001,147.0405139146509L111.06666666666666,146.11538490500672L113.33333333333334,146.10800010194833L115.6,145.33680006732686L117.86666666666667,144.92884938856957L120.13333333333333,145.1770022412111L122.4,144.94250937651805L124.66666666666666,143.48735190371724L126.93333333333334,142.50471873656625L129.2,141.6960622853704L131.46666666666667,141.9228682253331L133.73333333333332,141.73033655485773L136,141.7791247617359L138.26666666666665,141.5893211349382L140.53333333333336,141.80405419330882L142.8,142.09720205361788L145.06666666666666,141.78016751006768L147.33333333333331,141.04225418244016L149.60000000000002,141.6401220470965L151.86666666666667,141.1225349299444L154.13333333333333,140.6476746343664L156.39999999999998,141.51291218565154L158.66666666666669,140.99143967131522L160.93333333333334,139.25455572527036L163.2,139.25304121887592L165.46666666666664,140.01890166746048L167.73333333333335,139.6021101006655L170,139.29726581882625L172.26666666666665,140.10020576919294L174.53333333333336,139.65089256170498L176.8,139.92899723870954L179.06666666666666,139.16478286720434L181.33333333333331,139.14440816227406L183.60000000000002,138.85833744662978L185.86666666666667,139.6725407205883L188.13333333333333,139.8872167922773L190.39999999999998,138.97540739018336L192.66666666666669,139.24985942698532L194.93333333333334,138.2643769204347L197.2,137.94693412531555L199.46666666666664,138.52323760066528L201.73333333333335,139.30717360384799L204,139.94184241491922L206.26666666666665,139.88448978358912L208.53333333333336,138.86423250144594L210.8,138.69023205013292L213.06666666666666,137.7642932851616L215.33333333333331,138.6327296474968L217.60000000000002,139.8657912755569L219.86666666666667,139.29116731459948L222.13333333333333,139.2750081724734L224.39999999999998,139.37485137072224L226.66666666666669,139.6538338405954L228.93333333333334,138.23291567591463L231.2,139.02344176547308L233.46666666666664,137.96421911436573L235.73333333333335,137.6573007581497L238,137.85653432063066L240.26666666666665,138.4142283760921L242.53333333333336,138.74884480936896L244.8,138.18284551691386L247.06666666666666,138.66478443562428" style="fill: none;" fill="none"></path></g></g></g></g><g opacity="0.2"><g><g><g><path stroke="rgb(204, 51, 17)" stroke-width="2px" d="M22.666666666666664,151.43692351763065L24.93333333333333,148.0138457784286L27.200000000000003,147.19230769230768L29.46666666666667,146.2338462517812L31.733333333333334,145.5492315200659L34,147.74000008977376L36.266666666666666,144.31692337072812L38.53333333333333,146.3707696061868L40.8,148.15076913283423L43.06666666666666,142.12615378086383L45.33333333333333,144.04307666191687L47.599999999999994,143.63230863901285L49.86666666666666,146.5076929605924L52.13333333333334,144.86461474803778L54.400000000000006,144.59077007953937L56.66666666666667,139.79846083659393L58.93333333333334,141.30461569474295L61.2,138.8399993960674L63.46666666666667,138.42923137316336L65.73333333333333,140.07230754540518L68,138.15538466435214L70.26666666666668,135.6907683656766L72.53333333333333,137.05999986941998L74.80000000000001,140.07230754540518L77.06666666666666,139.11384610487866L79.33333333333334,138.97692275047302L81.6,138.29230801875775L83.86666666666667,141.1676923403373L86.13333333333333,139.79846083659393L88.4,137.60769328704248L90.66666666666666,137.1969232238256L92.93333333333334,139.25076945928427L95.19999999999999,140.34615425421643L97.46666666666667,138.15538466435214L99.73333333333332,134.73230692515006L102,135.4169236971782L104.26666666666668,133.63692213021793L106.53333333333333,131.99384595797613L108.80000000000001,134.73230692515006L111.06666666666666,132.404616021193L113.33333333333334,132.404616021193L115.6,135.14307698836694L117.86666666666667,131.71999924916489L120.13333333333333,134.73230692515006L122.4,132.81538404409702L124.66666666666666,131.99384595797613L126.93333333333334,131.99384595797613L129.2,129.39230834520782L131.46666666666667,131.58307793507208L133.73333333333332,128.70769361349252L136,130.62461445423273L138.26666666666665,133.63692213021793L140.53333333333336,131.30923122626086L142.8,131.99384595797613L145.06666666666666,131.58307793507208L147.33333333333331,128.98154032230377L149.60000000000002,130.2138464313287L151.86666666666667,127.749232172966L154.13333333333333,129.11846163639655L156.39999999999998,126.92769204653227L158.66666666666669,124.32615443376395L160.93333333333334,127.06461336062506L163.2,124.73692245666798L165.46666666666664,126.65384533772102L167.73333333333335,124.46307574785673L170,126.65384533772102L172.26666666666665,123.23076759851897L174.53333333333336,124.18922903904549L176.8,125.55846258310171L179.06666666666666,122.13538484389966L181.33333333333331,123.77846101614145L183.60000000000002,125.28461587429047L185.86666666666667,126.79077073243948L188.13333333333333,119.67076854522412L190.39999999999998,120.49230867165787L192.66666666666669,121.72461682099564L194.93333333333334,121.99846352980688L197.2,123.23076759851897L199.46666666666664,118.7123071046976L201.73333333333335,120.35538327693939L204,122.81999957561493L206.26666666666665,120.08153656812814L208.53333333333336,119.80769393994258L210.8,119.39692183641287L213.06666666666666,114.60461463378027L215.33333333333331,120.62922998575064L217.60000000000002,120.21846196284662L219.86666666666667,117.61692435007829L222.13333333333333,118.98615381350885L224.39999999999998,119.2600005223201L226.66666666666669,117.89077105888954L228.93333333333334,118.57538579060481L231.2,116.93230961836302L233.46666666666664,118.1646136870751L235.73333333333335,115.28922936549554L238,118.02769237298233L240.26666666666665,115.70000146902525L242.53333333333336,119.94461525403537L244.8,120.62922998575064L247.06666666666666,115.28922936549554" style="fill: none;" fill="none"></path></g><g><path stroke="rgb(187, 187, 187)" stroke-width="2px" d="M22.666666666666664,149.65692297082683L24.93333333333333,153.21692304427808L27.200000000000003,147.74000008977376L29.46666666666667,148.9723072189551L31.733333333333334,148.28769248723984L34,149.5199996164212L36.266666666666666,150.20461536829288L38.53333333333333,148.69846153030028L40.8,147.74000008977376L43.06666666666666,148.28769248723984L45.33333333333333,147.60307673536815L47.599999999999994,147.60307673536815L49.86666666666666,149.65692297082683L52.13333333333334,146.91846098349646L54.400000000000006,147.60307673536815L56.66666666666667,149.65692297082683L58.93333333333334,150.06769201388727L61.2,147.4661533809625L63.46666666666667,145.6861528341587L65.73333333333333,147.19230769230768L68,145.00153810244342L70.26666666666668,147.74000008977376L72.53333333333333,147.19230769230768L74.80000000000001,146.5076929605924L77.06666666666666,146.5076929605924L79.33333333333334,145.13846145684903L81.6,147.8769234441794L83.86666666666667,145.5492315200659L86.13333333333333,147.32923104671332L88.4,147.60307673536815L90.66666666666666,144.86461474803778L92.93333333333334,149.24615392776636L95.19999999999999,144.31692337072812L97.46666666666667,145.9599995429699L99.73333333333332,145.5492315200659L102,145.41230816566028L104.26666666666668,145.9599995429699L106.53333333333333,147.05538433790207L108.80000000000001,148.15076913283423L111.06666666666666,144.72769139363214L113.33333333333334,146.09692289737555L115.6,144.1800000163225L117.86666666666667,144.31692337072812L120.13333333333333,145.5492315200659L122.4,144.59077007953937L124.66666666666666,141.30461569474295L126.93333333333334,141.0307689859317L129.2,140.48307760862204L131.46666666666667,142.26307713526947L133.73333333333332,141.44153904914856L136,141.8523070720526L138.26666666666665,141.30461569474295L140.53333333333336,142.12615378086383L142.8,142.53692384408072L145.06666666666666,141.30461569474295L147.33333333333331,139.93538419099954L149.60000000000002,142.53692384408072L151.86666666666667,140.34615425421643L154.13333333333333,139.93538419099954L156.39999999999998,142.8107685125791L158.66666666666669,140.2092308998108L160.93333333333334,136.64922980620312L163.2,139.25076945928427L165.46666666666664,141.1676923403373L167.73333333333335,138.97692275047302L170,138.8399993960674L172.26666666666665,141.30461569474295L174.53333333333336,138.97692275047302L176.8,140.34615425421643L179.06666666666666,138.0184613099465L181.33333333333331,139.11384610487866L183.60000000000002,138.42923137316336L185.86666666666667,140.89384563152606L188.13333333333333,140.2092308998108L190.39999999999998,137.60769328704248L192.66666666666669,139.6615374821883L194.93333333333334,136.78615316060873L197.2,137.47076993263687L199.46666666666664,139.3876928136899L201.73333333333335,140.48307760862204L204,140.89384563152606L206.26666666666665,139.79846083659393L208.53333333333336,137.33384657823123L210.8,138.42923137316336L213.06666666666666,136.3753851377047L215.33333333333331,139.93538419099954L217.60000000000002,141.71538371764697L219.86666666666667,138.42923137316336L222.13333333333333,139.25076945928427L224.39999999999998,139.52461616809552L226.66666666666669,140.07230754540518L228.93333333333334,136.10153842889346L231.2,140.2092308998108L233.46666666666664,136.3753851377047L235.73333333333335,137.1969232238256L238,138.15538466435214L240.26666666666665,139.25076945928427L242.53333333333336,139.25076945928427L244.8,137.33384657823123L247.06666666666666,139.3876928136899" style="fill: none;" fill="none"></path></g></g></g></g></g></g><g transform="translate(58, 178)" clip-path="url(#clip_1)"><clipPath id="clip_1"><rect width="272" height="22"></rect></clipPath><g><g><line x1="0" y1="0" x2="0" y2="5" style="visibility: inherit;" fill="rgb(0, 0, 0)" stroke="rgb(204, 204, 204)" stroke-width="1px"></line><line x1="22.666666666666664" y1="0" x2="22.666666666666664" y2="5" style="visibility: inherit;" fill="rgb(0, 0, 0)" stroke="rgb(204, 204, 204)" stroke-width="1px"></line><line x1="45.33333333333333" y1="0" x2="45.33333333333333" y2="5" style="visibility: inherit;" fill="rgb(0, 0, 0)" stroke="rgb(204, 204, 204)" stroke-width="1px"></line><line x1="68" y1="0" x2="68" y2="5" style="visibility: inherit;" fill="rgb(0, 0, 0)" stroke="rgb(204, 204, 204)" stroke-width="1px"></line><line x1="90.66666666666666" y1="0" x2="90.66666666666666" y2="5" style="visibility: inherit;" fill="rgb(0, 0, 0)" stroke="rgb(204, 204, 204)" stroke-width="1px"></line><line x1="113.33333333333334" y1="0" x2="113.33333333333334" y2="5" style="visibility: inherit;" fill="rgb(0, 0, 0)" stroke="rgb(204, 204, 204)" stroke-width="1px"></line><line x1="136" y1="0" x2="136" y2="5" style="visibility: inherit;" fill="rgb(0, 0, 0)" stroke="rgb(204, 204, 204)" stroke-width="1px"></line><line x1="158.66666666666669" y1="0" x2="158.66666666666669" y2="5" style="visibility: inherit;" fill="rgb(0, 0, 0)" stroke="rgb(204, 204, 204)" stroke-width="1px"></line><line x1="181.33333333333331" y1="0" x2="181.33333333333331" y2="5" style="visibility: inherit;" fill="rgb(0, 0, 0)" stroke="rgb(204, 204, 204)" stroke-width="1px"></line><line x1="204" y1="0" x2="204" y2="5" style="visibility: inherit;" fill="rgb(0, 0, 0)" stroke="rgb(204, 204, 204)" stroke-width="1px"></line><line x1="226.66666666666669" y1="0" x2="226.66666666666669" y2="5" style="visibility: inherit;" fill="rgb(0, 0, 0)" stroke="rgb(204, 204, 204)" stroke-width="1px"></line><line x1="249.33333333333331" y1="0" x2="249.33333333333331" y2="5" style="visibility: inherit;" fill="rgb(0, 0, 0)" stroke="rgb(204, 204, 204)" stroke-width="1px"></line><line x1="272" y1="0" x2="272" y2="5" style="visibility: inherit;" fill="rgb(0, 0, 0)" stroke="rgb(204, 204, 204)" stroke-width="1px"></line></g><g transform="translate(0, 8)"><text x="0" y="0" dx="0em" dy="0.95em" style="text-anchor: middle; visibility: hidden; font-family: &quot;Helvetica Neue&quot;, sans-serif; font-size: 12px; font-weight: 200;" fill="rgb(50, 49, 63)" stroke="none" stroke-width="1px">-10</text><text x="22.666666666666664" y="0" dx="0em" dy="0.95em" style="text-anchor: middle; visibility: inherit; font-family: &quot;Helvetica Neue&quot;, sans-serif; font-size: 12px; font-weight: 200;" fill="rgb(50, 49, 63)" stroke="none" stroke-width="1px">0</text><text x="45.33333333333333" y="0" dx="0em" dy="0.95em" style="text-anchor: middle; visibility: hidden; font-family: &quot;Helvetica Neue&quot;, sans-serif; font-size: 12px; font-weight: 200;" fill="rgb(50, 49, 63)" stroke="none" stroke-width="1px">10</text><text x="68" y="0" dx="0em" dy="0.95em" style="text-anchor: middle; visibility: inherit; font-family: &quot;Helvetica Neue&quot;, sans-serif; font-size: 12px; font-weight: 200;" fill="rgb(50, 49, 63)" stroke="none" stroke-width="1px">20</text><text x="90.66666666666666" y="0" dx="0em" dy="0.95em" style="text-anchor: middle; visibility: hidden; font-family: &quot;Helvetica Neue&quot;, sans-serif; font-size: 12px; font-weight: 200;" fill="rgb(50, 49, 63)" stroke="none" stroke-width="1px">30</text><text x="113.33333333333334" y="0" dx="0em" dy="0.95em" style="text-anchor: middle; visibility: inherit; font-family: &quot;Helvetica Neue&quot;, sans-serif; font-size: 12px; font-weight: 200;" fill="rgb(50, 49, 63)" stroke="none" stroke-width="1px">40</text><text x="136" y="0" dx="0em" dy="0.95em" style="text-anchor: middle; visibility: hidden; font-family: &quot;Helvetica Neue&quot;, sans-serif; font-size: 12px; font-weight: 200;" fill="rgb(50, 49, 63)" stroke="none" stroke-width="1px">50</text><text x="158.66666666666669" y="0" dx="0em" dy="0.95em" style="text-anchor: middle; visibility: inherit; font-family: &quot;Helvetica Neue&quot;, sans-serif; font-size: 12px; font-weight: 200;" fill="rgb(50, 49, 63)" stroke="none" stroke-width="1px">60</text><text x="181.33333333333331" y="0" dx="0em" dy="0.95em" style="text-anchor: middle; visibility: hidden; font-family: &quot;Helvetica Neue&quot;, sans-serif; font-size: 12px; font-weight: 200;" fill="rgb(50, 49, 63)" stroke="none" stroke-width="1px">70</text><text x="204" y="0" dx="0em" dy="0.95em" style="text-anchor: middle; visibility: inherit; font-family: &quot;Helvetica Neue&quot;, sans-serif; font-size: 12px; font-weight: 200;" fill="rgb(50, 49, 63)" stroke="none" stroke-width="1px">80</text><text x="226.66666666666669" y="0" dx="0em" dy="0.95em" style="text-anchor: middle; visibility: hidden; font-family: &quot;Helvetica Neue&quot;, sans-serif; font-size: 12px; font-weight: 200;" fill="rgb(50, 49, 63)" stroke="none" stroke-width="1px">90</text><text x="249.33333333333331" y="0" dx="0em" dy="0.95em" style="text-anchor: middle; visibility: inherit; font-family: &quot;Helvetica Neue&quot;, sans-serif; font-size: 12px; font-weight: 200;" fill="rgb(50, 49, 63)" stroke="none" stroke-width="1px">100</text><text x="272" y="0" dx="0em" dy="0.95em" style="text-anchor: middle; visibility: hidden; font-family: &quot;Helvetica Neue&quot;, sans-serif; font-size: 12px; font-weight: 200;" fill="rgb(50, 49, 63)" stroke="none" stroke-width="1px">110</text></g><line x1="0" y1="0" x2="272" y2="0" fill="rgb(0, 0, 0)" stroke="rgb(204, 204, 204)" stroke-width="1px"></line></g></g></g></g></svg>