<svg viewBox="0 0 330 200" xmlns="http://www.w3.org/2000/svg"><g><g><g><g><g><line x1="34" y1="178" x2="29" y2="178" style="visibility: inherit;" fill="rgb(0, 0, 0)" stroke="rgb(204, 204, 204)" stroke-width="1px"></line><line x1="34" y1="161.8181818181818" x2="29" y2="161.8181818181818" style="visibility: inherit;" fill="rgb(0, 0, 0)" stroke="rgb(204, 204, 204)" stroke-width="1px"></line><line x1="34" y1="145.63636363636363" x2="29" y2="145.63636363636363" style="visibility: inherit;" fill="rgb(0, 0, 0)" stroke="rgb(204, 204, 204)" stroke-width="1px"></line><line x1="34" y1="129.45454545454547" x2="29" y2="129.45454545454547" style="visibility: inherit;" fill="rgb(0, 0, 0)" stroke="rgb(204, 204, 204)" stroke-width="1px"></line><line x1="34" y1="113.27272727272727" x2="29" y2="113.27272727272727" style="visibility: inherit;" fill="rgb(0, 0, 0)" stroke="rgb(204, 204, 204)" stroke-width="1px"></line><line x1="34" y1="97.0909090909091" x2="29" y2="97.0909090909091" style="visibility: inherit;" fill="rgb(0, 0, 0)" stroke="rgb(204, 204, 204)" stroke-width="1px"></line><line x1="34" y1="80.90909090909092" x2="29" y2="80.90909090909092" style="visibility: inherit;" fill="rgb(0, 0, 0)" stroke="rgb(204, 204, 204)" stroke-width="1px"></line><line x1="34" y1="64.72727272727273" x2="29" y2="64.72727272727273" style="visibility: inherit;" fill="rgb(0, 0, 0)" stroke="rgb(204, 204, 204)" stroke-width="1px"></line><line x1="34" y1="48.54545454545453" x2="29" y2="48.54545454545453" style="visibility: inherit;" fill="rgb(0, 0, 0)" stroke="rgb(204, 204, 204)" stroke-width="1px"></line><line x1="34" y1="32.363636363636346" x2="29" y2="32.363636363636346" style="visibility: inherit;" fill="rgb(0, 0, 0)" stroke="rgb(204, 204, 204)" stroke-width="1px"></line><line x1="34" y1="16.181818181818187" x2="29" y2="16.181818181818187" style="visibility: inherit;" fill="rgb(0, 0, 0)" stroke="rgb(204, 204, 204)" stroke-width="1px"></line><line x1="34" y1="0" x2="29" y2="0" style="visibility: inherit;" fill="rgb(0, 0, 0)" stroke="rgb(204, 204, 204)" stroke-width="1px"></line></g><g transform="translate(24, 0)"><text x="0" y="178" dx="0em" dy="0.3em" style="text-anchor: end; visibility: hidden; font-family: &quot;Helvetica Neue&quot;, sans-serif; font-size: 12px; font-weight: 200;" fill="rgb(50, 49, 63)" stroke="none" stroke-width="1px">-1</text><text x="0" y="161.8181818181818" dx="0em" dy="0.3em" style="text-anchor: end; visibility: inherit; font-family: &quot;Helvetica Neue&quot;, sans-serif; font-size: 12px; font-weight: 200;" fill="rgb(50, 49, 63)" stroke="none" stroke-width="1px">0</text><text x="0" y="145.63636363636363" dx="0em" dy="0.3em" style="text-anchor: end; visibility: hidden; font-family: &quot;Helvetica Neue&quot;, sans-serif; font-size: 12px; font-weight: 200;" fill="rgb(50, 49, 63)" stroke="none" stroke-width="1px">1</text><text x="0" y="129.45454545454547" dx="0em" dy="0.3em" style="text-anchor: end; visibility: inherit; font-family: &quot;Helvetica Neue&quot;, sans-serif; font-size: 12px; font-weight: 200;" fill="rgb(50, 49, 63)" stroke="none" stroke-width="1px">2</text><text x="0" y="113.27272727272727" dx="0em" dy="0.3em" style="text-anchor: end; visibility: hidden; font-family: &quot;Helvetica Neue&quot;, sans-serif; font-size: 12px; font-weight: 200;" fill="rgb(50, 49, 63)" stroke="none" stroke-width="1px">3</text><text x="0" y="97.0909090909091" dx="0em" dy="0.3em" style="text-anchor: end; visibility: inherit; font-family: &quot;Helvetica Neue&quot;, sans-serif; font-size: 12px; font-weight: 200;" fill="rgb(50, 49, 63)" stroke="none" stroke-width="1px">4</text><text x="0" y="80.90909090909092" dx="0em" dy="0.3em" style="text-anchor: end; visibility: hidden; font-family: &quot;Helvetica Neue&quot;, sans-serif; font-size: 12px; font-weight: 200;" fill="rgb(50, 49, 63)" stroke="none" stroke-width="1px">5</text><text x="0" y="64.72727272727273" dx="0em" dy="0.3em" style="text-anchor: end; visibility: inherit; font-family: &quot;Helvetica Neue&quot;, sans-serif; font-size: 12px; font-weight: 200;" fill="rgb(50, 49, 63)" stroke="none" stroke-width="1px">6</text><text x="0" y="48.54545454545453" dx="0em" dy="0.3em" style="text-anchor: end; visibility: hidden; font-family: &quot;Helvetica Neue&quot;, sans-serif; font-size: 12px; font-weight: 200;" fill="rgb(50, 49, 63)" stroke="none" stroke-width="1px">7</text><text x="0" y="32.363636363636346" dx="0em" dy="0.3em" style="text-anchor: end; visibility: inherit; font-family: &quot;Helvetica Neue&quot;, sans-serif; font-size: 12px; font-weight: 200;" fill="rgb(50, 49, 63)" stroke="none" stroke-width="1px">8</text><text x="0" y="16.181818181818187" dx="0em" dy="0.3em" style="text-anchor: end; visibility: hidden; font-family: &quot;Helvetica Neue&quot;, sans-serif; font-size: 12px; font-weight: 200;" fill="rgb(50, 49, 63)" stroke="none" stroke-width="1px">9</text><text x="0" y="0" dx="0em" dy="0.3em" style="text-anchor: end; visibility: hidden; font-family: &quot;Helvetica Neue&quot;, sans-serif; font-size: 12px; font-weight: 200;" fill="rgb(50, 49, 63)" stroke="none" stroke-width="1px">10</text></g><line x1="34" y1="0" x2="34" y2="178" fill="rgb(0, 0, 0)" stroke="rgb(204, 204, 204)" stroke-width="1px"></line></g></g><g transform="translate(34, 0)" clip-path="url(#clip_0)"><clipPath id="clip_0"><rect width="296" height="178"></rect></clipPath><g><g><g><line x1="0" y1="0" x2="0" y2="178" fill="rgb(0, 0, 0)" stroke="rgb(60, 60, 60)" stroke-width="1px" opacity="0.25"></line><line x1="24.666666666666664" y1="0" x2="24.666666666666664" y2="178" fill="rgb(0, 0, 0)" stroke="rgb(60, 60, 60)" stroke-width="1px" opacity="0.25"></line><line x1="49.33333333333333" y1="0" x2="49.33333333333333" y2="178" fill="rgb(0, 0, 0)" stroke="rgb(60, 60, 60)" stroke-width="1px" opacity="0.25"></line><line x1="74" y1="0" x2="74" y2="178" fill="rgb(0, 0, 0)" stroke="rgb(60, 60, 60)" stroke-width="1px" opacity="0.25"></line><line x1="98.66666666666666" y1="0" x2="98.66666666666666" y2="178" fill="rgb(0, 0, 0)" stroke="rgb(60, 60, 60)" stroke-width="1px" opacity="0.25"></line><line x1="123.33333333333334" y1="0" x2="123.33333333333334" y2="178" fill="rgb(0, 0, 0)" stroke="rgb(60, 60, 60)" stroke-width="1px" opacity="0.25"></line><line x1="148" y1="0" x2="148" y2="178" fill="rgb(0, 0, 0)" stroke="rgb(60, 60, 60)" stroke-width="1px" opacity="0.25"></line><line x1="172.66666666666669" y1="0" x2="172.66666666666669" y2="178" fill="rgb(0, 0, 0)" stroke="rgb(60, 60, 60)" stroke-width="1px" opacity="0.25"></line><line x1="197.33333333333331" y1="0" x2="197.33333333333331" y2="178" fill="rgb(0, 0, 0)" stroke="rgb(60, 60, 60)" stroke-width="1px" opacity="0.25"></line><line x1="222" y1="0" x2="222" y2="178" fill="rgb(0, 0, 0)" stroke="rgb(60, 60, 60)" stroke-width="1px" opacity="0.25"></line><line x1="246.66666666666669" y1="0" x2="246.66666666666669" y2="178" fill="rgb(0, 0, 0)" stroke="rgb(60, 60, 60)" stroke-width="1px" opacity="0.25"></line><line x1="271.3333333333333" y1="0" x2="271.3333333333333" y2="178" fill="rgb(0, 0, 0)" stroke="rgb(60, 60, 60)" stroke-width="1px" opacity="0.25"></line><line x1="296" y1="0" x2="296" y2="178" fill="rgb(0, 0, 0)" stroke="rgb(60, 60, 60)" stroke-width="1px" opacity="0.25"></line></g><g><line x1="0" y1="178" x2="296" y2="178" fill="rgb(0, 0, 0)" stroke="rgb(60, 60, 60)" stroke-width="1px" opacity="0.25"></line><line x1="0" y1="161.8181818181818" x2="296" y2="161.8181818181818" fill="rgb(0, 0, 0)" stroke="rgb(60, 60, 60)" stroke-width="1px" opacity="0.25"></line><line x1="0" y1="145.63636363636363" x2="296" y2="145.63636363636363" fill="rgb(0, 0, 0)" stroke="rgb(60, 60, 60)" stroke-width="1px" opacity="0.25"></line><line x1="0" y1="129.45454545454547" x2="296" y2="129.45454545454547" fill="rgb(0, 0, 0)" stroke="rgb(60, 60, 60)" stroke-width="1px" opacity="0.25"></line><line x1="0" y1="113.27272727272727" x2="296" y2="113.27272727272727" fill="rgb(0, 0, 0)" stroke="rgb(60, 60, 60)" stroke-width="1px" opacity="0.25"></line><line x1="0" y1="97.0909090909091" x2="296" y2="97.0909090909091" fill="rgb(0, 0, 0)" stroke="rgb(60, 60, 60)" stroke-width="1px" opacity="0.25"></line><line x1="0" y1="80.90909090909092" x2="296" y2="80.90909090909092" fill="rgb(0, 0, 0)" stroke="rgb(60, 60, 60)" stroke-width="1px" opacity="0.25"></line><line x1="0" y1="64.72727272727273" x2="296" y2="64.72727272727273" fill="rgb(0, 0, 0)" stroke="rgb(60, 60, 60)" stroke-width="1px" opacity="0.25"></line><line x1="0" y1="48.54545454545453" x2="296" y2="48.54545454545453" fill="rgb(0, 0, 0)" stroke="rgb(60, 60, 60)" stroke-width="1px" opacity="0.25"></line><line x1="0" y1="32.363636363636346" x2="296" y2="32.363636363636346" fill="rgb(0, 0, 0)" stroke="rgb(60, 60, 60)" stroke-width="1px" opacity="0.25"></line><line x1="0" y1="16.181818181818187" x2="296" y2="16.181818181818187" fill="rgb(0, 0, 0)" stroke="rgb(60, 60, 60)" stroke-width="1px" opacity="0.25"></line><line x1="0" y1="0" x2="296" y2="0" fill="rgb(0, 0, 0)" stroke="rgb(60, 60, 60)" stroke-width="1px" opacity="0.25"></line></g></g></g><g><g><line x1="0" y1="161.8181818181818" x2="296" y2="161.8181818181818" fill="rgb(0, 0, 0)" stroke="rgb(153, 153, 153)" stroke-width="1.5px"></line></g></g><g><g><line x1="24.666666666666664" y1="0" x2="24.666666666666664" y2="178" fill="rgb(0, 0, 0)" stroke="rgb(153, 153, 153)" stroke-width="1.5px"></line></g></g><g><g><g><g><g><path stroke="rgb(204, 51, 17)" stroke-width="2px" d="M32.06666666666667,-2.5713052303395614L34.53333333333333,20.224222884269324L37,31.90994516959961L39.46666666666667,36.45629725515914L41.93333333333333,37.785337436100065L44.4,35.07984584820747L46.86666666666667,38.68942360285939L49.33333333333333,38.61037564971963L51.8,40.29990867719687L54.266666666666666,42.72256099217756L56.733333333333334,43.51358592845517L59.2,45.407874613694474L61.66666666666667,48.79565192187911L64.13333333333334,51.307386070383686L66.60000000000001,54.33058846130439L69.06666666666666,56.58521923715506L71.53333333333333,57.284289654515675L74,55.79688535887402L76.46666666666667,57.35159587174881L78.93333333333334,56.852371309292906L81.4,55.17678481615623L83.86666666666666,54.97384288324733L86.33333333333334,54.907766768357675L88.8,55.5249310437394L91.26666666666667,57.80155576765844L93.73333333333333,58.78126816245231L96.2,61.062978598275905L98.66666666666666,63.237867139946005L101.13333333333334,65.3808264018396L103.6,65.66658699410928L106.06666666666666,65.82402783047085L108.53333333333333,68.55639898679779L111,69.86953279967696L113.46666666666667,71.35249718670876L115.93333333333334,74.11244051781901L118.4,73.74338292364979L120.86666666666666,75.154531502514L123.33333333333334,76.8522438898307L125.8,76.26436240666906L128.26666666666668,77.27016266024533L130.73333333333332,78.206888488477L133.20000000000002,78.60364529044857L135.66666666666666,80.2121915439318L138.13333333333333,80.33296275906069L140.6,81.48163516334128L143.06666666666666,81.29579980000645L145.53333333333333,81.92495083975903L148,82.51719574161795L150.46666666666667,82.49000660956587L152.93333333333334,83.34275350797733L155.4,83.66749011609491L157.86666666666667,84.05650291143188L160.33333333333331,83.78118554368962L162.8,83.78777076752016L165.26666666666668,85.0283367880158L167.73333333333332,86.37178157637182L170.2,86.74396023943552L172.66666666666669,87.5699868309172L175.13333333333333,86.7873148288748L177.6,88.20794125161733L180.06666666666666,87.63427832851833L182.53333333333333,88.68906364572605L185,89.45411766824839L187.46666666666667,88.66322339330743L189.93333333333334,89.14823844882626L192.4,88.21595365750821L194.86666666666667,88.54600129800946L197.33333333333331,89.95508907115298L199.8,89.91252446208986L202.26666666666668,88.44381719523153L204.73333333333332,89.40822653262632L207.2,91.00427592839814L209.66666666666669,90.9045108098909L212.13333333333333,92.02232185347715L214.6,91.85234023483355L217.06666666666666,92.49608688293227L219.53333333333333,92.49953645149233L222,91.52642485579197L224.46666666666667,91.28157829798556L226.93333333333334,92.22159306088919L229.4,92.78737970627338L231.86666666666667,93.77662690379776L234.33333333333331,92.74708596949367L236.8,92.45917805375319L239.26666666666668,92.2849672467916L241.73333333333332,92.22770337053589L244.2,92.94148499839575L246.66666666666669,92.75178141041441L249.13333333333333,93.35540459648169L251.6,92.94873782236435L254.06666666666666,92.97385344864544L256.53333333333336,93.57010814795592L259,93.58468931032672L261.46666666666664,94.52901418656003L263.93333333333334,94.18452998299428L266.40000000000003,94.18112762586057L268.8666666666667,94.231904405883" style="fill: none;" fill="none"></path></g><g><path stroke="rgb(187, 187, 187)" stroke-width="2px" d="M24.666666666666664,34.16957231001422L27.133333333333333,57.6774766661904L29.6,69.88319088576678L32.06666666666667,77.05708829827489L34.53333333333333,81.24224760446495L37,83.35958586912722L39.46666666666667,84.88787842122028L41.93333333333333,86.41676055398793L44.4,87.52257106545404L46.86666666666667,87.70833958182868L49.33333333333333,88.08844991408976L51.8,87.79020718804153L54.266666666666666,87.19943009148093L56.733333333333334,88.2975113896496L59.2,88.27554111901047L61.66666666666667,88.43481332388308L64.13333333333334,87.8100398662874L66.60000000000001,88.18366314861713L69.06666666666666,89.27047512336182L71.53333333333333,89.25550109314881L74,89.27030471626463L76.46666666666667,89.54006502030464L78.93333333333334,89.8663162025009L81.4,89.44875031171739L83.86666666666666,90.09933688940562L86.33333333333334,90.40256356342375L88.8,89.95896426151599L91.26666666666667,89.94511208139532L93.73333333333333,89.25442328429867L96.2,90.50230371045338L98.66666666666666,90.96715980646505L101.13333333333334,91.01808140068249L103.6,90.41401660553173L106.06666666666666,89.93467894677782L108.53333333333333,89.97958129739418L111,89.52201692751449L113.46666666666667,90.02999808745336L115.93333333333334,90.37708639898231L118.4,91.11453985345025L120.86666666666666,91.05334863594298L123.33333333333334,91.32008620675975L125.8,91.68427803010601L128.26666666666668,90.99679426953635L130.73333333333332,90.54216797704834L133.20000000000002,91.4084602503749L135.66666666666666,91.60848384011224L138.13333333333333,91.66876618103382L140.6,92.05936039166795L143.06666666666666,91.80790558047856L145.53333333333333,91.71514721375381L148,91.68496147084137L150.46666666666667,91.95206148416797L152.93333333333334,91.79923642163953L155.4,92.26374200113318L157.86666666666667,92.018692442723L160.33333333333331,92.16801620388179L162.8,92.25395611931286L165.26666666666668,91.58893275916752L167.73333333333332,92.12755974816302L170.2,91.46956691717948L172.66666666666669,92.32267937732519L175.13333333333333,92.38089618812941L177.6,93.04349642398161L180.06666666666666,92.21159603998021L182.53333333333333,92.7198379423697L185,92.88864035309051L187.46666666666667,93.43157857109614L189.93333333333334,93.20317793322941L192.4,93.54280068915907L194.86666666666667,93.80579997997935L197.33333333333331,94.03423883531094L199.8,93.29149479765762L202.26666666666668,92.93194761822969L204.73333333333332,92.19726890025024L207.2,93.2429452260366L209.66666666666669,93.6487788044341L212.13333333333333,93.65425293939875L214.6,93.66909304005083L217.06666666666666,93.03932071716348L219.53333333333333,92.45245307732624L222,92.89464554274029L224.46666666666667,92.93451532663182L226.93333333333334,93.54221204104968L229.4,92.23751525175162L231.86666666666667,93.26302511313149L234.33333333333331,93.00028294812792L236.8,92.3217674750646L239.26666666666668,93.04334037978086L241.73333333333332,93.33480185609783L244.2,94.02144392715745L246.66666666666669,93.87433656142807L249.13333333333333,93.91549261318187L251.6,93.35845153492795L254.06666666666666,93.8994261885682L256.53333333333336,93.80206419508562L259,94.25564983990515L261.46666666666664,94.19869754887382L263.93333333333334,94.0982109914825L266.40000000000003,94.55902688674851L268.8666666666667,94.48551448188044" style="fill: none;" fill="none"></path></g></g></g></g><g opacity="0.2"><g><g><g><path stroke="rgb(204, 51, 17)" stroke-width="2px" d="M24.666666666666664,-498.40319754860616L27.133333333333333,50.131180936639964L29.6,52.76180510087447L32.06666666666667,52.35562229156494L34.53333333333333,49.986064390702694L37,48.075505950234145L39.46666666666667,42.957653479142635L41.93333333333333,39.72309077869764L44.4,31.089771270751953L46.86666666666667,44.04922589388761L49.33333333333333,38.49252067912707L51.8,42.82501385428688L54.266666666666666,46.3486290845004L56.733333333333334,44.69857363267377L59.2,48.247080976312816L61.66666666666667,53.87492856112392L64.13333333333334,55.07392441142689L66.60000000000001,58.864624456925824L69.06666666666666,59.966821930625215L71.53333333333333,58.332831382751465L74,53.56586048819803L76.46666666666667,59.68361048264937L78.93333333333334,56.103544321927146L81.4,52.66342492537065L83.86666666666666,54.66943142630838L86.33333333333334,54.80865287780762L88.8,56.450675877657815L91.26666666666667,61.21648935838179L93.73333333333333,60.250835852189496L96.2,64.48554299094461L98.66666666666666,66.50019923123448L101.13333333333334,68.59526486830278L103.6,66.09522784839977L106.06666666666666,66.06018907373601L108.53333333333333,72.65495560385965L111,71.83923348513515L113.46666666666667,73.57694374431263L115.93333333333334,78.25235548886387L118.4,73.18979653445156L120.86666666666666,77.27125436609441L123.33333333333334,79.39881246740168L125.8,75.38254018263383L128.26666666666668,78.77886303988369L130.73333333333332,79.61197723041882L133.20000000000002,79.19878049330278L135.66666666666666,82.6250109239058L138.13333333333333,80.51411958174272L140.6,83.20464376969771L143.06666666666666,81.01704675501043L145.53333333333333,82.86867739937522L148,83.4055630943992L150.46666666666667,82.44922291148792L152.93333333333334,84.62187385559082L155.4,84.15459502827038L157.86666666666667,84.6400221044367L160.33333333333331,83.36820949207653L162.8,83.79764860326594L165.26666666666668,86.88918581875889L167.73333333333332,88.38694875890559L170.2,87.30222823403098L172.66666666666669,88.80902671813965L175.13333333333333,85.61330682581121L177.6,90.33888088573109L180.06666666666666,86.77378394386984L182.53333333333333,90.27124162153764L185,90.60169870203192L187.46666666666667,87.476881980896L189.93333333333334,89.87576103210449L192.4,86.81752647053112L194.86666666666667,89.04107275876132L197.33333333333331,92.06872073086825L199.8,89.8486775484952L202.26666666666668,86.24075629494406L204.73333333333332,90.85484053871848L207.2,93.39835002205588L209.66666666666669,90.75486313213001L212.13333333333333,93.69903841885653L214.6,91.59736780686812L217.06666666666666,93.46170685508035L219.53333333333333,92.50471080433239L222,90.06675746224143L224.46666666666667,90.91430846127597L226.93333333333334,93.63161520524459L229.4,93.6360596743497L231.86666666666667,95.26049770008434L234.33333333333331,91.20277456803755L236.8,92.02731618014249L239.26666666666668,92.02365103634921L241.73333333333332,92.14180755615234L244.2,94.01215744018555L246.66666666666669,92.46722602844238L249.13333333333333,94.2608393755826L251.6,92.33873766118829L254.06666666666666,93.01152688806708L256.53333333333336,94.4644901969216L259,93.60656105388294L261.46666666666664,95.94550150090997L263.93333333333334,93.6678036776456L266.40000000000003,94.17602409016003L268.8666666666667,94.30806957591663" style="fill: none;" fill="none"></path></g><g><path stroke="rgb(187, 187, 187)" stroke-width="2px" d="M24.666666666666664,34.16957231001422L27.133333333333333,71.78221927989613L29.6,81.60067653656006L32.06666666666667,85.4935916553844L34.53333333333333,86.70639159462668L37,86.28862693093039L39.46666666666667,87.07336122339422L41.93333333333333,88.64588538083164L44.4,89.15342677723278L46.86666666666667,87.98418417843907L49.33333333333333,88.65516783974387L51.8,87.34446612271397L54.266666666666666,86.31519343636252L56.733333333333334,89.94248208132657L59.2,88.24261153828014L61.66666666666667,88.67360930009322L64.13333333333334,86.87314406308262L66.60000000000001,88.74400320920078L69.06666666666666,90.90052752061324L71.53333333333333,89.23304141651501L74,89.29250933907248L76.46666666666667,89.94469659978692L78.93333333333334,90.3556865345348L81.4,88.82240642200817L83.86666666666666,91.07521213184704L86.33333333333334,90.85740228132768L88.8,89.2935664437034L91.26666666666667,89.92433383248068L93.73333333333333,88.2183907248757L96.2,92.37412366000089L98.66666666666666,91.66444379633124L101.13333333333334,91.094463781877L103.6,89.50791948491876L106.06666666666666,89.21567249298096L108.53333333333333,90.04693482138894L111,88.83567038449375L113.46666666666667,90.7919698195024L115.93333333333334,90.89771886305375L118.4,92.2207200310447L120.86666666666666,90.96156180988659L123.33333333333334,91.72019256245007L125.8,92.23056576468728L128.26666666666668,89.96556862917814L130.73333333333332,89.86022853851318L133.20000000000002,92.7078986601396L135.66666666666666,91.90851922468705L138.13333333333333,91.75918969241056L140.6,92.64525170759721L143.06666666666666,91.43072336370294L145.53333333333333,91.57600966366854L148,91.63968285647306L150.46666666666667,92.35271150415595L152.93333333333334,91.56999882784757L155.4,92.96050037037243L157.86666666666667,91.6511181051081L160.33333333333331,92.3920018456199L162.8,92.38286599245939L165.26666666666668,90.59139771894975L167.73333333333332,92.93550023165616L170.2,90.48257767070423L172.66666666666669,93.60234806754373L175.13333333333333,92.46822140433572L177.6,94.0373967777599L180.06666666666666,90.96374546397816L182.53333333333333,93.48220079595391L185,93.14184396917169L187.46666666666667,94.24598589810458L189.93333333333334,92.86057697642933L192.4,94.05223482305352L194.86666666666667,94.20029891620983L197.33333333333331,94.37689711830832L199.8,92.17737874117765L202.26666666666668,92.3926268490878L204.73333333333332,91.09525082328103L207.2,94.81145971471612L209.66666666666669,94.25752917203036L212.13333333333333,93.6624641418457L214.6,93.69135319102894L217.06666666666666,92.09466223283248L219.53333333333333,91.57215161757036L222,93.55793424086137L224.46666666666667,92.99432000246915L226.93333333333334,94.45375711267646L229.4,90.2804700678045L231.86666666666667,94.8012899052013L234.33333333333331,92.60616970062256L236.8,91.30399426546964L239.26666666666668,94.12569973685525L241.73333333333332,93.77199407057329L244.2,95.05140703374688L246.66666666666669,93.65367551283403L249.13333333333333,93.97722669081254L251.6,92.52288991754706L254.06666666666666,94.71088816902854L256.53333333333336,93.65602120486173L259,94.93602830713446L261.46666666666664,94.11326911232688L263.93333333333334,93.94748115539551L266.40000000000003,95.25025072964755L268.8666666666667,94.37524587457831" style="fill: none;" fill="none"></path></g></g></g></g></g></g><g transform="translate(34, 178)" clip-path="url(#clip_1)"><clipPath id="clip_1"><rect width="296" height="22"></rect></clipPath><g><g><line x1="0" y1="0" x2="0" y2="5" style="visibility: inherit;" fill="rgb(0, 0, 0)" stroke="rgb(204, 204, 204)" stroke-width="1px"></line><line x1="24.666666666666664" y1="0" x2="24.666666666666664" y2="5" style="visibility: inherit;" fill="rgb(0, 0, 0)" stroke="rgb(204, 204, 204)" stroke-width="1px"></line><line x1="49.33333333333333" y1="0" x2="49.33333333333333" y2="5" style="visibility: inherit;" fill="rgb(0, 0, 0)" stroke="rgb(204, 204, 204)" stroke-width="1px"></line><line x1="74" y1="0" x2="74" y2="5" style="visibility: inherit;" fill="rgb(0, 0, 0)" stroke="rgb(204, 204, 204)" stroke-width="1px"></line><line x1="98.66666666666666" y1="0" x2="98.66666666666666" y2="5" style="visibility: inherit;" fill="rgb(0, 0, 0)" stroke="rgb(204, 204, 204)" stroke-width="1px"></line><line x1="123.33333333333334" y1="0" x2="123.33333333333334" y2="5" style="visibility: inherit;" fill="rgb(0, 0, 0)" stroke="rgb(204, 204, 204)" stroke-width="1px"></line><line x1="148" y1="0" x2="148" y2="5" style="visibility: inherit;" fill="rgb(0, 0, 0)" stroke="rgb(204, 204, 204)" stroke-width="1px"></line><line x1="172.66666666666669" y1="0" x2="172.66666666666669" y2="5" style="visibility: inherit;" fill="rgb(0, 0, 0)" stroke="rgb(204, 204, 204)" stroke-width="1px"></line><line x1="197.33333333333331" y1="0" x2="197.33333333333331" y2="5" style="visibility: inherit;" fill="rgb(0, 0, 0)" stroke="rgb(204, 204, 204)" stroke-width="1px"></line><line x1="222" y1="0" x2="222" y2="5" style="visibility: inherit;" fill="rgb(0, 0, 0)" stroke="rgb(204, 204, 204)" stroke-width="1px"></line><line x1="246.66666666666669" y1="0" x2="246.66666666666669" y2="5" style="visibility: inherit;" fill="rgb(0, 0, 0)" stroke="rgb(204, 204, 204)" stroke-width="1px"></line><line x1="271.3333333333333" y1="0" x2="271.3333333333333" y2="5" style="visibility: inherit;" fill="rgb(0, 0, 0)" stroke="rgb(204, 204, 204)" stroke-width="1px"></line><line x1="296" y1="0" x2="296" y2="5" style="visibility: inherit;" fill="rgb(0, 0, 0)" stroke="rgb(204, 204, 204)" stroke-width="1px"></line></g><g transform="translate(0, 8)"><text x="0" y="0" dx="0em" dy="0.95em" style="text-anchor: middle; visibility: hidden; font-family: &quot;Helvetica Neue&quot;, sans-serif; font-size: 12px; font-weight: 200;" fill="rgb(50, 49, 63)" stroke="none" stroke-width="1px">-10</text><text x="24.666666666666664" y="0" dx="0em" dy="0.95em" style="text-anchor: middle; visibility: inherit; font-family: &quot;Helvetica Neue&quot;, sans-serif; font-size: 12px; font-weight: 200;" fill="rgb(50, 49, 63)" stroke="none" stroke-width="1px">0</text><text x="49.33333333333333" y="0" dx="0em" dy="0.95em" style="text-anchor: middle; visibility: inherit; font-family: &quot;Helvetica Neue&quot;, sans-serif; font-size: 12px; font-weight: 200;" fill="rgb(50, 49, 63)" stroke="none" stroke-width="1px">10</text><text x="74" y="0" dx="0em" dy="0.95em" style="text-anchor: middle; visibility: inherit; font-family: &quot;Helvetica Neue&quot;, sans-serif; font-size: 12px; font-weight: 200;" fill="rgb(50, 49, 63)" stroke="none" stroke-width="1px">20</text><text x="98.66666666666666" y="0" dx="0em" dy="0.95em" style="text-anchor: middle; visibility: inherit; font-family: &quot;Helvetica Neue&quot;, sans-serif; font-size: 12px; font-weight: 200;" fill="rgb(50, 49, 63)" stroke="none" stroke-width="1px">30</text><text x="123.33333333333334" y="0" dx="0em" dy="0.95em" style="text-anchor: middle; visibility: inherit; font-family: &quot;Helvetica Neue&quot;, sans-serif; font-size: 12px; font-weight: 200;" fill="rgb(50, 49, 63)" stroke="none" stroke-width="1px">40</text><text x="148" y="0" dx="0em" dy="0.95em" style="text-anchor: middle; visibility: inherit; font-family: &quot;Helvetica Neue&quot;, sans-serif; font-size: 12px; font-weight: 200;" fill="rgb(50, 49, 63)" stroke="none" stroke-width="1px">50</text><text x="172.66666666666669" y="0" dx="0em" dy="0.95em" style="text-anchor: middle; visibility: inherit; font-family: &quot;Helvetica Neue&quot;, sans-serif; font-size: 12px; font-weight: 200;" fill="rgb(50, 49, 63)" stroke="none" stroke-width="1px">60</text><text x="197.33333333333331" y="0" dx="0em" dy="0.95em" style="text-anchor: middle; visibility: inherit; font-family: &quot;Helvetica Neue&quot;, sans-serif; font-size: 12px; font-weight: 200;" fill="rgb(50, 49, 63)" stroke="none" stroke-width="1px">70</text><text x="222" y="0" dx="0em" dy="0.95em" style="text-anchor: middle; visibility: inherit; font-family: &quot;Helvetica Neue&quot;, sans-serif; font-size: 12px; font-weight: 200;" fill="rgb(50, 49, 63)" stroke="none" stroke-width="1px">80</text><text x="246.66666666666669" y="0" dx="0em" dy="0.95em" style="text-anchor: middle; visibility: inherit; font-family: &quot;Helvetica Neue&quot;, sans-serif; font-size: 12px; font-weight: 200;" fill="rgb(50, 49, 63)" stroke="none" stroke-width="1px">90</text><text x="271.3333333333333" y="0" dx="0em" dy="0.95em" style="text-anchor: middle; visibility: inherit; font-family: &quot;Helvetica Neue&quot;, sans-serif; font-size: 12px; font-weight: 200;" fill="rgb(50, 49, 63)" stroke="none" stroke-width="1px">100</text><text x="296" y="0" dx="0em" dy="0.95em" style="text-anchor: middle; visibility: hidden; font-family: &quot;Helvetica Neue&quot;, sans-serif; font-size: 12px; font-weight: 200;" fill="rgb(50, 49, 63)" stroke="none" stroke-width="1px">110</text></g><line x1="0" y1="0" x2="296" y2="0" fill="rgb(0, 0, 0)" stroke="rgb(204, 204, 204)" stroke-width="1px"></line></g></g></g></g></svg>