<svg viewBox="0 0 330 200" xmlns="http://www.w3.org/2000/svg"><g><g><g><g><g><line x1="34" y1="178" x2="29" y2="178" style="visibility: inherit;" fill="rgb(0, 0, 0)" stroke="rgb(204, 204, 204)" stroke-width="1px"></line><line x1="34" y1="161.8181818181818" x2="29" y2="161.8181818181818" style="visibility: inherit;" fill="rgb(0, 0, 0)" stroke="rgb(204, 204, 204)" stroke-width="1px"></line><line x1="34" y1="145.63636363636363" x2="29" y2="145.63636363636363" style="visibility: inherit;" fill="rgb(0, 0, 0)" stroke="rgb(204, 204, 204)" stroke-width="1px"></line><line x1="34" y1="129.45454545454547" x2="29" y2="129.45454545454547" style="visibility: inherit;" fill="rgb(0, 0, 0)" stroke="rgb(204, 204, 204)" stroke-width="1px"></line><line x1="34" y1="113.27272727272727" x2="29" y2="113.27272727272727" style="visibility: inherit;" fill="rgb(0, 0, 0)" stroke="rgb(204, 204, 204)" stroke-width="1px"></line><line x1="34" y1="97.0909090909091" x2="29" y2="97.0909090909091" style="visibility: inherit;" fill="rgb(0, 0, 0)" stroke="rgb(204, 204, 204)" stroke-width="1px"></line><line x1="34" y1="80.90909090909092" x2="29" y2="80.90909090909092" style="visibility: inherit;" fill="rgb(0, 0, 0)" stroke="rgb(204, 204, 204)" stroke-width="1px"></line><line x1="34" y1="64.72727272727273" x2="29" y2="64.72727272727273" style="visibility: inherit;" fill="rgb(0, 0, 0)" stroke="rgb(204, 204, 204)" stroke-width="1px"></line><line x1="34" y1="48.54545454545453" x2="29" y2="48.54545454545453" style="visibility: inherit;" fill="rgb(0, 0, 0)" stroke="rgb(204, 204, 204)" stroke-width="1px"></line><line x1="34" y1="32.363636363636346" x2="29" y2="32.363636363636346" style="visibility: inherit;" fill="rgb(0, 0, 0)" stroke="rgb(204, 204, 204)" stroke-width="1px"></line><line x1="34" y1="16.181818181818187" x2="29" y2="16.181818181818187" style="visibility: inherit;" fill="rgb(0, 0, 0)" stroke="rgb(204, 204, 204)" stroke-width="1px"></line><line x1="34" y1="0" x2="29" y2="0" style="visibility: inherit;" fill="rgb(0, 0, 0)" stroke="rgb(204, 204, 204)" stroke-width="1px"></line></g><g transform="translate(24, 0)"><text x="0" y="178" dx="0em" dy="0.3em" style="text-anchor: end; visibility: hidden; font-family: &quot;Helvetica Neue&quot;, sans-serif; font-size: 12px; font-weight: 200;" fill="rgb(50, 49, 63)" stroke="none" stroke-width="1px">-1</text><text x="0" y="161.8181818181818" dx="0em" dy="0.3em" style="text-anchor: end; visibility: inherit; font-family: &quot;Helvetica Neue&quot;, sans-serif; font-size: 12px; font-weight: 200;" fill="rgb(50, 49, 63)" stroke="none" stroke-width="1px">0</text><text x="0" y="145.63636363636363" dx="0em" dy="0.3em" style="text-anchor: end; visibility: hidden; font-family: &quot;Helvetica Neue&quot;, sans-serif; font-size: 12px; font-weight: 200;" fill="rgb(50, 49, 63)" stroke="none" stroke-width="1px">1</text><text x="0" y="129.45454545454547" dx="0em" dy="0.3em" style="text-anchor: end; visibility: inherit; font-family: &quot;Helvetica Neue&quot;, sans-serif; font-size: 12px; font-weight: 200;" fill="rgb(50, 49, 63)" stroke="none" stroke-width="1px">2</text><text x="0" y="113.27272727272727" dx="0em" dy="0.3em" style="text-anchor: end; visibility: hidden; font-family: &quot;Helvetica Neue&quot;, sans-serif; font-size: 12px; font-weight: 200;" fill="rgb(50, 49, 63)" stroke="none" stroke-width="1px">3</text><text x="0" y="97.0909090909091" dx="0em" dy="0.3em" style="text-anchor: end; visibility: inherit; font-family: &quot;Helvetica Neue&quot;, sans-serif; font-size: 12px; font-weight: 200;" fill="rgb(50, 49, 63)" stroke="none" stroke-width="1px">4</text><text x="0" y="80.90909090909092" dx="0em" dy="0.3em" style="text-anchor: end; visibility: hidden; font-family: &quot;Helvetica Neue&quot;, sans-serif; font-size: 12px; font-weight: 200;" fill="rgb(50, 49, 63)" stroke="none" stroke-width="1px">5</text><text x="0" y="64.72727272727273" dx="0em" dy="0.3em" style="text-anchor: end; visibility: inherit; font-family: &quot;Helvetica Neue&quot;, sans-serif; font-size: 12px; font-weight: 200;" fill="rgb(50, 49, 63)" stroke="none" stroke-width="1px">6</text><text x="0" y="48.54545454545453" dx="0em" dy="0.3em" style="text-anchor: end; visibility: hidden; font-family: &quot;Helvetica Neue&quot;, sans-serif; font-size: 12px; font-weight: 200;" fill="rgb(50, 49, 63)" stroke="none" stroke-width="1px">7</text><text x="0" y="32.363636363636346" dx="0em" dy="0.3em" style="text-anchor: end; visibility: inherit; font-family: &quot;Helvetica Neue&quot;, sans-serif; font-size: 12px; font-weight: 200;" fill="rgb(50, 49, 63)" stroke="none" stroke-width="1px">8</text><text x="0" y="16.181818181818187" dx="0em" dy="0.3em" style="text-anchor: end; visibility: hidden; font-family: &quot;Helvetica Neue&quot;, sans-serif; font-size: 12px; font-weight: 200;" fill="rgb(50, 49, 63)" stroke="none" stroke-width="1px">9</text><text x="0" y="0" dx="0em" dy="0.3em" style="text-anchor: end; visibility: hidden; font-family: &quot;Helvetica Neue&quot;, sans-serif; font-size: 12px; font-weight: 200;" fill="rgb(50, 49, 63)" stroke="none" stroke-width="1px">10</text></g><line x1="34" y1="0" x2="34" y2="178" fill="rgb(0, 0, 0)" stroke="rgb(204, 204, 204)" stroke-width="1px"></line></g></g><g transform="translate(34, 0)" clip-path="url(#clip_0)"><clipPath id="clip_0"><rect width="296" height="178"></rect></clipPath><g><g><g><line x1="0" y1="0" x2="0" y2="178" fill="rgb(0, 0, 0)" stroke="rgb(60, 60, 60)" stroke-width="1px" opacity="0.25"></line><line x1="24.666666666666664" y1="0" x2="24.666666666666664" y2="178" fill="rgb(0, 0, 0)" stroke="rgb(60, 60, 60)" stroke-width="1px" opacity="0.25"></line><line x1="49.33333333333333" y1="0" x2="49.33333333333333" y2="178" fill="rgb(0, 0, 0)" stroke="rgb(60, 60, 60)" stroke-width="1px" opacity="0.25"></line><line x1="74" y1="0" x2="74" y2="178" fill="rgb(0, 0, 0)" stroke="rgb(60, 60, 60)" stroke-width="1px" opacity="0.25"></line><line x1="98.66666666666666" y1="0" x2="98.66666666666666" y2="178" fill="rgb(0, 0, 0)" stroke="rgb(60, 60, 60)" stroke-width="1px" opacity="0.25"></line><line x1="123.33333333333334" y1="0" x2="123.33333333333334" y2="178" fill="rgb(0, 0, 0)" stroke="rgb(60, 60, 60)" stroke-width="1px" opacity="0.25"></line><line x1="148" y1="0" x2="148" y2="178" fill="rgb(0, 0, 0)" stroke="rgb(60, 60, 60)" stroke-width="1px" opacity="0.25"></line><line x1="172.66666666666669" y1="0" x2="172.66666666666669" y2="178" fill="rgb(0, 0, 0)" stroke="rgb(60, 60, 60)" stroke-width="1px" opacity="0.25"></line><line x1="197.33333333333331" y1="0" x2="197.33333333333331" y2="178" fill="rgb(0, 0, 0)" stroke="rgb(60, 60, 60)" stroke-width="1px" opacity="0.25"></line><line x1="222" y1="0" x2="222" y2="178" fill="rgb(0, 0, 0)" stroke="rgb(60, 60, 60)" stroke-width="1px" opacity="0.25"></line><line x1="246.66666666666669" y1="0" x2="246.66666666666669" y2="178" fill="rgb(0, 0, 0)" stroke="rgb(60, 60, 60)" stroke-width="1px" opacity="0.25"></line><line x1="271.3333333333333" y1="0" x2="271.3333333333333" y2="178" fill="rgb(0, 0, 0)" stroke="rgb(60, 60, 60)" stroke-width="1px" opacity="0.25"></line><line x1="296" y1="0" x2="296" y2="178" fill="rgb(0, 0, 0)" stroke="rgb(60, 60, 60)" stroke-width="1px" opacity="0.25"></line></g><g><line x1="0" y1="178" x2="296" y2="178" fill="rgb(0, 0, 0)" stroke="rgb(60, 60, 60)" stroke-width="1px" opacity="0.25"></line><line x1="0" y1="161.8181818181818" x2="296" y2="161.8181818181818" fill="rgb(0, 0, 0)" stroke="rgb(60, 60, 60)" stroke-width="1px" opacity="0.25"></line><line x1="0" y1="145.63636363636363" x2="296" y2="145.63636363636363" fill="rgb(0, 0, 0)" stroke="rgb(60, 60, 60)" stroke-width="1px" opacity="0.25"></line><line x1="0" y1="129.45454545454547" x2="296" y2="129.45454545454547" fill="rgb(0, 0, 0)" stroke="rgb(60, 60, 60)" stroke-width="1px" opacity="0.25"></line><line x1="0" y1="113.27272727272727" x2="296" y2="113.27272727272727" fill="rgb(0, 0, 0)" stroke="rgb(60, 60, 60)" stroke-width="1px" opacity="0.25"></line><line x1="0" y1="97.0909090909091" x2="296" y2="97.0909090909091" fill="rgb(0, 0, 0)" stroke="rgb(60, 60, 60)" stroke-width="1px" opacity="0.25"></line><line x1="0" y1="80.90909090909092" x2="296" y2="80.90909090909092" fill="rgb(0, 0, 0)" stroke="rgb(60, 60, 60)" stroke-width="1px" opacity="0.25"></line><line x1="0" y1="64.72727272727273" x2="296" y2="64.72727272727273" fill="rgb(0, 0, 0)" stroke="rgb(60, 60, 60)" stroke-width="1px" opacity="0.25"></line><line x1="0" y1="48.54545454545453" x2="296" y2="48.54545454545453" fill="rgb(0, 0, 0)" stroke="rgb(60, 60, 60)" stroke-width="1px" opacity="0.25"></line><line x1="0" y1="32.363636363636346" x2="296" y2="32.363636363636346" fill="rgb(0, 0, 0)" stroke="rgb(60, 60, 60)" stroke-width="1px" opacity="0.25"></line><line x1="0" y1="16.181818181818187" x2="296" y2="16.181818181818187" fill="rgb(0, 0, 0)" stroke="rgb(60, 60, 60)" stroke-width="1px" opacity="0.25"></line><line x1="0" y1="0" x2="296" y2="0" fill="rgb(0, 0, 0)" stroke="rgb(60, 60, 60)" stroke-width="1px" opacity="0.25"></line></g></g></g><g><g><line x1="0" y1="161.8181818181818" x2="296" y2="161.8181818181818" fill="rgb(0, 0, 0)" stroke="rgb(153, 153, 153)" stroke-width="1.5px"></line></g></g><g><g><line x1="24.666666666666664" y1="0" x2="24.666666666666664" y2="178" fill="rgb(0, 0, 0)" stroke="rgb(153, 153, 153)" stroke-width="1.5px"></line></g></g><g><g><g><g><g><path stroke="rgb(0, 119, 187)" stroke-width="2px" d="M24.666666666666664,-32.357340032404096L27.133333333333333,18.58975013819608L29.6,36.70084659066845L32.06666666666667,47.56085513938555L34.53333333333333,55.45370319232407L37,60.02508359632388L39.46666666666667,62.6526856925784L41.93333333333333,66.8643245344415L44.4,70.91834277570253L46.86666666666667,73.47213127749076L49.33333333333333,76.05963984026266L51.8,78.21506703785631L54.266666666666666,80.60801601488906L56.733333333333334,82.9847036688143L59.2,85.31496681177246L61.66666666666667,86.91360769616196L64.13333333333334,88.61682193075065L66.60000000000001,89.97276531818628L69.06666666666666,92.08973419377914L71.53333333333333,95.97120063714343L74,99.47880757129519L76.46666666666667,102.46921251799786L78.93333333333334,105.67458198550324L81.4,109.22951721364177L83.86666666666666,113.83253150767156L86.33333333333334,117.48914529883957L88.8,119.70290446470716L91.26666666666667,122.05372191466738L93.73333333333333,124.2658365743699L96.2,126.24077679529222L98.66666666666666,129.927871376026L101.13333333333334,132.87771683930612L103.6,135.3408531552326L106.06666666666666,137.28623824850982L108.53333333333333,138.4361875368148L111,140.06937376017837L113.46666666666667,141.39407675051675L115.93333333333334,142.43475407121142L118.4,142.79408105764094L120.86666666666666,143.61792985315688L123.33333333333334,144.2691489511377L125.8,144.84459015370072L128.26666666666668,145.76129978978406L130.73333333333332,146.21165642254215L133.20000000000002,146.92598552074014L135.66666666666666,147.6897194842391L138.13333333333333,148.37477477823361L140.6,148.66295580690192L143.06666666666666,149.07700580840014L145.53333333333333,149.56309299216431L148,149.9271967075124L150.46666666666667,150.02470494769082L152.93333333333334,150.36083604643767L155.4,150.87864261716675L157.86666666666667,151.35577269919966L160.33333333333331,151.56548936681907L162.8,151.65383150506378L165.26666666666668,151.92321993308286L167.73333333333332,151.64168695068747L170.2,152.04426570264877L172.66666666666669,152.3282418157904L175.13333333333333,152.46935996016987L177.6,152.61619052811776L180.06666666666666,153.14292421165783L182.53333333333333,152.5149061357219L185,152.43304677241298L187.46666666666667,152.7552607610907L189.93333333333334,152.70408201058316L192.4,152.98777658193526L194.86666666666667,153.53827687769663L197.33333333333331,153.9225163976522L199.8,154.24519931685865L202.26666666666668,154.4165645390919L204.73333333333332,154.62632388771598L207.2,154.72910433027488L209.66666666666669,154.99533217990765L212.13333333333333,155.14025727200945L214.6,155.26345963487455L217.06666666666666,155.42608968523615L219.53333333333333,155.6429062242845L222,155.88429460477252L224.46666666666667,156.09822408127005L226.93333333333334,156.2651483391845L229.4,156.41025607546004L231.86666666666667,156.3300545499315L234.33333333333331,156.53259011800446L236.8,156.53628615230264L239.26666666666668,156.53672386331417L241.73333333333332,156.5013539619628L244.2,156.73195363446376L246.66666666666669,156.85188760270168L249.13333333333333,156.96340723092143L251.6,156.87955833337668L254.06666666666666,156.8436292829739L256.53333333333336,156.92767448343415L259,157.02293595741736L261.46666666666664,157.0257327793815L263.93333333333334,157.04677498463371L266.40000000000003,157.1924149347215L268.8666666666667,157.25730611021714" style="fill: none;" fill="none"></path></g><g><path stroke="rgb(0, 153, 136)" stroke-width="2px" d="M24.666666666666664,1.652694355357795L27.133333333333333,42.27492496100339L29.6,62.849936472905156L32.06666666666667,74.48317034805524L34.53333333333333,82.11780008789297L37,89.02441310084619L39.46666666666667,93.5544806150119L41.93333333333333,96.8125017674927L44.4,98.91054995896776L46.86666666666667,100.42233637986033L49.33333333333333,101.57653453735199L51.8,102.62210695100063L54.266666666666666,103.16355240936036L56.733333333333334,103.9703149986521L59.2,104.42877674924374L61.66666666666667,105.00636921981136L64.13333333333334,105.58828440155415L66.60000000000001,106.10960496204169L69.06666666666666,106.67344491906336L71.53333333333333,106.97825172819296L74,107.4454497675111L76.46666666666667,107.82481789747142L78.93333333333334,107.9623664674124L81.4,108.09166082734413L83.86666666666666,108.24246451755847L86.33333333333334,108.8824504436304L88.8,109.05251705514678L91.26666666666667,109.25717174057351L93.73333333333333,109.4459417136402L96.2,109.7774749740527L98.66666666666666,109.82437241477452L101.13333333333334,110.13023466053524L103.6,110.2598118757287L106.06666666666666,110.28854866828604L108.53333333333333,110.33585726866278L111,110.15676905281528L113.46666666666667,110.3752839845607L115.93333333333334,110.87590888330689L118.4,111.3677370445864L120.86666666666666,111.78928988939144L123.33333333333334,111.62154796512209L125.8,112.10750483119254L128.26666666666668,112.18861790631286L130.73333333333332,112.13442252628231L133.20000000000002,112.26382132015407L135.66666666666666,112.67805351349836L138.13333333333333,112.80829279036595L140.6,113.19631770553377L143.06666666666666,113.18936126249696L145.53333333333333,113.27176040790056L148,113.65894713954535L150.46666666666667,113.50097460558179L152.93333333333334,113.24811613403178L155.4,113.50074125759552L157.86666666666667,113.62166801352956L160.33333333333331,113.42016853411418L162.8,113.85700342260374L165.26666666666668,113.98613293887719L167.73333333333332,114.39790571339404L170.2,114.3656807914009L172.66666666666669,114.34750016559761L175.13333333333333,114.6528605202792L177.6,114.69916856602939L180.06666666666666,114.73658616297745L182.53333333333333,114.90755297730527L185,114.6338408545428L187.46666666666667,115.15689980178263L189.93333333333334,114.82206027457988L192.4,115.01772974634639L194.86666666666667,115.4517010871655L197.33333333333331,115.38416386227689L199.8,115.75813456794874L202.26666666666668,116.00519304309856L204.73333333333332,116.063705408129L207.2,116.16639807869531L209.66666666666669,116.26744445537702L212.13333333333333,116.62565572268689L214.6,116.47079493743516L217.06666666666666,116.35852496383717L219.53333333333333,116.32639619986546L222,116.20895944621543L224.46666666666667,116.13327668604536L226.93333333333334,116.51204685269167L229.4,116.8886014477134L231.86666666666667,116.86898191632426L234.33333333333331,117.32871590011636L236.8,117.0904376970023L239.26666666666668,117.1115010062629L241.73333333333332,117.13389058913705L244.2,117.11429174816885L246.66666666666669,117.07203536079095L249.13333333333333,117.3332294146058L251.6,117.44800271293362L254.06666666666666,117.50635891757729L256.53333333333336,117.34447185647787L259,117.20934558184327L261.46666666666664,117.32219218936032L263.93333333333334,117.71760413266915L266.40000000000003,117.31778294898959L268.8666666666667,117.25924618332863" style="fill: none;" fill="none"></path></g></g></g></g><g opacity="0.2"><g><g><g><path stroke="rgb(0, 119, 187)" stroke-width="2px" d="M24.666666666666664,-32.357340032404096L27.133333333333333,49.15800424055621L29.6,54.08749918504195L32.06666666666667,60.33222519267689L34.53333333333333,65.7586056102406L37,66.34894839200108L39.46666666666667,66.41019873185591L41.93333333333333,73.00493439761074L44.4,76.8972322290594L46.86666666666667,77.26420957391912L49.33333333333333,79.91743417219682L51.8,81.43647809462114L54.266666666666666,84.18962608684193L56.733333333333334,86.54507897116922L59.2,88.8076223893599L61.66666666666667,89.31044153733687L64.13333333333334,91.1709225394509L66.60000000000001,92.00633612546054L69.06666666666666,95.26486500826749L71.53333333333333,101.79304552078247L74,104.74002560702237L76.46666666666667,106.95472153750333L78.93333333333334,110.48257290233265L81.4,114.5618779442527L83.86666666666666,120.73702023246071L86.33333333333334,122.9740503918041L88.8,123.02353754910555L91.26666666666667,125.57994448054922L93.73333333333333,127.58400652625343L96.2,129.20318603515625L98.66666666666666,135.45851202444595L101.13333333333334,137.30248444730586L103.6,139.0355573350733L106.06666666666666,140.2043157490817L108.53333333333333,140.16111141985112L111,142.5191530531103L113.46666666666667,143.38113121552902L115.93333333333334,143.99577004259282L118.4,143.33307153528386L120.86666666666666,144.8537030436776L123.33333333333334,145.24597759680313L125.8,145.707751956853L128.26666666666668,147.1363642432473L130.73333333333332,146.88719137148422L133.20000000000002,147.99747916785154L135.66666666666666,148.83532042936844L138.13333333333333,149.4023577191613L140.6,149.0952273498882L143.06666666666666,149.69808081063357L145.53333333333333,150.29222376780075L148,150.47335228053007L150.46666666666667,150.17096730795774L152.93333333333334,150.8650326945565L155.4,151.65535247325897L157.86666666666667,152.07146782224828L160.33333333333331,151.880064368248L162.8,151.78634471243078L165.26666666666668,152.3273025751114L167.73333333333332,151.21938747709447L170.2,152.64813383059067L172.66666666666669,152.75420598550278L175.13333333333333,152.6810371767391L177.6,152.83643638003957L180.06666666666666,153.93302473696795L182.53333333333333,151.57287902181798L185,152.3102577274496L187.46666666666667,153.23858174410734L189.93333333333334,152.6273138848218L192.4,153.41331843896347L194.86666666666667,154.36402732133865L197.33333333333331,154.4988756775856L199.8,154.7292236956683L202.26666666666668,154.6736123724417L204.73333333333332,154.94096291065216L207.2,154.88327499411324L209.66666666666669,155.3946739543568L212.13333333333333,155.35764491016215L214.6,155.44826317917216L217.06666666666666,155.6700347607786L219.53333333333333,155.96813103285703L222,156.2463771755045L224.46666666666667,156.41911829601634L226.93333333333334,156.5155347260562L229.4,156.62791767987338L231.86666666666667,156.20975226163864L234.33333333333331,156.83639347011393L236.8,156.54183020374992L239.26666666666668,156.53738042983142L241.73333333333332,156.44829910993576L244.2,157.07785314321518L246.66666666666669,157.03178855505857L249.13333333333333,157.13068667325106L251.6,156.7537849870595L254.06666666666666,156.78973570736972L256.53333333333336,157.05374228412455L259,157.16582816839218L261.46666666666664,157.0299280123277L263.93333333333334,157.07833829251203L266.40000000000003,157.41087485985324L268.8666666666667,157.3546428734606" style="fill: none;" fill="none"></path></g><g><path stroke="rgb(0, 153, 136)" stroke-width="2px" d="M24.666666666666664,1.652694355357795L27.133333333333333,66.64826332439075L29.6,82.60194752433084L32.06666666666667,88.16385338523172L34.53333333333333,92.08557267622514L37,98.57874527844515L39.46666666666667,100.03254964134909L41.93333333333333,101.56272788481279L44.4,102.00476351651278L46.86666666666667,102.66716302524914L49.33333333333333,103.29736328125L51.8,104.18477561257102L54.266666666666666,103.97395268353549L56.733333333333334,105.17887835069136L59.2,105.11593047055331L61.66666666666667,105.87235056270252L64.13333333333334,106.46091092716564L66.60000000000001,106.89145343953912L69.06666666666666,107.51911895925348L71.53333333333333,107.43543408133768L74,108.1462212042375L76.46666666666667,108.39385760914196L78.93333333333334,108.16868660666726L81.4,108.28560083562677L83.86666666666666,108.46866898103194L86.33333333333334,109.84242660349067L88.8,109.30761653726752L91.26666666666667,109.56415345452048L93.73333333333333,109.72909649935636L96.2,110.2747746814381L98.66666666666666,109.8947185603055L101.13333333333334,110.58902796831998L103.6,110.45417768304999L106.06666666666666,110.33165385506369L108.53333333333333,110.40682016719471L111,109.888136733662L113.46666666666667,110.70305637879805L115.93333333333334,111.6268462267789L118.4,112.10547928376631L120.86666666666666,112.42161915519021L123.33333333333334,111.3699350790544L125.8,112.83644012971358L128.26666666666668,112.31028751893477L130.73333333333332,112.05312945625998L133.20000000000002,112.45791951092806L135.66666666666666,113.29940180345015L138.13333333333333,113.00365170565519L140.6,113.77835507826371L143.06666666666666,113.17892659794201L145.53333333333333,113.39535912600431L148,114.23972723700783L150.46666666666667,113.26401580463757L152.93333333333334,112.86882842670788L155.4,113.87967894294046L157.86666666666667,113.80305814743042L160.33333333333331,113.11791931499134L162.8,114.5122557553378L165.26666666666668,114.17982721328735L167.73333333333332,115.01556487516925L170.2,114.3173434084112L172.66666666666669,114.32022922689265L175.13333333333333,115.11090105230159L177.6,114.76863063465464L180.06666666666666,114.79271255839956L182.53333333333333,115.16400319879705L185,114.22327267039907L187.46666666666667,115.94148822264239L189.93333333333334,114.31980098377574L192.4,115.31123395399615L194.86666666666667,116.10265809839422L197.33333333333331,115.28285802494395L199.8,116.31909062645653L202.26666666666668,116.37578075582331L204.73333333333332,116.15147395567462L207.2,116.32043708454478L209.66666666666669,116.4190140203996L212.13333333333333,117.16297262365168L214.6,116.23850375955755L217.06666666666666,116.19012000344017L219.53333333333333,116.2782030539079L222,116.0328043157404L224.46666666666667,116.01975254579023L226.93333333333334,117.08020210266113L229.4,117.45343334024602L231.86666666666667,116.8395526192405L234.33333333333331,118.01831687580454L236.8,116.73302039233121L239.26666666666668,117.14309597015381L241.73333333333332,117.16747496344826L244.2,117.08489348671654L246.66666666666669,117.00865077972412L249.13333333333333,117.72502049532804L251.6,117.62016266042536L254.06666666666666,117.5938932245428L256.53333333333336,117.10164126482877L259,117.00665616989136L261.46666666666664,117.49146210063589L263.93333333333334,118.3107220476324L266.40000000000003,116.71805117347023L268.8666666666667,117.17144103483722" style="fill: none;" fill="none"></path></g></g></g></g></g></g><g transform="translate(34, 178)" clip-path="url(#clip_1)"><clipPath id="clip_1"><rect width="296" height="22"></rect></clipPath><g><g><line x1="0" y1="0" x2="0" y2="5" style="visibility: inherit;" fill="rgb(0, 0, 0)" stroke="rgb(204, 204, 204)" stroke-width="1px"></line><line x1="24.666666666666664" y1="0" x2="24.666666666666664" y2="5" style="visibility: inherit;" fill="rgb(0, 0, 0)" stroke="rgb(204, 204, 204)" stroke-width="1px"></line><line x1="49.33333333333333" y1="0" x2="49.33333333333333" y2="5" style="visibility: inherit;" fill="rgb(0, 0, 0)" stroke="rgb(204, 204, 204)" stroke-width="1px"></line><line x1="74" y1="0" x2="74" y2="5" style="visibility: inherit;" fill="rgb(0, 0, 0)" stroke="rgb(204, 204, 204)" stroke-width="1px"></line><line x1="98.66666666666666" y1="0" x2="98.66666666666666" y2="5" style="visibility: inherit;" fill="rgb(0, 0, 0)" stroke="rgb(204, 204, 204)" stroke-width="1px"></line><line x1="123.33333333333334" y1="0" x2="123.33333333333334" y2="5" style="visibility: inherit;" fill="rgb(0, 0, 0)" stroke="rgb(204, 204, 204)" stroke-width="1px"></line><line x1="148" y1="0" x2="148" y2="5" style="visibility: inherit;" fill="rgb(0, 0, 0)" stroke="rgb(204, 204, 204)" stroke-width="1px"></line><line x1="172.66666666666669" y1="0" x2="172.66666666666669" y2="5" style="visibility: inherit;" fill="rgb(0, 0, 0)" stroke="rgb(204, 204, 204)" stroke-width="1px"></line><line x1="197.33333333333331" y1="0" x2="197.33333333333331" y2="5" style="visibility: inherit;" fill="rgb(0, 0, 0)" stroke="rgb(204, 204, 204)" stroke-width="1px"></line><line x1="222" y1="0" x2="222" y2="5" style="visibility: inherit;" fill="rgb(0, 0, 0)" stroke="rgb(204, 204, 204)" stroke-width="1px"></line><line x1="246.66666666666669" y1="0" x2="246.66666666666669" y2="5" style="visibility: inherit;" fill="rgb(0, 0, 0)" stroke="rgb(204, 204, 204)" stroke-width="1px"></line><line x1="271.3333333333333" y1="0" x2="271.3333333333333" y2="5" style="visibility: inherit;" fill="rgb(0, 0, 0)" stroke="rgb(204, 204, 204)" stroke-width="1px"></line><line x1="296" y1="0" x2="296" y2="5" style="visibility: inherit;" fill="rgb(0, 0, 0)" stroke="rgb(204, 204, 204)" stroke-width="1px"></line></g><g transform="translate(0, 8)"><text x="0" y="0" dx="0em" dy="0.95em" style="text-anchor: middle; visibility: hidden; font-family: &quot;Helvetica Neue&quot;, sans-serif; font-size: 12px; font-weight: 200;" fill="rgb(50, 49, 63)" stroke="none" stroke-width="1px">-10</text><text x="24.666666666666664" y="0" dx="0em" dy="0.95em" style="text-anchor: middle; visibility: inherit; font-family: &quot;Helvetica Neue&quot;, sans-serif; font-size: 12px; font-weight: 200;" fill="rgb(50, 49, 63)" stroke="none" stroke-width="1px">0</text><text x="49.33333333333333" y="0" dx="0em" dy="0.95em" style="text-anchor: middle; visibility: inherit; font-family: &quot;Helvetica Neue&quot;, sans-serif; font-size: 12px; font-weight: 200;" fill="rgb(50, 49, 63)" stroke="none" stroke-width="1px">10</text><text x="74" y="0" dx="0em" dy="0.95em" style="text-anchor: middle; visibility: inherit; font-family: &quot;Helvetica Neue&quot;, sans-serif; font-size: 12px; font-weight: 200;" fill="rgb(50, 49, 63)" stroke="none" stroke-width="1px">20</text><text x="98.66666666666666" y="0" dx="0em" dy="0.95em" style="text-anchor: middle; visibility: inherit; font-family: &quot;Helvetica Neue&quot;, sans-serif; font-size: 12px; font-weight: 200;" fill="rgb(50, 49, 63)" stroke="none" stroke-width="1px">30</text><text x="123.33333333333334" y="0" dx="0em" dy="0.95em" style="text-anchor: middle; visibility: inherit; font-family: &quot;Helvetica Neue&quot;, sans-serif; font-size: 12px; font-weight: 200;" fill="rgb(50, 49, 63)" stroke="none" stroke-width="1px">40</text><text x="148" y="0" dx="0em" dy="0.95em" style="text-anchor: middle; visibility: inherit; font-family: &quot;Helvetica Neue&quot;, sans-serif; font-size: 12px; font-weight: 200;" fill="rgb(50, 49, 63)" stroke="none" stroke-width="1px">50</text><text x="172.66666666666669" y="0" dx="0em" dy="0.95em" style="text-anchor: middle; visibility: inherit; font-family: &quot;Helvetica Neue&quot;, sans-serif; font-size: 12px; font-weight: 200;" fill="rgb(50, 49, 63)" stroke="none" stroke-width="1px">60</text><text x="197.33333333333331" y="0" dx="0em" dy="0.95em" style="text-anchor: middle; visibility: inherit; font-family: &quot;Helvetica Neue&quot;, sans-serif; font-size: 12px; font-weight: 200;" fill="rgb(50, 49, 63)" stroke="none" stroke-width="1px">70</text><text x="222" y="0" dx="0em" dy="0.95em" style="text-anchor: middle; visibility: inherit; font-family: &quot;Helvetica Neue&quot;, sans-serif; font-size: 12px; font-weight: 200;" fill="rgb(50, 49, 63)" stroke="none" stroke-width="1px">80</text><text x="246.66666666666669" y="0" dx="0em" dy="0.95em" style="text-anchor: middle; visibility: inherit; font-family: &quot;Helvetica Neue&quot;, sans-serif; font-size: 12px; font-weight: 200;" fill="rgb(50, 49, 63)" stroke="none" stroke-width="1px">90</text><text x="271.3333333333333" y="0" dx="0em" dy="0.95em" style="text-anchor: middle; visibility: inherit; font-family: &quot;Helvetica Neue&quot;, sans-serif; font-size: 12px; font-weight: 200;" fill="rgb(50, 49, 63)" stroke="none" stroke-width="1px">100</text><text x="296" y="0" dx="0em" dy="0.95em" style="text-anchor: middle; visibility: hidden; font-family: &quot;Helvetica Neue&quot;, sans-serif; font-size: 12px; font-weight: 200;" fill="rgb(50, 49, 63)" stroke="none" stroke-width="1px">110</text></g><line x1="0" y1="0" x2="296" y2="0" fill="rgb(0, 0, 0)" stroke="rgb(204, 204, 204)" stroke-width="1px"></line></g></g></g></g></svg>