<svg viewBox="0 0 330 200" xmlns="http://www.w3.org/2000/svg"><g><g><g><g><g><line x1="58" y1="178" x2="53" y2="178" style="visibility: inherit;" fill="rgb(0, 0, 0)" stroke="rgb(204, 204, 204)" stroke-width="1px"></line><line x1="58" y1="164.30769230769232" x2="53" y2="164.30769230769232" style="visibility: inherit;" fill="rgb(0, 0, 0)" stroke="rgb(204, 204, 204)" stroke-width="1px"></line><line x1="58" y1="150.6153846153846" x2="53" y2="150.6153846153846" style="visibility: inherit;" fill="rgb(0, 0, 0)" stroke="rgb(204, 204, 204)" stroke-width="1px"></line><line x1="58" y1="136.9230769230769" x2="53" y2="136.9230769230769" style="visibility: inherit;" fill="rgb(0, 0, 0)" stroke="rgb(204, 204, 204)" stroke-width="1px"></line><line x1="58" y1="123.23076923076923" x2="53" y2="123.23076923076923" style="visibility: inherit;" fill="rgb(0, 0, 0)" stroke="rgb(204, 204, 204)" stroke-width="1px"></line><line x1="58" y1="109.53846153846155" x2="53" y2="109.53846153846155" style="visibility: inherit;" fill="rgb(0, 0, 0)" stroke="rgb(204, 204, 204)" stroke-width="1px"></line><line x1="58" y1="95.84615384615385" x2="53" y2="95.84615384615385" style="visibility: inherit;" fill="rgb(0, 0, 0)" stroke="rgb(204, 204, 204)" stroke-width="1px"></line><line x1="58" y1="82.15384615384616" x2="53" y2="82.15384615384616" style="visibility: inherit;" fill="rgb(0, 0, 0)" stroke="rgb(204, 204, 204)" stroke-width="1px"></line><line x1="58" y1="68.46153846153848" x2="53" y2="68.46153846153848" style="visibility: inherit;" fill="rgb(0, 0, 0)" stroke="rgb(204, 204, 204)" stroke-width="1px"></line><line x1="58" y1="54.769230769230774" x2="53" y2="54.769230769230774" style="visibility: inherit;" fill="rgb(0, 0, 0)" stroke="rgb(204, 204, 204)" stroke-width="1px"></line><line x1="58" y1="41.076923076923094" x2="53" y2="41.076923076923094" style="visibility: inherit;" fill="rgb(0, 0, 0)" stroke="rgb(204, 204, 204)" stroke-width="1px"></line><line x1="58" y1="27.384615384615387" x2="53" y2="27.384615384615387" style="visibility: inherit;" fill="rgb(0, 0, 0)" stroke="rgb(204, 204, 204)" stroke-width="1px"></line><line x1="58" y1="13.69230769230768" x2="53" y2="13.69230769230768" style="visibility: inherit;" fill="rgb(0, 0, 0)" stroke="rgb(204, 204, 204)" stroke-width="1px"></line><line x1="58" y1="0" x2="53" y2="0" style="visibility: inherit;" fill="rgb(0, 0, 0)" stroke="rgb(204, 204, 204)" stroke-width="1px"></line></g><g transform="translate(48, 0)"><text x="0" y="178" dx="0em" dy="0.3em" style="text-anchor: end; visibility: hidden; font-family: &quot;Helvetica Neue&quot;, sans-serif; font-size: 12px; font-weight: 200;" fill="rgb(50, 49, 63)" stroke="none" stroke-width="1px">-0.1</text><text x="0" y="164.30769230769232" dx="0em" dy="0.3em" style="text-anchor: end; visibility: inherit; font-family: &quot;Helvetica Neue&quot;, sans-serif; font-size: 12px; font-weight: 200;" fill="rgb(50, 49, 63)" stroke="none" stroke-width="1px">0</text><text x="0" y="150.6153846153846" dx="0em" dy="0.3em" style="text-anchor: end; visibility: hidden; font-family: &quot;Helvetica Neue&quot;, sans-serif; font-size: 12px; font-weight: 200;" fill="rgb(50, 49, 63)" stroke="none" stroke-width="1px">0.1</text><text x="0" y="136.9230769230769" dx="0em" dy="0.3em" style="text-anchor: end; visibility: inherit; font-family: &quot;Helvetica Neue&quot;, sans-serif; font-size: 12px; font-weight: 200;" fill="rgb(50, 49, 63)" stroke="none" stroke-width="1px">0.2</text><text x="0" y="123.23076923076923" dx="0em" dy="0.3em" style="text-anchor: end; visibility: hidden; font-family: &quot;Helvetica Neue&quot;, sans-serif; font-size: 12px; font-weight: 200;" fill="rgb(50, 49, 63)" stroke="none" stroke-width="1px">0.3</text><text x="0" y="109.53846153846155" dx="0em" dy="0.3em" style="text-anchor: end; visibility: inherit; font-family: &quot;Helvetica Neue&quot;, sans-serif; font-size: 12px; font-weight: 200;" fill="rgb(50, 49, 63)" stroke="none" stroke-width="1px">0.4</text><text x="0" y="95.84615384615385" dx="0em" dy="0.3em" style="text-anchor: end; visibility: hidden; font-family: &quot;Helvetica Neue&quot;, sans-serif; font-size: 12px; font-weight: 200;" fill="rgb(50, 49, 63)" stroke="none" stroke-width="1px">0.5</text><text x="0" y="82.15384615384616" dx="0em" dy="0.3em" style="text-anchor: end; visibility: inherit; font-family: &quot;Helvetica Neue&quot;, sans-serif; font-size: 12px; font-weight: 200;" fill="rgb(50, 49, 63)" stroke="none" stroke-width="1px">0.6</text><text x="0" y="68.46153846153848" dx="0em" dy="0.3em" style="text-anchor: end; visibility: hidden; font-family: &quot;Helvetica Neue&quot;, sans-serif; font-size: 12px; font-weight: 200;" fill="rgb(50, 49, 63)" stroke="none" stroke-width="1px">0.7</text><text x="0" y="54.769230769230774" dx="0em" dy="0.3em" style="text-anchor: end; visibility: inherit; font-family: &quot;Helvetica Neue&quot;, sans-serif; font-size: 12px; font-weight: 200;" fill="rgb(50, 49, 63)" stroke="none" stroke-width="1px">0.8</text><text x="0" y="41.076923076923094" dx="0em" dy="0.3em" style="text-anchor: end; visibility: hidden; font-family: &quot;Helvetica Neue&quot;, sans-serif; font-size: 12px; font-weight: 200;" fill="rgb(50, 49, 63)" stroke="none" stroke-width="1px">0.9</text><text x="0" y="27.384615384615387" dx="0em" dy="0.3em" style="text-anchor: end; visibility: inherit; font-family: &quot;Helvetica Neue&quot;, sans-serif; font-size: 12px; font-weight: 200;" fill="rgb(50, 49, 63)" stroke="none" stroke-width="1px">1</text><text x="0" y="13.69230769230768" dx="0em" dy="0.3em" style="text-anchor: end; visibility: hidden; font-family: &quot;Helvetica Neue&quot;, sans-serif; font-size: 12px; font-weight: 200;" fill="rgb(50, 49, 63)" stroke="none" stroke-width="1px">1.1</text><text x="0" y="0" dx="0em" dy="0.3em" style="text-anchor: end; visibility: hidden; font-family: &quot;Helvetica Neue&quot;, sans-serif; font-size: 12px; font-weight: 200;" fill="rgb(50, 49, 63)" stroke="none" stroke-width="1px">1.2</text></g><line x1="58" y1="0" x2="58" y2="178" fill="rgb(0, 0, 0)" stroke="rgb(204, 204, 204)" stroke-width="1px"></line></g></g><g transform="translate(58, 0)" clip-path="url(#clip_0)"><clipPath id="clip_0"><rect width="272" height="178"></rect></clipPath><g><g><g><line x1="0" y1="0" x2="0" y2="178" fill="rgb(0, 0, 0)" stroke="rgb(60, 60, 60)" stroke-width="1px" opacity="0.25"></line><line x1="22.666666666666664" y1="0" x2="22.666666666666664" y2="178" fill="rgb(0, 0, 0)" stroke="rgb(60, 60, 60)" stroke-width="1px" opacity="0.25"></line><line x1="45.33333333333333" y1="0" x2="45.33333333333333" y2="178" fill="rgb(0, 0, 0)" stroke="rgb(60, 60, 60)" stroke-width="1px" opacity="0.25"></line><line x1="68" y1="0" x2="68" y2="178" fill="rgb(0, 0, 0)" stroke="rgb(60, 60, 60)" stroke-width="1px" opacity="0.25"></line><line x1="90.66666666666666" y1="0" x2="90.66666666666666" y2="178" fill="rgb(0, 0, 0)" stroke="rgb(60, 60, 60)" stroke-width="1px" opacity="0.25"></line><line x1="113.33333333333334" y1="0" x2="113.33333333333334" y2="178" fill="rgb(0, 0, 0)" stroke="rgb(60, 60, 60)" stroke-width="1px" opacity="0.25"></line><line x1="136" y1="0" x2="136" y2="178" fill="rgb(0, 0, 0)" stroke="rgb(60, 60, 60)" stroke-width="1px" opacity="0.25"></line><line x1="158.66666666666669" y1="0" x2="158.66666666666669" y2="178" fill="rgb(0, 0, 0)" stroke="rgb(60, 60, 60)" stroke-width="1px" opacity="0.25"></line><line x1="181.33333333333331" y1="0" x2="181.33333333333331" y2="178" fill="rgb(0, 0, 0)" stroke="rgb(60, 60, 60)" stroke-width="1px" opacity="0.25"></line><line x1="204" y1="0" x2="204" y2="178" fill="rgb(0, 0, 0)" stroke="rgb(60, 60, 60)" stroke-width="1px" opacity="0.25"></line><line x1="226.66666666666669" y1="0" x2="226.66666666666669" y2="178" fill="rgb(0, 0, 0)" stroke="rgb(60, 60, 60)" stroke-width="1px" opacity="0.25"></line><line x1="249.33333333333331" y1="0" x2="249.33333333333331" y2="178" fill="rgb(0, 0, 0)" stroke="rgb(60, 60, 60)" stroke-width="1px" opacity="0.25"></line><line x1="272" y1="0" x2="272" y2="178" fill="rgb(0, 0, 0)" stroke="rgb(60, 60, 60)" stroke-width="1px" opacity="0.25"></line></g><g><line x1="0" y1="178" x2="272" y2="178" fill="rgb(0, 0, 0)" stroke="rgb(60, 60, 60)" stroke-width="1px" opacity="0.25"></line><line x1="0" y1="164.30769230769232" x2="272" y2="164.30769230769232" fill="rgb(0, 0, 0)" stroke="rgb(60, 60, 60)" stroke-width="1px" opacity="0.25"></line><line x1="0" y1="150.6153846153846" x2="272" y2="150.6153846153846" fill="rgb(0, 0, 0)" stroke="rgb(60, 60, 60)" stroke-width="1px" opacity="0.25"></line><line x1="0" y1="136.9230769230769" x2="272" y2="136.9230769230769" fill="rgb(0, 0, 0)" stroke="rgb(60, 60, 60)" stroke-width="1px" opacity="0.25"></line><line x1="0" y1="123.23076923076923" x2="272" y2="123.23076923076923" fill="rgb(0, 0, 0)" stroke="rgb(60, 60, 60)" stroke-width="1px" opacity="0.25"></line><line x1="0" y1="109.53846153846155" x2="272" y2="109.53846153846155" fill="rgb(0, 0, 0)" stroke="rgb(60, 60, 60)" stroke-width="1px" opacity="0.25"></line><line x1="0" y1="95.84615384615385" x2="272" y2="95.84615384615385" fill="rgb(0, 0, 0)" stroke="rgb(60, 60, 60)" stroke-width="1px" opacity="0.25"></line><line x1="0" y1="82.15384615384616" x2="272" y2="82.15384615384616" fill="rgb(0, 0, 0)" stroke="rgb(60, 60, 60)" stroke-width="1px" opacity="0.25"></line><line x1="0" y1="68.46153846153848" x2="272" y2="68.46153846153848" fill="rgb(0, 0, 0)" stroke="rgb(60, 60, 60)" stroke-width="1px" opacity="0.25"></line><line x1="0" y1="54.769230769230774" x2="272" y2="54.769230769230774" fill="rgb(0, 0, 0)" stroke="rgb(60, 60, 60)" stroke-width="1px" opacity="0.25"></line><line x1="0" y1="41.076923076923094" x2="272" y2="41.076923076923094" fill="rgb(0, 0, 0)" stroke="rgb(60, 60, 60)" stroke-width="1px" opacity="0.25"></line><line x1="0" y1="27.384615384615387" x2="272" y2="27.384615384615387" fill="rgb(0, 0, 0)" stroke="rgb(60, 60, 60)" stroke-width="1px" opacity="0.25"></line><line x1="0" y1="13.69230769230768" x2="272" y2="13.69230769230768" fill="rgb(0, 0, 0)" stroke="rgb(60, 60, 60)" stroke-width="1px" opacity="0.25"></line><line x1="0" y1="0" x2="272" y2="0" fill="rgb(0, 0, 0)" stroke="rgb(60, 60, 60)" stroke-width="1px" opacity="0.25"></line></g></g></g><g><g><line x1="0" y1="164.30769230769232" x2="272" y2="164.30769230769232" fill="rgb(0, 0, 0)" stroke="rgb(153, 153, 153)" stroke-width="1.5px"></line></g></g><g><g><line x1="22.666666666666664" y1="0" x2="22.666666666666664" y2="178" fill="rgb(0, 0, 0)" stroke="rgb(153, 153, 153)" stroke-width="1.5px"></line></g></g><g><g><g><g><g><path stroke="rgb(0, 119, 187)" stroke-width="2px" d="M22.666666666666664,149.5199996164212L24.93333333333333,146.9526924596956L27.200000000000003,144.56003157988636L29.46666666666667,139.22559951123577L31.733333333333334,134.01044477672315L34,130.234399357129L36.266666666666666,128.47919743618556L38.53333333333333,125.34127557627238L40.8,120.83691036686051L43.06666666666666,117.94310979193052L45.33333333333333,115.00875916048727L47.599999999999994,112.87075597554703L49.86666666666666,110.98768666968908L52.13333333333334,108.26986624538884L54.400000000000006,105.10627801153845L56.66666666666667,103.0995077274356L58.93333333333334,101.1836884101817L61.2,98.88413220032966L63.46666666666667,97.06636978052643L65.73333333333333,93.56584733808293L68,90.04158655666107L70.26666666666668,85.95536057679976L72.53333333333333,81.86056781405233L74.80000000000001,78.08924568646404L77.06666666666666,72.7593785172227L79.33333333333334,68.30177335262755L81.6,65.02475419272349L83.86666666666667,62.01792915919741L86.13333333333333,59.11844808197792L88.4,56.55722225970037L90.66666666666666,53.21310269144699L92.93333333333334,49.508783953005036L95.19999999999999,46.24557780382219L97.46666666666667,43.68519388576962L99.73333333333332,42.58711505901681L102,40.83288419300354L104.26666666666668,39.39696273864271L106.53333333333333,37.98771481980708L108.80000000000001,37.0326290203364L111.06666666666666,36.514346067726166L113.33333333333334,35.710453036472956L115.6,35.173348692470256L117.86666666666667,34.41293135200951L120.13333333333333,33.956680947873565L122.4,33.2447792357996L124.66666666666666,32.48902052575832L126.93333333333334,32.03556529976373L129.2,31.653955112901144L131.46666666666667,31.424989000789083L133.73333333333332,30.849454599422245L136,30.83274837693L138.26666666666665,30.987033484847075L140.53333333333336,30.53191276422379L142.8,29.984994439163984L145.06666666666666,29.821149021039872L147.33333333333331,29.777613560303138L149.60000000000002,29.751492283861126L151.86666666666667,29.407201835172145L154.13333333333333,29.74832261583157L156.39999999999998,29.240994457443065L158.66666666666669,28.9913660880471L160.93333333333334,29.005897907821407L163.2,28.905076683911204L165.46666666666664,28.68027837265376L167.73333333333335,29.80508853355508L170,29.275054008077177L172.26666666666665,29.011801818427557L174.53333333333336,28.85385050463782L176.8,28.54000234931496L179.06666666666666,28.406461981758355L181.33333333333331,28.271569235587293L183.60000000000002,28.190633587884633L185.86666666666667,27.97776335785116L188.13333333333333,27.85004121983107L190.39999999999998,27.773407937019044L192.66666666666669,27.836968283106557L194.93333333333334,27.710795649347205L197.2,27.689860594728685L199.46666666666664,27.73207135209526L201.73333333333335,27.702626016377536L204,27.684958814946924L206.26666666666665,27.619589968451407L208.53333333333336,27.580368660554115L210.8,27.55683587581572L213.06666666666666,27.54271620497269L215.33333333333331,27.534244402466868L217.60000000000002,27.583929846600512L219.86666666666667,27.55897258744352L222.13333333333333,27.543998231949388L224.39999999999998,27.535013618652897L226.66666666666669,27.47485432503788L228.93333333333334,27.438758748868878L231.2,27.471869928804608L233.46666666666664,27.491736636766007L235.73333333333335,27.503656661542863L238,27.510808676409L240.26666666666665,27.569868410965796L242.53333333333336,27.605304251699835L244.8,27.571797230503165L247.06666666666666,27.55169301778517" style="fill: none;" fill="none"></path></g><g><path stroke="rgb(0, 153, 136)" stroke-width="2px" d="M22.666666666666664,150.06769201388727L24.93333333333333,148.61288456131632L27.200000000000003,146.14163221018842L29.46666666666667,140.7725283712469L31.733333333333334,138.56843398992737L34,136.21204360348776L36.266666666666666,133.40558666728654L38.53333333333333,130.04600003763522L40.8,127.29215464529372L43.06666666666666,125.76792205852263L45.33333333333333,124.63942908395805L47.599999999999994,122.59274114868255L49.86666666666666,121.31274165560271L52.13333333333334,119.99769141442562L54.400000000000006,118.77096190620567L56.66666666666667,117.377875885044L58.93333333333334,114.57025063336962L61.2,114.03625021510231L63.46666666666667,112.83952343754373L65.73333333333333,113.54558573079447L68,112.3808649110861L70.26666666666668,110.5318799043967L72.53333333333333,109.91542999623235L74.80000000000001,110.20279838243296L77.06666666666666,109.93706256289974L79.33333333333334,107.97023427409619L81.6,107.8855257721601L83.86666666666667,106.79408341009074L86.13333333333333,106.3582958695778L88.4,106.48020810900103L90.66666666666666,105.67704748322292L92.93333333333334,104.70222787697308L95.19999999999999,104.71979813490438L97.46666666666667,104.8946475029954L99.73333333333332,105.3281731768665L102,105.3692112071108L104.26666666666668,104.40798749941521L106.53333333333333,102.35248512615902L108.80000000000001,101.22872239085864L111.06666666666666,101.32123390472692L113.33333333333334,102.08873980807364L115.6,101.01570504410729L117.86666666666667,100.5909615531702L120.13333333333333,100.99334592769704L122.4,101.50862244508308L124.66666666666666,99.73655826513597L126.93333333333334,99.22101154263116L129.2,98.1996845145908L131.46666666666667,98.29888729232468L133.73333333333332,97.97502438275046L136,98.16409121322006L138.26666666666665,97.51076215907777L140.53333333333336,98.37845713875215L142.8,98.2418436576584L145.06666666666666,97.99556835984052L147.33333333333331,98.83364806837021L149.60000000000002,96.32418944168965L151.86666666666667,97.3926676156318L154.13333333333333,97.3765240511002L156.39999999999998,97.14776054533226L158.66666666666669,96.462809024249L160.93333333333334,96.92814757979507L163.2,95.94765830096635L165.46666666666664,96.12613388609034L167.73333333333335,95.63075566165487L170,96.42891556223856L172.26666666666665,95.15519583069735L174.53333333333336,94.93865577714483L176.8,95.08257763769944L179.06666666666666,94.34739307597387L181.33333333333331,94.28966528289888L183.60000000000002,93.0501079850352L185.86666666666667,91.59437297953289L188.13333333333333,92.25447028107396L190.39999999999998,92.21237392790059L192.66666666666669,93.06342558419256L194.93333333333334,91.98574648298765L197.2,92.10590817468592L199.46666666666664,92.61615992380288L201.73333333333335,92.21031034648895L204,92.40495533419859L206.26666666666665,93.23374295360848L208.53333333333336,92.36178279732331L210.8,91.56476081086609L213.06666666666666,92.01762561282487L215.33333333333331,90.81057471479481L217.60000000000002,91.1269592210841L219.86666666666667,91.04294403217159L222.13333333333333,90.99253491882406L224.39999999999998,89.812137354434L226.66666666666669,90.41835975359338L228.93333333333334,90.23440140771679L231.2,90.5621778697883L233.46666666666664,90.37546080307087L235.73333333333335,90.75635382277551L238,91.80642731265664L240.26666666666665,90.79339605046864L242.53333333333336,89.36403635059698L244.8,90.4781135696144L247.06666666666666,90.16071338155464" style="fill: none;" fill="none"></path></g></g></g></g><g opacity="0.2"><g><g><g><path stroke="rgb(0, 119, 187)" stroke-width="2px" d="M22.666666666666664,149.5199996164212L24.93333333333333,145.41230816566028L27.200000000000003,142.26307713526947L29.46666666666667,132.95230739850265L31.733333333333334,127.20153875534352L34,125.01076916547922L36.266666666666666,125.96923060600575L38.53333333333333,120.76615538046912L40.8,114.19384661087624L43.06666666666666,113.64615319325374L45.33333333333333,110.63384755758139L47.599999999999994,109.67538611705487L49.86666666666666,108.16923125890585L52.13333333333334,104.19846010208131L54.400000000000006,100.36461433997522L56.66666666666667,100.09076763116397L58.93333333333334,98.31077014482939L61.2,95.43538174262414L63.46666666666667,94.34000306863052L65.73333333333333,88.31538363603445L68,84.7553886633653L70.26666666666668,79.82615606601422L72.53333333333333,75.71845951447122L74.80000000000001,72.43230716998761L77.06666666666666,64.76461564577545L79.33333333333334,61.61538461538461L81.6,60.1092338378613L83.86666666666667,57.50769622509297L86.13333333333333,54.7692291369805L88.4,52.715384941834685L90.66666666666666,48.196924448013306L92.93333333333334,43.95230658237753L95.19999999999999,41.35076896960919L97.46666666666667,39.844618192085846L99.73333333333332,40.93999686607947L102,38.201537939218355L104.26666666666668,37.243080579317535L106.53333333333333,35.87384295463562L108.80000000000001,35.60000032645004L111.06666666666666,35.73692164054282L113.33333333333334,34.50461349120505L115.6,34.367692177112275L117.86666666666667,33.27230534186728L120.13333333333333,33.27230534186728L122.4,32.17692666787366L124.66666666666666,31.35538246081424L126.93333333333334,31.35538246081424L129.2,31.081539832628692L131.46666666666667,31.081539832628692L133.73333333333332,29.986152997383698L136,30.807689043191743L138.26666666666665,31.218461146721467L140.53333333333336,29.849231683290924L142.8,29.164616951575624L145.06666666666666,29.575380893853975L147.33333333333331,29.71231036919812L149.60000000000002,29.71231036919812L151.86666666666667,28.890766162138704L154.13333333333333,30.26000378682062L156.39999999999998,28.480002219860353L158.66666666666669,28.616923533953155L160.93333333333334,29.02769563748285L163.2,28.75384484804593L165.46666666666664,28.34308090576758L167.73333333333335,31.492303774907015L170,28.480002219860353L172.26666666666665,28.616923533953155L174.53333333333336,28.616923533953155L176.8,28.069230116330658L179.06666666666666,28.206151430423432L181.33333333333331,28.069230116330658L183.60000000000002,28.069230116330658L185.86666666666667,27.658458012800935L188.13333333333333,27.658458012800935L190.39999999999998,27.658458012800935L192.66666666666669,27.932308802237856L194.93333333333334,27.52153669870816L197.2,27.658458012800935L199.46666666666664,27.79538748814508L201.73333333333335,27.658458012800935L204,27.658458012800935L206.26666666666665,27.52153669870816L208.53333333333336,27.52153669870816L210.8,27.52153669870816L213.06666666666666,27.52153669870816L215.33333333333331,27.52153669870816L217.60000000000002,27.658458012800935L219.86666666666667,27.52153669870816L222.13333333333333,27.52153669870816L224.39999999999998,27.52153669870816L226.66666666666669,27.384615384615387L228.93333333333334,27.384615384615387L231.2,27.52153669870816L233.46666666666664,27.52153669870816L235.73333333333335,27.52153669870816L238,27.52153669870816L240.26666666666665,27.658458012800935L242.53333333333336,27.658458012800935L244.8,27.52153669870816L247.06666666666666,27.52153669870816" style="fill: none;" fill="none"></path></g><g><path stroke="rgb(0, 153, 136)" stroke-width="2px" d="M22.666666666666664,150.06769201388727L24.93333333333333,147.74000008977376L27.200000000000003,143.76922995310565L29.46666666666667,134.45846225665167L31.733333333333334,135.6907683656766L34,132.95230739850265L36.266666666666666,129.39230834520782L38.53333333333333,125.147690479572L40.8,123.23076759851897L43.06666666666666,123.50461430733021L45.33333333333333,122.9569249703334L47.599999999999994,119.53384723113135L49.86666666666666,119.39692183641287L52.13333333333334,118.02769237298233L54.400000000000006,116.93230961836302L56.66666666666667,115.28922936549554L58.93333333333334,110.36000084877016L61.2,113.23538517034972L63.46666666666667,111.04461558048543L65.73333333333333,114.60461463378027L68,110.63384755758139L70.26666666666668,107.75846323600183L72.53333333333333,108.99076730471391L74.80000000000001,110.63384755758139L77.06666666666666,109.53846072233641L79.33333333333334,105.02000022851504L81.6,107.75846323600183L83.86666666666667,105.15692154260783L86.13333333333333,105.70461496023032L88.4,106.66307640075685L90.66666666666666,104.47230681089255L92.93333333333334,103.23999866155478L95.19999999999999,104.7461535197038L97.46666666666667,105.15692154260783L99.73333333333332,105.97846166904156L102,105.43076825141908L104.26666666666668,102.96615195274354L106.53333333333333,99.26923158535591L108.80000000000001,99.54307829416716L111.06666666666666,101.4600011752202L113.33333333333334,103.23999866155478L115.6,99.4061528994487L117.86666666666667,99.9538463170712L120.13333333333333,101.59692248931299L122.4,102.28153722102826L124.66666666666666,97.07846199549162L126.93333333333334,98.44769145892218L129.2,96.6676939725876L131.46666666666667,98.44769145892218L133.73333333333332,97.48923001839566L136,98.44769145892218L138.26666666666665,96.53076857786913L140.53333333333336,99.67999960825995L142.8,98.03692343601814L145.06666666666666,97.62615541311412L147.33333333333331,100.09076763116397L149.60000000000002,92.56000150167026L151.86666666666667,98.99538487654466L154.13333333333333,97.35230870430287L156.39999999999998,96.80461528668037L158.66666666666669,95.43538174262414L160.93333333333334,97.62615541311412L163.2,94.4769243827233L165.46666666666664,96.39384726377635L167.73333333333335,94.88768832500165L170,97.62615541311412L172.26666666666665,93.24461623338553L174.53333333333336,94.61384569681609L176.8,95.29846042853136L179.06666666666666,93.24461623338553L181.33333333333331,94.20307359328638L183.60000000000002,91.19077203823971L185.86666666666667,89.41077047127945L188.13333333333333,93.24461623338553L190.39999999999998,92.14922939814055L192.66666666666669,94.34000306863052L194.93333333333334,90.36922783118028L197.2,92.28615071223334L199.46666666666664,93.38153754747832L201.73333333333335,91.60153598051805L204,92.69692281576305L206.26666666666665,94.4769243827233L208.53333333333336,91.05384256289557L210.8,90.36922783118028L213.06666666666666,92.69692281576305L215.33333333333331,88.99999836774973L217.60000000000002,91.60153598051805L219.86666666666667,90.91692124880278L222.13333333333333,90.91692124880278L224.39999999999998,88.0415410078489L226.66666666666669,91.32769335233249L228.93333333333334,89.95846388890195L231.2,91.05384256289557L233.46666666666664,90.09538520299472L235.73333333333335,91.32769335233249L238,93.38153754747832L240.26666666666665,89.27384915718666L242.53333333333336,87.21999680078949L244.8,92.14922939814055L247.06666666666666,89.68461309946501" style="fill: none;" fill="none"></path></g></g></g></g></g></g><g transform="translate(58, 178)" clip-path="url(#clip_1)"><clipPath id="clip_1"><rect width="272" height="22"></rect></clipPath><g><g><line x1="0" y1="0" x2="0" y2="5" style="visibility: inherit;" fill="rgb(0, 0, 0)" stroke="rgb(204, 204, 204)" stroke-width="1px"></line><line x1="22.666666666666664" y1="0" x2="22.666666666666664" y2="5" style="visibility: inherit;" fill="rgb(0, 0, 0)" stroke="rgb(204, 204, 204)" stroke-width="1px"></line><line x1="45.33333333333333" y1="0" x2="45.33333333333333" y2="5" style="visibility: inherit;" fill="rgb(0, 0, 0)" stroke="rgb(204, 204, 204)" stroke-width="1px"></line><line x1="68" y1="0" x2="68" y2="5" style="visibility: inherit;" fill="rgb(0, 0, 0)" stroke="rgb(204, 204, 204)" stroke-width="1px"></line><line x1="90.66666666666666" y1="0" x2="90.66666666666666" y2="5" style="visibility: inherit;" fill="rgb(0, 0, 0)" stroke="rgb(204, 204, 204)" stroke-width="1px"></line><line x1="113.33333333333334" y1="0" x2="113.33333333333334" y2="5" style="visibility: inherit;" fill="rgb(0, 0, 0)" stroke="rgb(204, 204, 204)" stroke-width="1px"></line><line x1="136" y1="0" x2="136" y2="5" style="visibility: inherit;" fill="rgb(0, 0, 0)" stroke="rgb(204, 204, 204)" stroke-width="1px"></line><line x1="158.66666666666669" y1="0" x2="158.66666666666669" y2="5" style="visibility: inherit;" fill="rgb(0, 0, 0)" stroke="rgb(204, 204, 204)" stroke-width="1px"></line><line x1="181.33333333333331" y1="0" x2="181.33333333333331" y2="5" style="visibility: inherit;" fill="rgb(0, 0, 0)" stroke="rgb(204, 204, 204)" stroke-width="1px"></line><line x1="204" y1="0" x2="204" y2="5" style="visibility: inherit;" fill="rgb(0, 0, 0)" stroke="rgb(204, 204, 204)" stroke-width="1px"></line><line x1="226.66666666666669" y1="0" x2="226.66666666666669" y2="5" style="visibility: inherit;" fill="rgb(0, 0, 0)" stroke="rgb(204, 204, 204)" stroke-width="1px"></line><line x1="249.33333333333331" y1="0" x2="249.33333333333331" y2="5" style="visibility: inherit;" fill="rgb(0, 0, 0)" stroke="rgb(204, 204, 204)" stroke-width="1px"></line><line x1="272" y1="0" x2="272" y2="5" style="visibility: inherit;" fill="rgb(0, 0, 0)" stroke="rgb(204, 204, 204)" stroke-width="1px"></line></g><g transform="translate(0, 8)"><text x="0" y="0" dx="0em" dy="0.95em" style="text-anchor: middle; visibility: hidden; font-family: &quot;Helvetica Neue&quot;, sans-serif; font-size: 12px; font-weight: 200;" fill="rgb(50, 49, 63)" stroke="none" stroke-width="1px">-10</text><text x="22.666666666666664" y="0" dx="0em" dy="0.95em" style="text-anchor: middle; visibility: inherit; font-family: &quot;Helvetica Neue&quot;, sans-serif; font-size: 12px; font-weight: 200;" fill="rgb(50, 49, 63)" stroke="none" stroke-width="1px">0</text><text x="45.33333333333333" y="0" dx="0em" dy="0.95em" style="text-anchor: middle; visibility: hidden; font-family: &quot;Helvetica Neue&quot;, sans-serif; font-size: 12px; font-weight: 200;" fill="rgb(50, 49, 63)" stroke="none" stroke-width="1px">10</text><text x="68" y="0" dx="0em" dy="0.95em" style="text-anchor: middle; visibility: inherit; font-family: &quot;Helvetica Neue&quot;, sans-serif; font-size: 12px; font-weight: 200;" fill="rgb(50, 49, 63)" stroke="none" stroke-width="1px">20</text><text x="90.66666666666666" y="0" dx="0em" dy="0.95em" style="text-anchor: middle; visibility: hidden; font-family: &quot;Helvetica Neue&quot;, sans-serif; font-size: 12px; font-weight: 200;" fill="rgb(50, 49, 63)" stroke="none" stroke-width="1px">30</text><text x="113.33333333333334" y="0" dx="0em" dy="0.95em" style="text-anchor: middle; visibility: inherit; font-family: &quot;Helvetica Neue&quot;, sans-serif; font-size: 12px; font-weight: 200;" fill="rgb(50, 49, 63)" stroke="none" stroke-width="1px">40</text><text x="136" y="0" dx="0em" dy="0.95em" style="text-anchor: middle; visibility: hidden; font-family: &quot;Helvetica Neue&quot;, sans-serif; font-size: 12px; font-weight: 200;" fill="rgb(50, 49, 63)" stroke="none" stroke-width="1px">50</text><text x="158.66666666666669" y="0" dx="0em" dy="0.95em" style="text-anchor: middle; visibility: inherit; font-family: &quot;Helvetica Neue&quot;, sans-serif; font-size: 12px; font-weight: 200;" fill="rgb(50, 49, 63)" stroke="none" stroke-width="1px">60</text><text x="181.33333333333331" y="0" dx="0em" dy="0.95em" style="text-anchor: middle; visibility: hidden; font-family: &quot;Helvetica Neue&quot;, sans-serif; font-size: 12px; font-weight: 200;" fill="rgb(50, 49, 63)" stroke="none" stroke-width="1px">70</text><text x="204" y="0" dx="0em" dy="0.95em" style="text-anchor: middle; visibility: inherit; font-family: &quot;Helvetica Neue&quot;, sans-serif; font-size: 12px; font-weight: 200;" fill="rgb(50, 49, 63)" stroke="none" stroke-width="1px">80</text><text x="226.66666666666669" y="0" dx="0em" dy="0.95em" style="text-anchor: middle; visibility: hidden; font-family: &quot;Helvetica Neue&quot;, sans-serif; font-size: 12px; font-weight: 200;" fill="rgb(50, 49, 63)" stroke="none" stroke-width="1px">90</text><text x="249.33333333333331" y="0" dx="0em" dy="0.95em" style="text-anchor: middle; visibility: inherit; font-family: &quot;Helvetica Neue&quot;, sans-serif; font-size: 12px; font-weight: 200;" fill="rgb(50, 49, 63)" stroke="none" stroke-width="1px">100</text><text x="272" y="0" dx="0em" dy="0.95em" style="text-anchor: middle; visibility: hidden; font-family: &quot;Helvetica Neue&quot;, sans-serif; font-size: 12px; font-weight: 200;" fill="rgb(50, 49, 63)" stroke="none" stroke-width="1px">110</text></g><line x1="0" y1="0" x2="272" y2="0" fill="rgb(0, 0, 0)" stroke="rgb(204, 204, 204)" stroke-width="1px"></line></g></g></g></g></svg>