<svg viewBox="0 0 330 200" xmlns="http://www.w3.org/2000/svg"><g><g><g><g><g><line x1="58" y1="178" x2="53" y2="178" style="visibility: inherit;" fill="rgb(0, 0, 0)" stroke="rgb(204, 204, 204)" stroke-width="1px"></line><line x1="58" y1="164.30769230769232" x2="53" y2="164.30769230769232" style="visibility: inherit;" fill="rgb(0, 0, 0)" stroke="rgb(204, 204, 204)" stroke-width="1px"></line><line x1="58" y1="150.6153846153846" x2="53" y2="150.6153846153846" style="visibility: inherit;" fill="rgb(0, 0, 0)" stroke="rgb(204, 204, 204)" stroke-width="1px"></line><line x1="58" y1="136.9230769230769" x2="53" y2="136.9230769230769" style="visibility: inherit;" fill="rgb(0, 0, 0)" stroke="rgb(204, 204, 204)" stroke-width="1px"></line><line x1="58" y1="123.23076923076923" x2="53" y2="123.23076923076923" style="visibility: inherit;" fill="rgb(0, 0, 0)" stroke="rgb(204, 204, 204)" stroke-width="1px"></line><line x1="58" y1="109.53846153846152" x2="53" y2="109.53846153846152" style="visibility: inherit;" fill="rgb(0, 0, 0)" stroke="rgb(204, 204, 204)" stroke-width="1px"></line><line x1="58" y1="95.84615384615384" x2="53" y2="95.84615384615384" style="visibility: inherit;" fill="rgb(0, 0, 0)" stroke="rgb(204, 204, 204)" stroke-width="1px"></line><line x1="58" y1="82.15384615384613" x2="53" y2="82.15384615384613" style="visibility: inherit;" fill="rgb(0, 0, 0)" stroke="rgb(204, 204, 204)" stroke-width="1px"></line><line x1="58" y1="68.46153846153844" x2="53" y2="68.46153846153844" style="visibility: inherit;" fill="rgb(0, 0, 0)" stroke="rgb(204, 204, 204)" stroke-width="1px"></line><line x1="58" y1="54.769230769230774" x2="53" y2="54.769230769230774" style="visibility: inherit;" fill="rgb(0, 0, 0)" stroke="rgb(204, 204, 204)" stroke-width="1px"></line><line x1="58" y1="41.07692307692304" x2="53" y2="41.07692307692304" style="visibility: inherit;" fill="rgb(0, 0, 0)" stroke="rgb(204, 204, 204)" stroke-width="1px"></line><line x1="58" y1="27.38461538461536" x2="53" y2="27.38461538461536" style="visibility: inherit;" fill="rgb(0, 0, 0)" stroke="rgb(204, 204, 204)" stroke-width="1px"></line><line x1="58" y1="13.69230769230768" x2="53" y2="13.69230769230768" style="visibility: inherit;" fill="rgb(0, 0, 0)" stroke="rgb(204, 204, 204)" stroke-width="1px"></line><line x1="58" y1="0" x2="53" y2="0" style="visibility: inherit;" fill="rgb(0, 0, 0)" stroke="rgb(204, 204, 204)" stroke-width="1px"></line></g><g transform="translate(48, 0)"><text x="0" y="178" dx="0em" dy="0.3em" style="text-anchor: end; visibility: hidden; font-family: &quot;Helvetica Neue&quot;, sans-serif; font-size: 12px; font-weight: 200;" fill="rgb(50, 49, 63)" stroke="none" stroke-width="1px">-1.2</text><text x="0" y="164.30769230769232" dx="0em" dy="0.3em" style="text-anchor: end; visibility: inherit; font-family: &quot;Helvetica Neue&quot;, sans-serif; font-size: 12px; font-weight: 200;" fill="rgb(50, 49, 63)" stroke="none" stroke-width="1px">-1</text><text x="0" y="150.6153846153846" dx="0em" dy="0.3em" style="text-anchor: end; visibility: hidden; font-family: &quot;Helvetica Neue&quot;, sans-serif; font-size: 12px; font-weight: 200;" fill="rgb(50, 49, 63)" stroke="none" stroke-width="1px">-0.8</text><text x="0" y="136.9230769230769" dx="0em" dy="0.3em" style="text-anchor: end; visibility: inherit; font-family: &quot;Helvetica Neue&quot;, sans-serif; font-size: 12px; font-weight: 200;" fill="rgb(50, 49, 63)" stroke="none" stroke-width="1px">-0.6</text><text x="0" y="123.23076923076923" dx="0em" dy="0.3em" style="text-anchor: end; visibility: hidden; font-family: &quot;Helvetica Neue&quot;, sans-serif; font-size: 12px; font-weight: 200;" fill="rgb(50, 49, 63)" stroke="none" stroke-width="1px">-0.4</text><text x="0" y="109.53846153846152" dx="0em" dy="0.3em" style="text-anchor: end; visibility: inherit; font-family: &quot;Helvetica Neue&quot;, sans-serif; font-size: 12px; font-weight: 200;" fill="rgb(50, 49, 63)" stroke="none" stroke-width="1px">-0.2</text><text x="0" y="95.84615384615384" dx="0em" dy="0.3em" style="text-anchor: end; visibility: hidden; font-family: &quot;Helvetica Neue&quot;, sans-serif; font-size: 12px; font-weight: 200;" fill="rgb(50, 49, 63)" stroke="none" stroke-width="1px">0</text><text x="0" y="82.15384615384613" dx="0em" dy="0.3em" style="text-anchor: end; visibility: inherit; font-family: &quot;Helvetica Neue&quot;, sans-serif; font-size: 12px; font-weight: 200;" fill="rgb(50, 49, 63)" stroke="none" stroke-width="1px">0.2</text><text x="0" y="68.46153846153844" dx="0em" dy="0.3em" style="text-anchor: end; visibility: hidden; font-family: &quot;Helvetica Neue&quot;, sans-serif; font-size: 12px; font-weight: 200;" fill="rgb(50, 49, 63)" stroke="none" stroke-width="1px">0.4</text><text x="0" y="54.769230769230774" dx="0em" dy="0.3em" style="text-anchor: end; visibility: inherit; font-family: &quot;Helvetica Neue&quot;, sans-serif; font-size: 12px; font-weight: 200;" fill="rgb(50, 49, 63)" stroke="none" stroke-width="1px">0.6</text><text x="0" y="41.07692307692304" dx="0em" dy="0.3em" style="text-anchor: end; visibility: hidden; font-family: &quot;Helvetica Neue&quot;, sans-serif; font-size: 12px; font-weight: 200;" fill="rgb(50, 49, 63)" stroke="none" stroke-width="1px">0.8</text><text x="0" y="27.38461538461536" dx="0em" dy="0.3em" style="text-anchor: end; visibility: inherit; font-family: &quot;Helvetica Neue&quot;, sans-serif; font-size: 12px; font-weight: 200;" fill="rgb(50, 49, 63)" stroke="none" stroke-width="1px">1</text><text x="0" y="13.69230769230768" dx="0em" dy="0.3em" style="text-anchor: end; visibility: hidden; font-family: &quot;Helvetica Neue&quot;, sans-serif; font-size: 12px; font-weight: 200;" fill="rgb(50, 49, 63)" stroke="none" stroke-width="1px">1.2</text><text x="0" y="0" dx="0em" dy="0.3em" style="text-anchor: end; visibility: hidden; font-family: &quot;Helvetica Neue&quot;, sans-serif; font-size: 12px; font-weight: 200;" fill="rgb(50, 49, 63)" stroke="none" stroke-width="1px">1.4</text></g><line x1="58" y1="0" x2="58" y2="178" fill="rgb(0, 0, 0)" stroke="rgb(204, 204, 204)" stroke-width="1px"></line></g></g><g transform="translate(58, 0)" clip-path="url(#clip_0)"><clipPath id="clip_0"><rect width="272" height="178"></rect></clipPath><g><g><g><line x1="0" y1="0" x2="0" y2="178" fill="rgb(0, 0, 0)" stroke="rgb(60, 60, 60)" stroke-width="1px" opacity="0.25"></line><line x1="22.666666666666664" y1="0" x2="22.666666666666664" y2="178" fill="rgb(0, 0, 0)" stroke="rgb(60, 60, 60)" stroke-width="1px" opacity="0.25"></line><line x1="45.33333333333333" y1="0" x2="45.33333333333333" y2="178" fill="rgb(0, 0, 0)" stroke="rgb(60, 60, 60)" stroke-width="1px" opacity="0.25"></line><line x1="68" y1="0" x2="68" y2="178" fill="rgb(0, 0, 0)" stroke="rgb(60, 60, 60)" stroke-width="1px" opacity="0.25"></line><line x1="90.66666666666666" y1="0" x2="90.66666666666666" y2="178" fill="rgb(0, 0, 0)" stroke="rgb(60, 60, 60)" stroke-width="1px" opacity="0.25"></line><line x1="113.33333333333334" y1="0" x2="113.33333333333334" y2="178" fill="rgb(0, 0, 0)" stroke="rgb(60, 60, 60)" stroke-width="1px" opacity="0.25"></line><line x1="136" y1="0" x2="136" y2="178" fill="rgb(0, 0, 0)" stroke="rgb(60, 60, 60)" stroke-width="1px" opacity="0.25"></line><line x1="158.66666666666669" y1="0" x2="158.66666666666669" y2="178" fill="rgb(0, 0, 0)" stroke="rgb(60, 60, 60)" stroke-width="1px" opacity="0.25"></line><line x1="181.33333333333331" y1="0" x2="181.33333333333331" y2="178" fill="rgb(0, 0, 0)" stroke="rgb(60, 60, 60)" stroke-width="1px" opacity="0.25"></line><line x1="204" y1="0" x2="204" y2="178" fill="rgb(0, 0, 0)" stroke="rgb(60, 60, 60)" stroke-width="1px" opacity="0.25"></line><line x1="226.66666666666669" y1="0" x2="226.66666666666669" y2="178" fill="rgb(0, 0, 0)" stroke="rgb(60, 60, 60)" stroke-width="1px" opacity="0.25"></line><line x1="249.33333333333331" y1="0" x2="249.33333333333331" y2="178" fill="rgb(0, 0, 0)" stroke="rgb(60, 60, 60)" stroke-width="1px" opacity="0.25"></line><line x1="272" y1="0" x2="272" y2="178" fill="rgb(0, 0, 0)" stroke="rgb(60, 60, 60)" stroke-width="1px" opacity="0.25"></line></g><g><line x1="0" y1="178" x2="272" y2="178" fill="rgb(0, 0, 0)" stroke="rgb(60, 60, 60)" stroke-width="1px" opacity="0.25"></line><line x1="0" y1="164.30769230769232" x2="272" y2="164.30769230769232" fill="rgb(0, 0, 0)" stroke="rgb(60, 60, 60)" stroke-width="1px" opacity="0.25"></line><line x1="0" y1="150.6153846153846" x2="272" y2="150.6153846153846" fill="rgb(0, 0, 0)" stroke="rgb(60, 60, 60)" stroke-width="1px" opacity="0.25"></line><line x1="0" y1="136.9230769230769" x2="272" y2="136.9230769230769" fill="rgb(0, 0, 0)" stroke="rgb(60, 60, 60)" stroke-width="1px" opacity="0.25"></line><line x1="0" y1="123.23076923076923" x2="272" y2="123.23076923076923" fill="rgb(0, 0, 0)" stroke="rgb(60, 60, 60)" stroke-width="1px" opacity="0.25"></line><line x1="0" y1="109.53846153846152" x2="272" y2="109.53846153846152" fill="rgb(0, 0, 0)" stroke="rgb(60, 60, 60)" stroke-width="1px" opacity="0.25"></line><line x1="0" y1="95.84615384615384" x2="272" y2="95.84615384615384" fill="rgb(0, 0, 0)" stroke="rgb(60, 60, 60)" stroke-width="1px" opacity="0.25"></line><line x1="0" y1="82.15384615384613" x2="272" y2="82.15384615384613" fill="rgb(0, 0, 0)" stroke="rgb(60, 60, 60)" stroke-width="1px" opacity="0.25"></line><line x1="0" y1="68.46153846153844" x2="272" y2="68.46153846153844" fill="rgb(0, 0, 0)" stroke="rgb(60, 60, 60)" stroke-width="1px" opacity="0.25"></line><line x1="0" y1="54.769230769230774" x2="272" y2="54.769230769230774" fill="rgb(0, 0, 0)" stroke="rgb(60, 60, 60)" stroke-width="1px" opacity="0.25"></line><line x1="0" y1="41.07692307692304" x2="272" y2="41.07692307692304" fill="rgb(0, 0, 0)" stroke="rgb(60, 60, 60)" stroke-width="1px" opacity="0.25"></line><line x1="0" y1="27.38461538461536" x2="272" y2="27.38461538461536" fill="rgb(0, 0, 0)" stroke="rgb(60, 60, 60)" stroke-width="1px" opacity="0.25"></line><line x1="0" y1="13.69230769230768" x2="272" y2="13.69230769230768" fill="rgb(0, 0, 0)" stroke="rgb(60, 60, 60)" stroke-width="1px" opacity="0.25"></line><line x1="0" y1="0" x2="272" y2="0" fill="rgb(0, 0, 0)" stroke="rgb(60, 60, 60)" stroke-width="1px" opacity="0.25"></line></g></g></g><g><g><line x1="0" y1="95.84615384615384" x2="272" y2="95.84615384615384" fill="rgb(0, 0, 0)" stroke="rgb(153, 153, 153)" stroke-width="1.5px"></line></g></g><g><g><line x1="22.666666666666664" y1="0" x2="22.666666666666664" y2="178" fill="rgb(0, 0, 0)" stroke="rgb(153, 153, 153)" stroke-width="1.5px"></line></g></g><g><g><g><g><g><path stroke="rgb(0, 153, 136)" stroke-width="2px" d="M22.666666666666664,89.20538441951457L24.93333333333333,88.6576925321267L27.200000000000003,88.72615369925131L29.46666666666667,88.5892308549239L31.733333333333334,89.20538441951457L34,87.35692321566434L36.266666666666666,88.11000013466064L38.53333333333333,88.72615369925131L40.8,88.79461537645412L43.06666666666666,88.72615369925131L45.33333333333333,88.38384633339368L47.599999999999994,88.45230750051827L49.86666666666666,88.11000013466064L52.13333333333334,88.24692297898804L54.400000000000006,87.7676922587248L56.66666666666667,87.97307678025501L58.93333333333334,87.7676922587248L61.2,89.06846157518716L63.46666666666667,88.24692297898804L65.73333333333333,88.24692297898804L68,87.21999986125871L70.26666666666668,88.38384633339368L72.53333333333333,89.54769229545042L74.80000000000001,88.04153845745782L77.06666666666666,88.17846130178523L79.33333333333334,88.04153845745782L81.6,88.45230750051827L83.86666666666667,88.17846130178523L86.13333333333333,87.35692321566434L88.4,87.0830765068531L90.66666666666666,87.0146158498067L92.93333333333334,88.31538465619087L95.19999999999999,87.0146158498067L97.46666666666667,87.42538438278893L99.73333333333332,87.21999986125871L102,87.0146158498067L104.26666666666668,88.11000013466064L106.53333333333333,87.56230773719457L108.80000000000001,87.9046156131304L111.06666666666666,88.24692297898804L113.33333333333334,87.42538438278893L115.6,87.28846153846152L117.86666666666667,88.93153822078153L120.13333333333333,87.69923058152199L122.4,88.24692297898804L124.66666666666666,88.17846130178523L126.93333333333334,88.5892308549239L129.2,88.04153845745782L131.46666666666667,89.410769451123L133.73333333333332,88.04153845745782L136,87.15153818405591L138.26666666666665,88.31538465619087L140.53333333333336,89.06846157518716L142.8,88.24692297898804L145.06666666666666,87.63076941439738L147.33333333333331,87.0830765068531L149.60000000000002,87.97307678025501L151.86666666666667,87.42538438278893L154.13333333333333,89.27384609671738L156.39999999999998,86.74076914099545L158.66666666666669,88.17846130178523L160.93333333333334,88.52076917772109L163.2,88.5892308549239L165.46666666666664,88.24692297898804L167.73333333333335,88.24692297898804L170,88.52076917772109L172.26666666666665,86.46692345234064L174.53333333333336,88.31538465619087L176.8,87.63076941439738L179.06666666666666,87.97307678025501L181.33333333333331,87.63076941439738L183.60000000000002,87.63076941439738L185.86666666666667,87.49384605999175L188.13333333333333,88.6576925321267L190.39999999999998,87.0146158498067L192.66666666666669,88.31538465619087L194.93333333333334,88.31538465619087L197.2,88.72615369925131L199.46666666666664,88.31538465619087L201.73333333333335,87.8361539359276L204,87.97307678025501L206.26666666666665,87.69923058152199L208.53333333333336,89.410769451123L210.8,87.49384605999175L213.06666666666666,88.31538465619087L215.33333333333331,88.11000013466064L217.60000000000002,88.93153822078153L219.86666666666667,88.99999989798434L222.13333333333333,87.0830765068531L224.39999999999998,88.24692297898804L226.66666666666669,88.38384633339368L228.93333333333334,87.8361539359276L231.2,87.0146158498067L233.46666666666664,87.49384605999175L235.73333333333335,87.97307678025501L238,87.63076941439738L240.26666666666665,88.72615369925131L242.53333333333336,87.8361539359276L244.8,88.45230750051827L247.06666666666666,88.86307705365692" style="fill: none;" fill="none"></path></g><g><path stroke="rgb(238, 51, 119)" stroke-width="2px" d="M22.666666666666664,88.72615369925131L24.93333333333333,88.86307705365692L27.200000000000003,86.67230746379263L29.46666666666667,86.46692345234064L31.733333333333334,85.50846201181412L34,84.8238462599424L36.266666666666666,82.15384594981487L38.53333333333333,80.8530771434307L40.8,81.40076954089676L43.06666666666666,80.09999971435619L45.33333333333333,80.99000049783632L47.599999999999994,79.55230731689011L49.86666666666666,78.25153851050595L52.13333333333334,79.07307659662686L54.400000000000006,77.7038471331963L56.66666666666667,77.22461437262021L58.93333333333334,76.74538365235694L61.2,73.66461531932536L63.46666666666667,73.73307597637175L65.73333333333333,72.15846250148918L68,72.15846250148918L70.26666666666668,73.52769196491974L72.53333333333333,72.02153914708356L74.80000000000001,69.21461548255039L77.06666666666666,69.41999949400241L79.33333333333334,67.84538397880699L81.6,68.94076877373914L83.86666666666667,67.0238458926861L86.13333333333333,67.5715393103086L88.4,68.66692206492789L90.66666666666666,66.33923116097083L92.93333333333334,66.47615451537644L95.19999999999999,64.76461564577542L97.46666666666667,64.42230827991779L99.73333333333332,65.31230702308507L102,63.66923085084326L104.26666666666668,64.76461564577542L106.53333333333333,62.57384605591113L108.80000000000001,62.71076941031674L111.06666666666666,61.47846330129181L113.33333333333334,61.341537906573365L115.6,61.067691197762116L117.86666666666667,62.50538539886473L120.13333333333333,60.24615515195404L122.4,63.19000013058002L124.66666666666666,61.1361518548085L126.93333333333334,59.90384778609641L129.2,58.87692160789781L131.46666666666667,60.725383831904466L133.73333333333332,60.10922975723558L136,59.4930756825667L138.26666666666665,57.781538853278505L140.53333333333336,59.42461502552031L142.8,60.38307646604683L145.06666666666666,57.30230609270241L147.33333333333331,58.329232270901L149.60000000000002,57.16538477860962L151.86666666666667,58.26076753322893L154.13333333333333,58.808460950851426L156.39999999999998,59.21922897375546L158.66666666666669,54.83769387465256L160.93333333333334,54.0846144052652L163.2,54.769229136980485L165.46666666666664,52.989231650645905L167.73333333333335,52.16769152421216L170,51.89384481540091L172.26666666666665,51.14076942663925L174.53333333333336,52.509998890069795L176.8,50.31922930020551L179.06666666666666,50.04538259139426L181.33333333333331,49.08692115086774L183.60000000000002,49.908461277301484L185.86666666666667,50.52461535197037L188.13333333333333,47.306923664533144L190.39999999999998,47.1699982698147L192.66666666666669,48.33384576210608L194.93333333333334,47.92307773920203L197.2,47.306923664533144L199.46666666666664,47.033076955721896L201.73333333333335,46.21153682928818L204,47.23846300748676L206.26666666666665,46.28000156696024L208.53333333333336,46.62230893281787L210.8,46.96461629867551L213.06666666666666,45.18461473171524L215.33333333333331,45.18461473171524L217.60000000000002,45.18461473171524L219.86666666666667,44.56846065704636L222.13333333333333,45.18461473171524L224.39999999999998,45.116154074668856L226.66666666666669,45.116154074668856L228.93333333333334,44.636921314092774L231.2,44.08923197709595L233.46666666666664,45.45846144052649L235.73333333333335,43.60999921651984L238,43.473077902427065L240.26666666666665,45.390000783480104L242.53333333333336,44.157692634142336L244.8,44.157692634142336L247.06666666666666,45.32154012643372" style="fill: none;" fill="none"></path></g><g><path stroke="rgb(51, 187, 238)" stroke-width="2px" d="M22.666666666666664,89.13692325238996L24.93333333333333,88.72615369925131L27.200000000000003,88.93153822078153L29.46666666666667,88.79461537645412L31.733333333333334,88.79461537645412L34,88.86307705365692L36.266666666666666,89.61615397265322L38.53333333333333,87.15153818405591L40.8,86.12461506632657L43.06666666666666,85.37153865740848L45.33333333333333,83.9338464966187L47.599999999999994,81.94846193836284L49.86666666666666,80.51076875741664L52.13333333333334,79.82615402570136L54.400000000000006,79.07307659662686L56.66666666666667,74.76000011425751L58.93333333333334,73.66461531932536L61.2,74.07538538254224L63.46666666666667,71.74769243827231L65.73333333333333,70.24153758012329L68,70.31000027748253L70.26666666666668,68.05077003057185L72.53333333333333,66.74999918387485L74.80000000000001,64.90153900018103L77.06666666666666,59.28769371142752L79.33333333333334,56.34384465217589L81.6,54.35846111407645L83.86666666666667,53.05769230769229L86.13333333333333,52.030770210119385L88.4,51.3461554784041L90.66666666666666,49.97692193434787L92.93333333333334,49.634614568490235L95.19999999999999,49.49769325439743L97.46666666666667,48.265385105059664L99.73333333333332,47.58077037334439L102,47.64923103039078L104.26666666666668,46.21153682928818L106.53333333333333,46.96461629867551L108.80000000000001,45.25307538876166L111.06666666666666,43.88384592533109L113.33333333333334,44.22615329118872L115.6,44.636921314092774L117.86666666666667,44.636921314092774L120.13333333333333,42.240769753089296L122.4,43.54153855947345L124.66666666666666,43.40461724538068L126.93333333333334,43.2676918506622L129.2,43.60999921651984L131.46666666666667,42.85692382775818L133.73333333333332,41.35076896960916L136,41.62461567842041L138.26666666666665,42.035383701324434L140.53333333333336,41.62461567842041L142.8,40.597693580847476L145.06666666666666,40.52922884317542L147.33333333333331,40.66615423789389L149.60000000000002,41.282308312562776L151.86666666666667,39.913078849132205L154.13333333333333,40.597693580847476L156.39999999999998,39.98153950617859L158.66666666666669,39.98153950617859L160.93333333333334,38.68077069979444L163.2,39.70769279736734L165.46666666666664,41.282308312562776L167.73333333333335,39.22846003679126L170,39.09153872269846L172.26666666666665,40.32384687203623L174.53333333333336,39.5707674026489L176.8,37.99615188745349L179.06666666666666,37.85923057336069L181.33333333333331,38.13307728217194L183.60000000000002,37.85923057336069L185.86666666666667,38.475384648029575L188.13333333333333,37.38000189341028L190.39999999999998,36.90076913283417L192.66666666666669,36.2161544011189L194.93333333333334,36.7638478187414L197.2,35.12076756587393L199.46666666666664,34.57307822887711L201.73333333333335,34.36769217711225L204,33.88846349716184L206.26666666666665,33.27230942249295L208.53333333333336,32.998462713681704L210.8,33.06692337072809L213.06666666666666,33.477691393632114L215.33333333333331,33.81999875948975L217.60000000000002,32.519229953105594L219.86666666666667,32.724616004870455L222.13333333333333,33.477691393632114L224.39999999999998,31.971536535483096L226.66666666666669,32.45076929605921L228.93333333333334,31.492307855532687L231.2,32.79307666191684L233.46666666666664,32.040001273155184L235.73333333333335,31.766154564343935L238,30.94461443791019L240.26666666666665,31.286921803767825L242.53333333333336,31.081539832628664L244.8,32.31384798196643L247.06666666666666,31.560768512579074" style="fill: none;" fill="none"></path></g><g><path stroke="rgb(204, 51, 17)" stroke-width="2px" d="M22.666666666666664,88.5892308549239L24.93333333333333,89.06846157518716L27.200000000000003,86.94615417260388L29.46666666666667,85.23461530300287L31.733333333333334,84.68692290553679L34,84.61846122833398L36.266666666666666,85.37153865740848L38.53333333333333,85.09769194859723L40.8,84.0707688308679L43.06666666666666,84.8238462599424L45.33333333333333,83.59153811060463L47.599999999999994,81.12692283208553L49.86666666666666,79.62076899409293L52.13333333333334,78.45692252195798L54.400000000000006,78.04615449905394L56.66666666666667,77.9776918016947L58.93333333333334,78.25153851050595L61.2,75.03384682306876L63.46666666666667,71.67923178122592L65.73333333333333,70.44692363188815L68,67.5715393103086L70.26666666666668,65.3807697204443L72.53333333333333,64.5592316343234L74.80000000000001,64.69615294841618L77.06666666666666,63.258460787626404L79.33333333333334,62.91615342176877L81.6,62.77923006736313L83.86666666666667,60.725383831904466L86.13333333333333,59.082307659662675L88.4,58.53461424204018L90.66666666666666,57.096924121563234L92.93333333333334,54.35846111407645L95.19999999999999,55.93307662927185L97.46666666666667,53.263078359457154L99.73333333333332,50.25076864315912L102,47.78615234448358L104.26666666666668,46.41692288105301L106.53333333333333,47.64923103039078L108.80000000000001,45.116154074668856L111.06666666666666,43.06230579889734L113.33333333333334,41.076922260797915L115.6,40.871540289658725L117.86666666666667,39.159999379744875L120.13333333333333,37.99615188745349L122.4,36.7638478187414L124.66666666666666,38.201537939218355L126.93333333333334,36.3530757152117L129.2,35.32615361763877L131.46666666666667,35.39461427468515L133.73333333333332,34.915385594734744L136,35.18923230354599L138.26666666666665,34.23077086301947L140.53333333333336,34.98384625178113L142.8,33.88846349716184L145.06666666666666,33.34077007953934L147.33333333333331,32.86153731896323L149.60000000000002,32.65615534782407L151.86666666666667,31.62922916962546L154.13333333333333,31.69769390729755L156.39999999999998,31.834615221390322L158.66666666666669,31.971536535483096L160.93333333333334,30.533846415006167L163.2,30.73923246677103L165.46666666666664,31.560768512579074L167.73333333333335,30.602307072052554L170,31.560768512579074L172.26666666666665,30.533846415006167L174.53333333333336,30.73923246677103L176.8,31.15000048967505L179.06666666666666,30.054613654430057L181.33333333333331,29.917692340337283L183.60000000000002,30.876153780863802L185.86666666666667,30.054613654430057L188.13333333333333,29.78077102624451L190.39999999999998,29.78077102624451L192.66666666666669,29.78077102624451L194.93333333333334,29.3015382656684L197.2,29.575384974479647L199.46666666666664,29.71230628857242L201.73333333333335,29.849231683290895L204,29.02769155685715L206.26666666666665,29.164616951575624L208.53333333333336,28.959230899810763L210.8,28.82230958571799L213.06666666666666,29.164616951575624L215.33333333333331,29.096152213903537L217.60000000000002,29.71230628857242L219.86666666666667,29.23307760862201L222.13333333333333,29.438459579761172L224.39999999999998,29.369998922714785L226.66666666666669,29.849231683290895L228.93333333333334,28.616923533953127L231.2,28.685384190999514L233.46666666666664,28.7538448480459L235.73333333333335,29.23307760862201L238,28.890770242764376L240.26666666666665,28.616923533953127L242.53333333333336,29.50692431743326L244.8,28.82230958571799L247.06666666666666,28.616923533953127" style="fill: none;" fill="none"></path></g></g></g></g></g></g><g transform="translate(58, 178)" clip-path="url(#clip_1)"><clipPath id="clip_1"><rect width="272" height="22"></rect></clipPath><g><g><line x1="0" y1="0" x2="0" y2="5" style="visibility: inherit;" fill="rgb(0, 0, 0)" stroke="rgb(204, 204, 204)" stroke-width="1px"></line><line x1="22.666666666666664" y1="0" x2="22.666666666666664" y2="5" style="visibility: inherit;" fill="rgb(0, 0, 0)" stroke="rgb(204, 204, 204)" stroke-width="1px"></line><line x1="45.33333333333333" y1="0" x2="45.33333333333333" y2="5" style="visibility: inherit;" fill="rgb(0, 0, 0)" stroke="rgb(204, 204, 204)" stroke-width="1px"></line><line x1="68" y1="0" x2="68" y2="5" style="visibility: inherit;" fill="rgb(0, 0, 0)" stroke="rgb(204, 204, 204)" stroke-width="1px"></line><line x1="90.66666666666666" y1="0" x2="90.66666666666666" y2="5" style="visibility: inherit;" fill="rgb(0, 0, 0)" stroke="rgb(204, 204, 204)" stroke-width="1px"></line><line x1="113.33333333333334" y1="0" x2="113.33333333333334" y2="5" style="visibility: inherit;" fill="rgb(0, 0, 0)" stroke="rgb(204, 204, 204)" stroke-width="1px"></line><line x1="136" y1="0" x2="136" y2="5" style="visibility: inherit;" fill="rgb(0, 0, 0)" stroke="rgb(204, 204, 204)" stroke-width="1px"></line><line x1="158.66666666666669" y1="0" x2="158.66666666666669" y2="5" style="visibility: inherit;" fill="rgb(0, 0, 0)" stroke="rgb(204, 204, 204)" stroke-width="1px"></line><line x1="181.33333333333331" y1="0" x2="181.33333333333331" y2="5" style="visibility: inherit;" fill="rgb(0, 0, 0)" stroke="rgb(204, 204, 204)" stroke-width="1px"></line><line x1="204" y1="0" x2="204" y2="5" style="visibility: inherit;" fill="rgb(0, 0, 0)" stroke="rgb(204, 204, 204)" stroke-width="1px"></line><line x1="226.66666666666669" y1="0" x2="226.66666666666669" y2="5" style="visibility: inherit;" fill="rgb(0, 0, 0)" stroke="rgb(204, 204, 204)" stroke-width="1px"></line><line x1="249.33333333333331" y1="0" x2="249.33333333333331" y2="5" style="visibility: inherit;" fill="rgb(0, 0, 0)" stroke="rgb(204, 204, 204)" stroke-width="1px"></line><line x1="272" y1="0" x2="272" y2="5" style="visibility: inherit;" fill="rgb(0, 0, 0)" stroke="rgb(204, 204, 204)" stroke-width="1px"></line></g><g transform="translate(0, 8)"><text x="0" y="0" dx="0em" dy="0.95em" style="text-anchor: middle; visibility: hidden; font-family: &quot;Helvetica Neue&quot;, sans-serif; font-size: 12px; font-weight: 200;" fill="rgb(50, 49, 63)" stroke="none" stroke-width="1px">-10</text><text x="22.666666666666664" y="0" dx="0em" dy="0.95em" style="text-anchor: middle; visibility: inherit; font-family: &quot;Helvetica Neue&quot;, sans-serif; font-size: 12px; font-weight: 200;" fill="rgb(50, 49, 63)" stroke="none" stroke-width="1px">0</text><text x="45.33333333333333" y="0" dx="0em" dy="0.95em" style="text-anchor: middle; visibility: hidden; font-family: &quot;Helvetica Neue&quot;, sans-serif; font-size: 12px; font-weight: 200;" fill="rgb(50, 49, 63)" stroke="none" stroke-width="1px">10</text><text x="68" y="0" dx="0em" dy="0.95em" style="text-anchor: middle; visibility: inherit; font-family: &quot;Helvetica Neue&quot;, sans-serif; font-size: 12px; font-weight: 200;" fill="rgb(50, 49, 63)" stroke="none" stroke-width="1px">20</text><text x="90.66666666666666" y="0" dx="0em" dy="0.95em" style="text-anchor: middle; visibility: hidden; font-family: &quot;Helvetica Neue&quot;, sans-serif; font-size: 12px; font-weight: 200;" fill="rgb(50, 49, 63)" stroke="none" stroke-width="1px">30</text><text x="113.33333333333334" y="0" dx="0em" dy="0.95em" style="text-anchor: middle; visibility: inherit; font-family: &quot;Helvetica Neue&quot;, sans-serif; font-size: 12px; font-weight: 200;" fill="rgb(50, 49, 63)" stroke="none" stroke-width="1px">40</text><text x="136" y="0" dx="0em" dy="0.95em" style="text-anchor: middle; visibility: hidden; font-family: &quot;Helvetica Neue&quot;, sans-serif; font-size: 12px; font-weight: 200;" fill="rgb(50, 49, 63)" stroke="none" stroke-width="1px">50</text><text x="158.66666666666669" y="0" dx="0em" dy="0.95em" style="text-anchor: middle; visibility: inherit; font-family: &quot;Helvetica Neue&quot;, sans-serif; font-size: 12px; font-weight: 200;" fill="rgb(50, 49, 63)" stroke="none" stroke-width="1px">60</text><text x="181.33333333333331" y="0" dx="0em" dy="0.95em" style="text-anchor: middle; visibility: hidden; font-family: &quot;Helvetica Neue&quot;, sans-serif; font-size: 12px; font-weight: 200;" fill="rgb(50, 49, 63)" stroke="none" stroke-width="1px">70</text><text x="204" y="0" dx="0em" dy="0.95em" style="text-anchor: middle; visibility: inherit; font-family: &quot;Helvetica Neue&quot;, sans-serif; font-size: 12px; font-weight: 200;" fill="rgb(50, 49, 63)" stroke="none" stroke-width="1px">80</text><text x="226.66666666666669" y="0" dx="0em" dy="0.95em" style="text-anchor: middle; visibility: hidden; font-family: &quot;Helvetica Neue&quot;, sans-serif; font-size: 12px; font-weight: 200;" fill="rgb(50, 49, 63)" stroke="none" stroke-width="1px">90</text><text x="249.33333333333331" y="0" dx="0em" dy="0.95em" style="text-anchor: middle; visibility: inherit; font-family: &quot;Helvetica Neue&quot;, sans-serif; font-size: 12px; font-weight: 200;" fill="rgb(50, 49, 63)" stroke="none" stroke-width="1px">100</text><text x="272" y="0" dx="0em" dy="0.95em" style="text-anchor: middle; visibility: hidden; font-family: &quot;Helvetica Neue&quot;, sans-serif; font-size: 12px; font-weight: 200;" fill="rgb(50, 49, 63)" stroke="none" stroke-width="1px">110</text></g><line x1="0" y1="0" x2="272" y2="0" fill="rgb(0, 0, 0)" stroke="rgb(204, 204, 204)" stroke-width="1px"></line></g></g></g></g></svg>