<svg viewBox="0 0 330 200" xmlns="http://www.w3.org/2000/svg"><g><g><g><g><g><line x1="58" y1="178" x2="53" y2="178" style="visibility: inherit;" fill="rgb(0, 0, 0)" stroke="rgb(204, 204, 204)" stroke-width="1px"></line><line x1="58" y1="164.30769230769232" x2="53" y2="164.30769230769232" style="visibility: inherit;" fill="rgb(0, 0, 0)" stroke="rgb(204, 204, 204)" stroke-width="1px"></line><line x1="58" y1="150.6153846153846" x2="53" y2="150.6153846153846" style="visibility: inherit;" fill="rgb(0, 0, 0)" stroke="rgb(204, 204, 204)" stroke-width="1px"></line><line x1="58" y1="136.9230769230769" x2="53" y2="136.9230769230769" style="visibility: inherit;" fill="rgb(0, 0, 0)" stroke="rgb(204, 204, 204)" stroke-width="1px"></line><line x1="58" y1="123.23076923076923" x2="53" y2="123.23076923076923" style="visibility: inherit;" fill="rgb(0, 0, 0)" stroke="rgb(204, 204, 204)" stroke-width="1px"></line><line x1="58" y1="109.53846153846155" x2="53" y2="109.53846153846155" style="visibility: inherit;" fill="rgb(0, 0, 0)" stroke="rgb(204, 204, 204)" stroke-width="1px"></line><line x1="58" y1="95.84615384615385" x2="53" y2="95.84615384615385" style="visibility: inherit;" fill="rgb(0, 0, 0)" stroke="rgb(204, 204, 204)" stroke-width="1px"></line><line x1="58" y1="82.15384615384616" x2="53" y2="82.15384615384616" style="visibility: inherit;" fill="rgb(0, 0, 0)" stroke="rgb(204, 204, 204)" stroke-width="1px"></line><line x1="58" y1="68.46153846153848" x2="53" y2="68.46153846153848" style="visibility: inherit;" fill="rgb(0, 0, 0)" stroke="rgb(204, 204, 204)" stroke-width="1px"></line><line x1="58" y1="54.769230769230774" x2="53" y2="54.769230769230774" style="visibility: inherit;" fill="rgb(0, 0, 0)" stroke="rgb(204, 204, 204)" stroke-width="1px"></line><line x1="58" y1="41.076923076923094" x2="53" y2="41.076923076923094" style="visibility: inherit;" fill="rgb(0, 0, 0)" stroke="rgb(204, 204, 204)" stroke-width="1px"></line><line x1="58" y1="27.384615384615387" x2="53" y2="27.384615384615387" style="visibility: inherit;" fill="rgb(0, 0, 0)" stroke="rgb(204, 204, 204)" stroke-width="1px"></line><line x1="58" y1="13.69230769230768" x2="53" y2="13.69230769230768" style="visibility: inherit;" fill="rgb(0, 0, 0)" stroke="rgb(204, 204, 204)" stroke-width="1px"></line><line x1="58" y1="0" x2="53" y2="0" style="visibility: inherit;" fill="rgb(0, 0, 0)" stroke="rgb(204, 204, 204)" stroke-width="1px"></line></g><g transform="translate(48, 0)"><text x="0" y="178" dx="0em" dy="0.3em" style="text-anchor: end; visibility: hidden; font-family: &quot;Helvetica Neue&quot;, sans-serif; font-size: 12px; font-weight: 200;" fill="rgb(50, 49, 63)" stroke="none" stroke-width="1px">-0.1</text><text x="0" y="164.30769230769232" dx="0em" dy="0.3em" style="text-anchor: end; visibility: inherit; font-family: &quot;Helvetica Neue&quot;, sans-serif; font-size: 12px; font-weight: 200;" fill="rgb(50, 49, 63)" stroke="none" stroke-width="1px">0</text><text x="0" y="150.6153846153846" dx="0em" dy="0.3em" style="text-anchor: end; visibility: hidden; font-family: &quot;Helvetica Neue&quot;, sans-serif; font-size: 12px; font-weight: 200;" fill="rgb(50, 49, 63)" stroke="none" stroke-width="1px">0.1</text><text x="0" y="136.9230769230769" dx="0em" dy="0.3em" style="text-anchor: end; visibility: inherit; font-family: &quot;Helvetica Neue&quot;, sans-serif; font-size: 12px; font-weight: 200;" fill="rgb(50, 49, 63)" stroke="none" stroke-width="1px">0.2</text><text x="0" y="123.23076923076923" dx="0em" dy="0.3em" style="text-anchor: end; visibility: hidden; font-family: &quot;Helvetica Neue&quot;, sans-serif; font-size: 12px; font-weight: 200;" fill="rgb(50, 49, 63)" stroke="none" stroke-width="1px">0.3</text><text x="0" y="109.53846153846155" dx="0em" dy="0.3em" style="text-anchor: end; visibility: inherit; font-family: &quot;Helvetica Neue&quot;, sans-serif; font-size: 12px; font-weight: 200;" fill="rgb(50, 49, 63)" stroke="none" stroke-width="1px">0.4</text><text x="0" y="95.84615384615385" dx="0em" dy="0.3em" style="text-anchor: end; visibility: hidden; font-family: &quot;Helvetica Neue&quot;, sans-serif; font-size: 12px; font-weight: 200;" fill="rgb(50, 49, 63)" stroke="none" stroke-width="1px">0.5</text><text x="0" y="82.15384615384616" dx="0em" dy="0.3em" style="text-anchor: end; visibility: inherit; font-family: &quot;Helvetica Neue&quot;, sans-serif; font-size: 12px; font-weight: 200;" fill="rgb(50, 49, 63)" stroke="none" stroke-width="1px">0.6</text><text x="0" y="68.46153846153848" dx="0em" dy="0.3em" style="text-anchor: end; visibility: hidden; font-family: &quot;Helvetica Neue&quot;, sans-serif; font-size: 12px; font-weight: 200;" fill="rgb(50, 49, 63)" stroke="none" stroke-width="1px">0.7</text><text x="0" y="54.769230769230774" dx="0em" dy="0.3em" style="text-anchor: end; visibility: inherit; font-family: &quot;Helvetica Neue&quot;, sans-serif; font-size: 12px; font-weight: 200;" fill="rgb(50, 49, 63)" stroke="none" stroke-width="1px">0.8</text><text x="0" y="41.076923076923094" dx="0em" dy="0.3em" style="text-anchor: end; visibility: hidden; font-family: &quot;Helvetica Neue&quot;, sans-serif; font-size: 12px; font-weight: 200;" fill="rgb(50, 49, 63)" stroke="none" stroke-width="1px">0.9</text><text x="0" y="27.384615384615387" dx="0em" dy="0.3em" style="text-anchor: end; visibility: inherit; font-family: &quot;Helvetica Neue&quot;, sans-serif; font-size: 12px; font-weight: 200;" fill="rgb(50, 49, 63)" stroke="none" stroke-width="1px">1</text><text x="0" y="13.69230769230768" dx="0em" dy="0.3em" style="text-anchor: end; visibility: hidden; font-family: &quot;Helvetica Neue&quot;, sans-serif; font-size: 12px; font-weight: 200;" fill="rgb(50, 49, 63)" stroke="none" stroke-width="1px">1.1</text><text x="0" y="0" dx="0em" dy="0.3em" style="text-anchor: end; visibility: hidden; font-family: &quot;Helvetica Neue&quot;, sans-serif; font-size: 12px; font-weight: 200;" fill="rgb(50, 49, 63)" stroke="none" stroke-width="1px">1.2</text></g><line x1="58" y1="0" x2="58" y2="178" fill="rgb(0, 0, 0)" stroke="rgb(204, 204, 204)" stroke-width="1px"></line></g></g><g transform="translate(58, 0)" clip-path="url(#clip_0)"><clipPath id="clip_0"><rect width="272" height="178"></rect></clipPath><g><g><g><line x1="0" y1="0" x2="0" y2="178" fill="rgb(0, 0, 0)" stroke="rgb(60, 60, 60)" stroke-width="1px" opacity="0.25"></line><line x1="22.666666666666664" y1="0" x2="22.666666666666664" y2="178" fill="rgb(0, 0, 0)" stroke="rgb(60, 60, 60)" stroke-width="1px" opacity="0.25"></line><line x1="45.33333333333333" y1="0" x2="45.33333333333333" y2="178" fill="rgb(0, 0, 0)" stroke="rgb(60, 60, 60)" stroke-width="1px" opacity="0.25"></line><line x1="68" y1="0" x2="68" y2="178" fill="rgb(0, 0, 0)" stroke="rgb(60, 60, 60)" stroke-width="1px" opacity="0.25"></line><line x1="90.66666666666666" y1="0" x2="90.66666666666666" y2="178" fill="rgb(0, 0, 0)" stroke="rgb(60, 60, 60)" stroke-width="1px" opacity="0.25"></line><line x1="113.33333333333334" y1="0" x2="113.33333333333334" y2="178" fill="rgb(0, 0, 0)" stroke="rgb(60, 60, 60)" stroke-width="1px" opacity="0.25"></line><line x1="136" y1="0" x2="136" y2="178" fill="rgb(0, 0, 0)" stroke="rgb(60, 60, 60)" stroke-width="1px" opacity="0.25"></line><line x1="158.66666666666669" y1="0" x2="158.66666666666669" y2="178" fill="rgb(0, 0, 0)" stroke="rgb(60, 60, 60)" stroke-width="1px" opacity="0.25"></line><line x1="181.33333333333331" y1="0" x2="181.33333333333331" y2="178" fill="rgb(0, 0, 0)" stroke="rgb(60, 60, 60)" stroke-width="1px" opacity="0.25"></line><line x1="204" y1="0" x2="204" y2="178" fill="rgb(0, 0, 0)" stroke="rgb(60, 60, 60)" stroke-width="1px" opacity="0.25"></line><line x1="226.66666666666669" y1="0" x2="226.66666666666669" y2="178" fill="rgb(0, 0, 0)" stroke="rgb(60, 60, 60)" stroke-width="1px" opacity="0.25"></line><line x1="249.33333333333331" y1="0" x2="249.33333333333331" y2="178" fill="rgb(0, 0, 0)" stroke="rgb(60, 60, 60)" stroke-width="1px" opacity="0.25"></line><line x1="272" y1="0" x2="272" y2="178" fill="rgb(0, 0, 0)" stroke="rgb(60, 60, 60)" stroke-width="1px" opacity="0.25"></line></g><g><line x1="0" y1="178" x2="272" y2="178" fill="rgb(0, 0, 0)" stroke="rgb(60, 60, 60)" stroke-width="1px" opacity="0.25"></line><line x1="0" y1="164.30769230769232" x2="272" y2="164.30769230769232" fill="rgb(0, 0, 0)" stroke="rgb(60, 60, 60)" stroke-width="1px" opacity="0.25"></line><line x1="0" y1="150.6153846153846" x2="272" y2="150.6153846153846" fill="rgb(0, 0, 0)" stroke="rgb(60, 60, 60)" stroke-width="1px" opacity="0.25"></line><line x1="0" y1="136.9230769230769" x2="272" y2="136.9230769230769" fill="rgb(0, 0, 0)" stroke="rgb(60, 60, 60)" stroke-width="1px" opacity="0.25"></line><line x1="0" y1="123.23076923076923" x2="272" y2="123.23076923076923" fill="rgb(0, 0, 0)" stroke="rgb(60, 60, 60)" stroke-width="1px" opacity="0.25"></line><line x1="0" y1="109.53846153846155" x2="272" y2="109.53846153846155" fill="rgb(0, 0, 0)" stroke="rgb(60, 60, 60)" stroke-width="1px" opacity="0.25"></line><line x1="0" y1="95.84615384615385" x2="272" y2="95.84615384615385" fill="rgb(0, 0, 0)" stroke="rgb(60, 60, 60)" stroke-width="1px" opacity="0.25"></line><line x1="0" y1="82.15384615384616" x2="272" y2="82.15384615384616" fill="rgb(0, 0, 0)" stroke="rgb(60, 60, 60)" stroke-width="1px" opacity="0.25"></line><line x1="0" y1="68.46153846153848" x2="272" y2="68.46153846153848" fill="rgb(0, 0, 0)" stroke="rgb(60, 60, 60)" stroke-width="1px" opacity="0.25"></line><line x1="0" y1="54.769230769230774" x2="272" y2="54.769230769230774" fill="rgb(0, 0, 0)" stroke="rgb(60, 60, 60)" stroke-width="1px" opacity="0.25"></line><line x1="0" y1="41.076923076923094" x2="272" y2="41.076923076923094" fill="rgb(0, 0, 0)" stroke="rgb(60, 60, 60)" stroke-width="1px" opacity="0.25"></line><line x1="0" y1="27.384615384615387" x2="272" y2="27.384615384615387" fill="rgb(0, 0, 0)" stroke="rgb(60, 60, 60)" stroke-width="1px" opacity="0.25"></line><line x1="0" y1="13.69230769230768" x2="272" y2="13.69230769230768" fill="rgb(0, 0, 0)" stroke="rgb(60, 60, 60)" stroke-width="1px" opacity="0.25"></line><line x1="0" y1="0" x2="272" y2="0" fill="rgb(0, 0, 0)" stroke="rgb(60, 60, 60)" stroke-width="1px" opacity="0.25"></line></g></g></g><g><g><line x1="0" y1="164.30769230769232" x2="272" y2="164.30769230769232" fill="rgb(0, 0, 0)" stroke="rgb(153, 153, 153)" stroke-width="1.5px"></line></g></g><g><g><line x1="22.666666666666664" y1="0" x2="22.666666666666664" y2="178" fill="rgb(0, 0, 0)" stroke="rgb(153, 153, 153)" stroke-width="1.5px"></line></g></g><g><g><g><g><g><path stroke="rgb(255, 112, 67)" stroke-width="2px" d="M22.666666666666664,151.0261534544138L24.93333333333333,148.88673050501026L27.200000000000003,141.24593373665255L29.46666666666667,126.2969406024043L31.733333333333334,111.72371984136974L34,101.32765476149685L36.266666666666666,91.97224029310637L38.53333333333333,84.35697423502805L40.8,77.214823528138L43.06666666666666,68.4574793529421L45.33333333333333,61.80790270184929L47.599999999999994,57.065188169881125L49.86666666666666,51.9776997633528L52.13333333333334,48.43615276894124L54.400000000000006,44.395175355786535L56.66666666666667,42.245728424879246L58.93333333333334,39.42265049130802L61.2,37.29091361525073L63.46666666666667,35.13564718726613L65.73333333333333,34.17119782026066L68,33.154389686587024L70.26666666666668,32.106158580958265L72.53333333333333,33.01077916348203L74.80000000000001,33.334468535648824L77.06666666666666,32.378525811030954L79.33333333333334,31.25726593149568L81.6,30.365436901112105L83.86666666666667,29.830340067060547L86.13333333333333,29.39974182079797L88.4,29.031845899090712L90.66666666666666,28.811108398119018L92.93333333333334,28.62389738627897L95.19999999999999,28.40203046770506L97.46666666666667,28.433219169460784L99.73333333333332,28.50670091652094L102,28.331712594639924L104.26666666666668,28.391028445095202L106.53333333333333,28.262309113111428L108.80000000000001,28.13030898846793L111.06666666666666,27.996340388159695L113.33333333333334,27.970727753770433L115.6,28.010128698813503L117.86666666666667,27.979000740174257L120.13333333333333,27.960323964996434L122.4,28.00388642553466L124.66666666666666,27.92048685057364L126.93333333333334,27.925215631239496L129.2,27.873284374000548L131.46666666666667,27.842125619657935L133.73333333333332,28.425890678066878L136,28.283226453371697L138.26666666666665,28.08809086728047L140.53333333333336,27.916237725488344L142.8,27.703588789138962L145.06666666666666,27.685536478603723L147.33333333333331,27.56516804100832L149.60000000000002,27.492946978451158L151.86666666666667,27.504382866553954L154.13333333333333,27.51124439941566L156.39999999999998,27.515361319132637L158.66666666666669,27.46306294532573L160.93333333333334,27.43168392104161L163.2,27.46762503210823L165.46666666666664,27.48918969874822L167.73333333333335,27.556897024369306L170,27.48798436846772L172.26666666666665,27.446636774926787L174.53333333333336,27.421828218802233L176.8,27.406943085127494L179.06666666666666,27.398012004922663L181.33333333333331,27.39265335679974L183.60000000000002,27.389438167925988L185.86666666666667,27.44227758023888L188.13333333333333,27.419212701989466L190.39999999999998,27.405373775039834L192.66666666666669,27.45183894450716L194.93333333333334,27.424949520550456L197.2,27.40881586617641L199.46666666666664,27.508672724826255L201.73333333333335,27.459049788741908L204,27.429276027091277L206.26666666666665,27.411411770100926L208.53333333333336,27.4006932159067L210.8,27.394262083390174L213.06666666666666,27.390403403880242L215.33333333333331,27.388088196174294L217.60000000000002,27.386699071550737L219.86666666666667,27.385865596776597L222.13333333333333,27.385365511912113L224.39999999999998,27.385065460993417L226.66666666666669,27.384885430442182L228.93333333333334,27.384777412111475L231.2,27.384712601113023L233.46666666666664,27.38467371451398L235.73333333333335,27.384650382554526L238,27.384636383378876L240.26666666666665,27.384627983873486L242.53333333333336,27.384622944170246L244.8,27.384619920348314L247.06666666666666,27.384618106055115" style="fill: none;" fill="none"></path></g><g><path stroke="rgb(238, 51, 119)" stroke-width="2px" d="M22.666666666666664,150.75230776575896L24.93333333333333,150.66673066925546L27.200000000000003,150.64053359889724L29.46666666666667,149.999734117679L31.733333333333334,143.91232995251974L34,138.16477879734762L36.266666666666666,132.92068097701872L38.53333333333333,130.70535378185073L40.8,125.19537676878812L43.06666666666666,118.78430637560871L45.33333333333333,114.74269083377595L47.599999999999994,110.62557515994853L49.86666666666666,107.06423288941353L52.13333333333334,102.68310672273564L54.400000000000006,100.8237591707486L56.66666666666667,96.58598258593327L58.93333333333334,94.4823108111358L61.2,91.57709015291312L63.46666666666667,91.36777836228825L65.73333333333333,90.47540226342592L68,87.31101793826294L70.26666666666668,87.27460900405293L72.53333333333333,87.30753617292105L74.80000000000001,86.99867306787112L77.06666666666666,86.70381877879889L79.33333333333334,85.54105854070805L81.6,85.33632743150486L83.86666666666667,83.73471821277899L86.13333333333333,81.84267497411362L88.4,81.7480680167428L90.66666666666666,80.59591687516415L92.93333333333334,79.19262560457601L95.19999999999999,78.1863453289431L97.46666666666667,76.98011360154537L99.73333333333332,77.35176144130058L102,77.0818268762455L104.26666666666668,77.63186677018476L106.53333333333333,79.0025057533411L108.80000000000001,76.53873515592252L111.06666666666666,77.63462615437514L113.33333333333334,75.17031561468332L115.6,76.75880590329398L117.86666666666667,76.50697618910405L120.13333333333333,78.32757139991864L122.4,77.22915811998837L124.66666666666666,75.36518626550892L126.93333333333334,73.09665105647107L129.2,71.68076140546434L131.46666666666667,73.5149180161408L133.73333333333332,73.13664220331358L136,72.90967671561921L138.26666666666665,71.45903648520601L140.53333333333336,72.06742212616872L142.8,73.4183000302169L145.06666666666666,72.75005699343866L147.33333333333331,71.14418728485231L149.60000000000002,72.645281758377L151.86666666666667,74.58655348759905L154.13333333333333,72.30085370698608L156.39999999999998,70.38174205324617L158.66666666666669,68.79212359140483L160.93333333333334,68.05742661684852L163.2,69.42399589414381L165.46666666666664,69.20331915091312L167.73333333333335,68.68753016101437L170,69.47344033781957L172.26666666666665,70.10929528531457L174.53333333333336,69.34065289292946L176.8,70.0296228183805L179.06666666666666,69.12854383585768L181.33333333333331,68.69743349761822L183.60000000000002,69.69845970683087L185.86666666666667,68.4369227091928L188.13333333333333,68.61107523994252L190.39999999999998,68.22264676315778L192.66666666666669,67.7157405199003L194.93333333333334,67.95929182381856L197.2,68.05065081603186L199.46666666666664,67.94116063444851L201.73333333333335,67.16346589871436L204,66.20392579753879L206.26666666666665,66.66881678194078L208.53333333333336,68.48128967742441L210.8,68.47338984397014L213.06666666666666,66.22311101227105L215.33333333333331,66.68032791078012L217.60000000000002,65.80450595350402L219.86666666666667,64.12885741825625L222.13333333333333,64.21885186785204L224.39999999999998,65.25869505707972L226.66666666666669,64.89675445114612L228.93333333333334,66.76082344230119L231.2,67.22203273584721L233.46666666666664,67.1701438936516L235.73333333333335,65.1673175493938L238,65.38961973190679L240.26666666666665,66.18023314256158L242.53333333333336,64.95675404270013L244.8,64.11312953150903L247.06666666666666,63.771263666206266" style="fill: none;" fill="none"></path></g></g></g></g><g opacity="0.2"><g><g><g><path stroke="rgb(255, 112, 67)" stroke-width="2px" d="M22.666666666666664,151.0261534544138L24.93333333333333,147.60307673536815L27.200000000000003,133.91076883902917L29.46666666666667,108.71692467652835L31.733333333333334,92.69692281576305L34,86.94615417260391L36.266666666666666,78.59384791667645L38.53333333333333,73.25384321579568L40.8,66.68153852682849L43.06666666666666,55.45384386869577L45.33333333333333,51.89384889602661L47.599999999999994,49.97692601497357L49.86666666666666,44.363078685907226L52.13333333333334,43.13077053656946L54.400000000000006,38.33845925331116L56.66666666666667,39.02307398502643L58.93333333333334,35.18922822292032L61.2,34.0938495489267L63.46666666666667,31.903075878436738L65.73333333333333,32.72461192424478L68,31.62923325025116L70.26666666666668,30.533846415006195L72.53333333333333,34.367692177112275L74.80000000000001,33.81999875948978L77.06666666666666,30.94461851853589L79.33333333333334,29.575380893853975L81.6,29.02769563748285L83.86666666666667,29.02769563748285L86.13333333333333,28.75384484804593L88.4,28.480002219860353L90.66666666666666,28.480002219860353L92.93333333333334,28.34308090576758L95.19999999999999,28.069230116330658L97.46666666666667,28.480002219860353L99.73333333333332,28.616923533953155L102,28.069230116330658L104.26666666666668,28.480002219860353L106.53333333333333,28.069230116330658L108.80000000000001,27.932308802237856L111.06666666666666,27.79538748814508L113.33333333333334,27.932308802237856L115.6,28.069230116330658L117.86666666666667,27.932308802237856L120.13333333333333,27.932308802237856L122.4,28.069230116330658L124.66666666666666,27.79538748814508L126.93333333333334,27.932308802237856L129.2,27.79538748814508L131.46666666666667,27.79538748814508L133.73333333333332,29.301538265668427L136,28.069230116330658L138.26666666666665,27.79538748814508L140.53333333333336,27.658458012800935L142.8,27.384615384615387L145.06666666666666,27.658458012800935L147.33333333333331,27.384615384615387L149.60000000000002,27.384615384615387L151.86666666666667,27.52153669870816L154.13333333333333,27.52153669870816L156.39999999999998,27.52153669870816L158.66666666666669,27.384615384615387L160.93333333333334,27.384615384615387L163.2,27.52153669870816L165.46666666666664,27.52153669870816L167.73333333333335,27.658458012800935L170,27.384615384615387L172.26666666666665,27.384615384615387L174.53333333333336,27.384615384615387L176.8,27.384615384615387L179.06666666666666,27.384615384615387L181.33333333333331,27.384615384615387L183.60000000000002,27.384615384615387L185.86666666666667,27.52153669870816L188.13333333333333,27.384615384615387L190.39999999999998,27.384615384615387L192.66666666666669,27.52153669870816L194.93333333333334,27.384615384615387L197.2,27.384615384615387L199.46666666666664,27.658458012800935L201.73333333333335,27.384615384615387L204,27.384615384615387L206.26666666666665,27.384615384615387L208.53333333333336,27.384615384615387L210.8,27.384615384615387L213.06666666666666,27.384615384615387L215.33333333333331,27.384615384615387L217.60000000000002,27.384615384615387L219.86666666666667,27.384615384615387L222.13333333333333,27.384615384615387L224.39999999999998,27.384615384615387L226.66666666666669,27.384615384615387L228.93333333333334,27.384615384615387L231.2,27.384615384615387L233.46666666666664,27.384615384615387L235.73333333333335,27.384615384615387L238,27.384615384615387L240.26666666666665,27.384615384615387L242.53333333333336,27.384615384615387L244.8,27.384615384615387L247.06666666666666,27.384615384615387" style="fill: none;" fill="none"></path></g><g><path stroke="rgb(238, 51, 119)" stroke-width="2px" d="M22.666666666666664,150.75230776575896L24.93333333333333,150.61538441135332L27.200000000000003,150.61538441135332L29.46666666666667,149.24615392776636L31.733333333333334,135.96461507448782L34,130.2138464313287L36.266666666666666,125.42153718838325L38.53333333333333,127.47538546415475L40.8,117.06923093245581L43.06666666666666,109.26461401352516L45.33333333333333,108.71692467652835L47.599999999999994,104.47230681089255L49.86666666666666,101.73384788403145L52.13333333333334,96.1200005549651L54.400000000000006,98.03692343601814L56.66666666666667,90.23230651708751L58.93333333333334,91.32769335233249L61.2,87.21999680078949L63.46666666666667,91.05384256289557L65.73333333333333,89.13691968184251L68,82.56461499287533L70.26666666666668,87.21999680078949L72.53333333333333,87.3569262761336L74.80000000000001,86.53538206907419L77.06666666666666,86.26153944088864L79.33333333333334,83.7969231422131L81.6,85.02923129155087L83.86666666666667,81.33230684353757L86.13333333333333,79.0046118589548L88.4,81.60615763297449L90.66666666666666,78.86769054486203L92.93333333333334,77.08768897790176L95.19999999999999,76.67692503562341L97.46666666666667,75.17076609684872L99.73333333333332,77.90923318496118L102,76.67692503562341L104.26666666666668,78.45692660258368L106.53333333333333,81.05846421535199L108.80000000000001,72.84307927351733L111.06666666666666,79.27846264839172L113.33333333333334,71.47384981008676L115.6,79.14154133429895L117.86666666666667,76.12923161800092L120.13333333333333,81.05846421535199L122.4,75.58153820037842L124.66666666666666,72.56922848408038L126.93333333333334,69.69384824312652L129.2,69.55692692903372L131.46666666666667,76.26615293209369L133.73333333333332,72.56922848408038L136,72.56922848408038L138.26666666666665,69.2830761395968L140.53333333333336,72.9800005876101L142.8,75.44461688628564L145.06666666666666,71.74769243827234L147.33333333333331,68.7353827219743L149.60000000000002,74.89692346866315L151.86666666666667,77.49846108143146L154.13333333333333,68.87230403606708L156.39999999999998,67.50307457263654L158.66666666666669,66.40769589864291L160.93333333333334,66.95538115501404L163.2,71.47384981008676L165.46666666666664,68.87230403606708L167.73333333333335,67.91384667616626L170,70.65230560302734L172.26666666666665,71.06307770655707L174.53333333333336,68.1876893043518L176.8,71.06307770655707L179.06666666666666,67.77692536207346L181.33333333333331,68.05076799025903L183.60000000000002,71.19999902064984L185.86666666666667,66.54461721273569L188.13333333333333,68.87230403606708L190.39999999999998,67.64000404798068L192.66666666666669,66.95538115501404L194.93333333333334,68.32461877969595L197.2,68.1876893043518L199.46666666666664,67.77692536207346L201.73333333333335,65.99692379511322L204,64.76461564577545L206.26666666666665,67.36615325854376L208.53333333333336,71.19999902064984L210.8,68.46154009378876L213.06666666666666,62.84769276472238L215.33333333333331,67.36615325854376L217.60000000000002,64.49077301758987L219.86666666666667,61.61538461538461L222.13333333333333,64.35384354224573L224.39999999999998,66.81845984092126L226.66666666666669,64.35384354224573L228.93333333333334,69.55692692903372L231.2,67.91384667616626L233.46666666666664,67.09231063035818L235.73333333333335,62.16307803300711L238,65.72307300567627L240.26666666666665,67.36615325854376L242.53333333333336,63.12153539290796L244.8,62.84769276472238L247.06666666666666,63.258464868252105" style="fill: none;" fill="none"></path></g></g></g></g></g></g><g transform="translate(58, 178)" clip-path="url(#clip_1)"><clipPath id="clip_1"><rect width="272" height="22"></rect></clipPath><g><g><line x1="0" y1="0" x2="0" y2="5" style="visibility: inherit;" fill="rgb(0, 0, 0)" stroke="rgb(204, 204, 204)" stroke-width="1px"></line><line x1="22.666666666666664" y1="0" x2="22.666666666666664" y2="5" style="visibility: inherit;" fill="rgb(0, 0, 0)" stroke="rgb(204, 204, 204)" stroke-width="1px"></line><line x1="45.33333333333333" y1="0" x2="45.33333333333333" y2="5" style="visibility: inherit;" fill="rgb(0, 0, 0)" stroke="rgb(204, 204, 204)" stroke-width="1px"></line><line x1="68" y1="0" x2="68" y2="5" style="visibility: inherit;" fill="rgb(0, 0, 0)" stroke="rgb(204, 204, 204)" stroke-width="1px"></line><line x1="90.66666666666666" y1="0" x2="90.66666666666666" y2="5" style="visibility: inherit;" fill="rgb(0, 0, 0)" stroke="rgb(204, 204, 204)" stroke-width="1px"></line><line x1="113.33333333333334" y1="0" x2="113.33333333333334" y2="5" style="visibility: inherit;" fill="rgb(0, 0, 0)" stroke="rgb(204, 204, 204)" stroke-width="1px"></line><line x1="136" y1="0" x2="136" y2="5" style="visibility: inherit;" fill="rgb(0, 0, 0)" stroke="rgb(204, 204, 204)" stroke-width="1px"></line><line x1="158.66666666666669" y1="0" x2="158.66666666666669" y2="5" style="visibility: inherit;" fill="rgb(0, 0, 0)" stroke="rgb(204, 204, 204)" stroke-width="1px"></line><line x1="181.33333333333331" y1="0" x2="181.33333333333331" y2="5" style="visibility: inherit;" fill="rgb(0, 0, 0)" stroke="rgb(204, 204, 204)" stroke-width="1px"></line><line x1="204" y1="0" x2="204" y2="5" style="visibility: inherit;" fill="rgb(0, 0, 0)" stroke="rgb(204, 204, 204)" stroke-width="1px"></line><line x1="226.66666666666669" y1="0" x2="226.66666666666669" y2="5" style="visibility: inherit;" fill="rgb(0, 0, 0)" stroke="rgb(204, 204, 204)" stroke-width="1px"></line><line x1="249.33333333333331" y1="0" x2="249.33333333333331" y2="5" style="visibility: inherit;" fill="rgb(0, 0, 0)" stroke="rgb(204, 204, 204)" stroke-width="1px"></line><line x1="272" y1="0" x2="272" y2="5" style="visibility: inherit;" fill="rgb(0, 0, 0)" stroke="rgb(204, 204, 204)" stroke-width="1px"></line></g><g transform="translate(0, 8)"><text x="0" y="0" dx="0em" dy="0.95em" style="text-anchor: middle; visibility: hidden; font-family: &quot;Helvetica Neue&quot;, sans-serif; font-size: 12px; font-weight: 200;" fill="rgb(50, 49, 63)" stroke="none" stroke-width="1px">-10</text><text x="22.666666666666664" y="0" dx="0em" dy="0.95em" style="text-anchor: middle; visibility: inherit; font-family: &quot;Helvetica Neue&quot;, sans-serif; font-size: 12px; font-weight: 200;" fill="rgb(50, 49, 63)" stroke="none" stroke-width="1px">0</text><text x="45.33333333333333" y="0" dx="0em" dy="0.95em" style="text-anchor: middle; visibility: hidden; font-family: &quot;Helvetica Neue&quot;, sans-serif; font-size: 12px; font-weight: 200;" fill="rgb(50, 49, 63)" stroke="none" stroke-width="1px">10</text><text x="68" y="0" dx="0em" dy="0.95em" style="text-anchor: middle; visibility: inherit; font-family: &quot;Helvetica Neue&quot;, sans-serif; font-size: 12px; font-weight: 200;" fill="rgb(50, 49, 63)" stroke="none" stroke-width="1px">20</text><text x="90.66666666666666" y="0" dx="0em" dy="0.95em" style="text-anchor: middle; visibility: hidden; font-family: &quot;Helvetica Neue&quot;, sans-serif; font-size: 12px; font-weight: 200;" fill="rgb(50, 49, 63)" stroke="none" stroke-width="1px">30</text><text x="113.33333333333334" y="0" dx="0em" dy="0.95em" style="text-anchor: middle; visibility: inherit; font-family: &quot;Helvetica Neue&quot;, sans-serif; font-size: 12px; font-weight: 200;" fill="rgb(50, 49, 63)" stroke="none" stroke-width="1px">40</text><text x="136" y="0" dx="0em" dy="0.95em" style="text-anchor: middle; visibility: hidden; font-family: &quot;Helvetica Neue&quot;, sans-serif; font-size: 12px; font-weight: 200;" fill="rgb(50, 49, 63)" stroke="none" stroke-width="1px">50</text><text x="158.66666666666669" y="0" dx="0em" dy="0.95em" style="text-anchor: middle; visibility: inherit; font-family: &quot;Helvetica Neue&quot;, sans-serif; font-size: 12px; font-weight: 200;" fill="rgb(50, 49, 63)" stroke="none" stroke-width="1px">60</text><text x="181.33333333333331" y="0" dx="0em" dy="0.95em" style="text-anchor: middle; visibility: hidden; font-family: &quot;Helvetica Neue&quot;, sans-serif; font-size: 12px; font-weight: 200;" fill="rgb(50, 49, 63)" stroke="none" stroke-width="1px">70</text><text x="204" y="0" dx="0em" dy="0.95em" style="text-anchor: middle; visibility: inherit; font-family: &quot;Helvetica Neue&quot;, sans-serif; font-size: 12px; font-weight: 200;" fill="rgb(50, 49, 63)" stroke="none" stroke-width="1px">80</text><text x="226.66666666666669" y="0" dx="0em" dy="0.95em" style="text-anchor: middle; visibility: hidden; font-family: &quot;Helvetica Neue&quot;, sans-serif; font-size: 12px; font-weight: 200;" fill="rgb(50, 49, 63)" stroke="none" stroke-width="1px">90</text><text x="249.33333333333331" y="0" dx="0em" dy="0.95em" style="text-anchor: middle; visibility: inherit; font-family: &quot;Helvetica Neue&quot;, sans-serif; font-size: 12px; font-weight: 200;" fill="rgb(50, 49, 63)" stroke="none" stroke-width="1px">100</text><text x="272" y="0" dx="0em" dy="0.95em" style="text-anchor: middle; visibility: hidden; font-family: &quot;Helvetica Neue&quot;, sans-serif; font-size: 12px; font-weight: 200;" fill="rgb(50, 49, 63)" stroke="none" stroke-width="1px">110</text></g><line x1="0" y1="0" x2="272" y2="0" fill="rgb(0, 0, 0)" stroke="rgb(204, 204, 204)" stroke-width="1px"></line></g></g></g></g></svg>