<svg viewBox="0 0 330 200" xmlns="http://www.w3.org/2000/svg"><g><g><g><g><g><line x1="34" y1="178" x2="29" y2="178" style="visibility: inherit;" fill="rgb(0, 0, 0)" stroke="rgb(204, 204, 204)" stroke-width="1px"></line><line x1="34" y1="161.8181818181818" x2="29" y2="161.8181818181818" style="visibility: inherit;" fill="rgb(0, 0, 0)" stroke="rgb(204, 204, 204)" stroke-width="1px"></line><line x1="34" y1="145.63636363636363" x2="29" y2="145.63636363636363" style="visibility: inherit;" fill="rgb(0, 0, 0)" stroke="rgb(204, 204, 204)" stroke-width="1px"></line><line x1="34" y1="129.45454545454547" x2="29" y2="129.45454545454547" style="visibility: inherit;" fill="rgb(0, 0, 0)" stroke="rgb(204, 204, 204)" stroke-width="1px"></line><line x1="34" y1="113.27272727272727" x2="29" y2="113.27272727272727" style="visibility: inherit;" fill="rgb(0, 0, 0)" stroke="rgb(204, 204, 204)" stroke-width="1px"></line><line x1="34" y1="97.0909090909091" x2="29" y2="97.0909090909091" style="visibility: inherit;" fill="rgb(0, 0, 0)" stroke="rgb(204, 204, 204)" stroke-width="1px"></line><line x1="34" y1="80.90909090909092" x2="29" y2="80.90909090909092" style="visibility: inherit;" fill="rgb(0, 0, 0)" stroke="rgb(204, 204, 204)" stroke-width="1px"></line><line x1="34" y1="64.72727272727273" x2="29" y2="64.72727272727273" style="visibility: inherit;" fill="rgb(0, 0, 0)" stroke="rgb(204, 204, 204)" stroke-width="1px"></line><line x1="34" y1="48.54545454545453" x2="29" y2="48.54545454545453" style="visibility: inherit;" fill="rgb(0, 0, 0)" stroke="rgb(204, 204, 204)" stroke-width="1px"></line><line x1="34" y1="32.363636363636346" x2="29" y2="32.363636363636346" style="visibility: inherit;" fill="rgb(0, 0, 0)" stroke="rgb(204, 204, 204)" stroke-width="1px"></line><line x1="34" y1="16.181818181818187" x2="29" y2="16.181818181818187" style="visibility: inherit;" fill="rgb(0, 0, 0)" stroke="rgb(204, 204, 204)" stroke-width="1px"></line><line x1="34" y1="0" x2="29" y2="0" style="visibility: inherit;" fill="rgb(0, 0, 0)" stroke="rgb(204, 204, 204)" stroke-width="1px"></line></g><g transform="translate(24, 0)"><text x="0" y="178" dx="0em" dy="0.3em" style="text-anchor: end; visibility: hidden; font-family: &quot;Helvetica Neue&quot;, sans-serif; font-size: 12px; font-weight: 200;" fill="rgb(50, 49, 63)" stroke="none" stroke-width="1px">-1</text><text x="0" y="161.8181818181818" dx="0em" dy="0.3em" style="text-anchor: end; visibility: inherit; font-family: &quot;Helvetica Neue&quot;, sans-serif; font-size: 12px; font-weight: 200;" fill="rgb(50, 49, 63)" stroke="none" stroke-width="1px">0</text><text x="0" y="145.63636363636363" dx="0em" dy="0.3em" style="text-anchor: end; visibility: hidden; font-family: &quot;Helvetica Neue&quot;, sans-serif; font-size: 12px; font-weight: 200;" fill="rgb(50, 49, 63)" stroke="none" stroke-width="1px">1</text><text x="0" y="129.45454545454547" dx="0em" dy="0.3em" style="text-anchor: end; visibility: inherit; font-family: &quot;Helvetica Neue&quot;, sans-serif; font-size: 12px; font-weight: 200;" fill="rgb(50, 49, 63)" stroke="none" stroke-width="1px">2</text><text x="0" y="113.27272727272727" dx="0em" dy="0.3em" style="text-anchor: end; visibility: hidden; font-family: &quot;Helvetica Neue&quot;, sans-serif; font-size: 12px; font-weight: 200;" fill="rgb(50, 49, 63)" stroke="none" stroke-width="1px">3</text><text x="0" y="97.0909090909091" dx="0em" dy="0.3em" style="text-anchor: end; visibility: inherit; font-family: &quot;Helvetica Neue&quot;, sans-serif; font-size: 12px; font-weight: 200;" fill="rgb(50, 49, 63)" stroke="none" stroke-width="1px">4</text><text x="0" y="80.90909090909092" dx="0em" dy="0.3em" style="text-anchor: end; visibility: hidden; font-family: &quot;Helvetica Neue&quot;, sans-serif; font-size: 12px; font-weight: 200;" fill="rgb(50, 49, 63)" stroke="none" stroke-width="1px">5</text><text x="0" y="64.72727272727273" dx="0em" dy="0.3em" style="text-anchor: end; visibility: inherit; font-family: &quot;Helvetica Neue&quot;, sans-serif; font-size: 12px; font-weight: 200;" fill="rgb(50, 49, 63)" stroke="none" stroke-width="1px">6</text><text x="0" y="48.54545454545453" dx="0em" dy="0.3em" style="text-anchor: end; visibility: hidden; font-family: &quot;Helvetica Neue&quot;, sans-serif; font-size: 12px; font-weight: 200;" fill="rgb(50, 49, 63)" stroke="none" stroke-width="1px">7</text><text x="0" y="32.363636363636346" dx="0em" dy="0.3em" style="text-anchor: end; visibility: inherit; font-family: &quot;Helvetica Neue&quot;, sans-serif; font-size: 12px; font-weight: 200;" fill="rgb(50, 49, 63)" stroke="none" stroke-width="1px">8</text><text x="0" y="16.181818181818187" dx="0em" dy="0.3em" style="text-anchor: end; visibility: hidden; font-family: &quot;Helvetica Neue&quot;, sans-serif; font-size: 12px; font-weight: 200;" fill="rgb(50, 49, 63)" stroke="none" stroke-width="1px">9</text><text x="0" y="0" dx="0em" dy="0.3em" style="text-anchor: end; visibility: hidden; font-family: &quot;Helvetica Neue&quot;, sans-serif; font-size: 12px; font-weight: 200;" fill="rgb(50, 49, 63)" stroke="none" stroke-width="1px">10</text></g><line x1="34" y1="0" x2="34" y2="178" fill="rgb(0, 0, 0)" stroke="rgb(204, 204, 204)" stroke-width="1px"></line></g></g><g transform="translate(34, 0)" clip-path="url(#clip_0)"><clipPath id="clip_0"><rect width="296" height="178"></rect></clipPath><g><g><g><line x1="0" y1="0" x2="0" y2="178" fill="rgb(0, 0, 0)" stroke="rgb(60, 60, 60)" stroke-width="1px" opacity="0.25"></line><line x1="24.666666666666664" y1="0" x2="24.666666666666664" y2="178" fill="rgb(0, 0, 0)" stroke="rgb(60, 60, 60)" stroke-width="1px" opacity="0.25"></line><line x1="49.33333333333333" y1="0" x2="49.33333333333333" y2="178" fill="rgb(0, 0, 0)" stroke="rgb(60, 60, 60)" stroke-width="1px" opacity="0.25"></line><line x1="74" y1="0" x2="74" y2="178" fill="rgb(0, 0, 0)" stroke="rgb(60, 60, 60)" stroke-width="1px" opacity="0.25"></line><line x1="98.66666666666666" y1="0" x2="98.66666666666666" y2="178" fill="rgb(0, 0, 0)" stroke="rgb(60, 60, 60)" stroke-width="1px" opacity="0.25"></line><line x1="123.33333333333334" y1="0" x2="123.33333333333334" y2="178" fill="rgb(0, 0, 0)" stroke="rgb(60, 60, 60)" stroke-width="1px" opacity="0.25"></line><line x1="148" y1="0" x2="148" y2="178" fill="rgb(0, 0, 0)" stroke="rgb(60, 60, 60)" stroke-width="1px" opacity="0.25"></line><line x1="172.66666666666669" y1="0" x2="172.66666666666669" y2="178" fill="rgb(0, 0, 0)" stroke="rgb(60, 60, 60)" stroke-width="1px" opacity="0.25"></line><line x1="197.33333333333331" y1="0" x2="197.33333333333331" y2="178" fill="rgb(0, 0, 0)" stroke="rgb(60, 60, 60)" stroke-width="1px" opacity="0.25"></line><line x1="222" y1="0" x2="222" y2="178" fill="rgb(0, 0, 0)" stroke="rgb(60, 60, 60)" stroke-width="1px" opacity="0.25"></line><line x1="246.66666666666669" y1="0" x2="246.66666666666669" y2="178" fill="rgb(0, 0, 0)" stroke="rgb(60, 60, 60)" stroke-width="1px" opacity="0.25"></line><line x1="271.3333333333333" y1="0" x2="271.3333333333333" y2="178" fill="rgb(0, 0, 0)" stroke="rgb(60, 60, 60)" stroke-width="1px" opacity="0.25"></line><line x1="296" y1="0" x2="296" y2="178" fill="rgb(0, 0, 0)" stroke="rgb(60, 60, 60)" stroke-width="1px" opacity="0.25"></line></g><g><line x1="0" y1="178" x2="296" y2="178" fill="rgb(0, 0, 0)" stroke="rgb(60, 60, 60)" stroke-width="1px" opacity="0.25"></line><line x1="0" y1="161.8181818181818" x2="296" y2="161.8181818181818" fill="rgb(0, 0, 0)" stroke="rgb(60, 60, 60)" stroke-width="1px" opacity="0.25"></line><line x1="0" y1="145.63636363636363" x2="296" y2="145.63636363636363" fill="rgb(0, 0, 0)" stroke="rgb(60, 60, 60)" stroke-width="1px" opacity="0.25"></line><line x1="0" y1="129.45454545454547" x2="296" y2="129.45454545454547" fill="rgb(0, 0, 0)" stroke="rgb(60, 60, 60)" stroke-width="1px" opacity="0.25"></line><line x1="0" y1="113.27272727272727" x2="296" y2="113.27272727272727" fill="rgb(0, 0, 0)" stroke="rgb(60, 60, 60)" stroke-width="1px" opacity="0.25"></line><line x1="0" y1="97.0909090909091" x2="296" y2="97.0909090909091" fill="rgb(0, 0, 0)" stroke="rgb(60, 60, 60)" stroke-width="1px" opacity="0.25"></line><line x1="0" y1="80.90909090909092" x2="296" y2="80.90909090909092" fill="rgb(0, 0, 0)" stroke="rgb(60, 60, 60)" stroke-width="1px" opacity="0.25"></line><line x1="0" y1="64.72727272727273" x2="296" y2="64.72727272727273" fill="rgb(0, 0, 0)" stroke="rgb(60, 60, 60)" stroke-width="1px" opacity="0.25"></line><line x1="0" y1="48.54545454545453" x2="296" y2="48.54545454545453" fill="rgb(0, 0, 0)" stroke="rgb(60, 60, 60)" stroke-width="1px" opacity="0.25"></line><line x1="0" y1="32.363636363636346" x2="296" y2="32.363636363636346" fill="rgb(0, 0, 0)" stroke="rgb(60, 60, 60)" stroke-width="1px" opacity="0.25"></line><line x1="0" y1="16.181818181818187" x2="296" y2="16.181818181818187" fill="rgb(0, 0, 0)" stroke="rgb(60, 60, 60)" stroke-width="1px" opacity="0.25"></line><line x1="0" y1="0" x2="296" y2="0" fill="rgb(0, 0, 0)" stroke="rgb(60, 60, 60)" stroke-width="1px" opacity="0.25"></line></g></g></g><g><g><line x1="0" y1="161.8181818181818" x2="296" y2="161.8181818181818" fill="rgb(0, 0, 0)" stroke="rgb(153, 153, 153)" stroke-width="1.5px"></line></g></g><g><g><line x1="24.666666666666664" y1="0" x2="24.666666666666664" y2="178" fill="rgb(0, 0, 0)" stroke="rgb(153, 153, 153)" stroke-width="1.5px"></line></g></g><g><g><g><g><g><path stroke="rgb(255, 112, 67)" stroke-width="2px" d="M27.133333333333333,-12.698488668961971L29.6,28.42357828356117L32.06666666666667,59.57057977423949L34.53333333333333,81.53219326521184L37,93.89854213538062L39.46666666666667,100.59900946852304L41.93333333333333,106.80824111461021L44.4,111.25705850789174L46.86666666666667,116.0969325443705L49.33333333333333,120.59021730907088L51.8,124.50753096162046L54.266666666666666,128.30733124307784L56.733333333333334,131.28651767393882L59.2,134.36394456469182L61.66666666666667,137.26031601837644L64.13333333333334,140.0507127642084L66.60000000000001,142.27943862793884L69.06666666666666,144.52638065964967L71.53333333333333,145.92775215780074L74,147.45584240545293L76.46666666666667,148.89662780467745L78.93333333333334,148.79442036018068L81.4,148.48036773000896L83.86666666666666,149.19898445355597L86.33333333333334,150.84464385784983L88.8,152.37008367818595L91.26666666666667,153.43589167332092L93.73333333333333,154.2228462528134L96.2,154.96590251519672L98.66666666666666,155.5382781672763L101.13333333333334,155.97441448697708L103.6,156.22250339501824L106.06666666666666,156.21351943220657L108.53333333333333,156.56042866212204L111,156.9886361834536L113.46666666666667,157.3085187977757L115.93333333333334,157.64923478149146L118.4,157.86817409651422L120.86666666666666,157.96105734047865L123.33333333333334,158.04465231409782L125.8,157.70565821903466L128.26666666666668,157.69788900502624L130.73333333333332,157.99923660130148L133.20000000000002,158.26908828428174L135.66666666666666,158.48261927569087L138.13333333333333,158.60590489618045L140.6,158.69913264460808L143.06666666666666,158.64125712666754L145.53333333333333,157.81305104357543L148,158.05792346569092L150.46666666666667,158.3562439781404L152.93333333333334,158.6212912576948L155.4,158.90131643876785L157.86666666666667,159.13362733240515L160.33333333333331,159.33397610884992L162.8,159.48568603175502L165.26666666666668,159.59878396367694L167.73333333333332,159.63479696356833L170.2,159.66966303537077L172.66666666666669,159.76315271846144L175.13333333333333,159.8516101820407L177.6,159.8899915327512L180.06666666666666,159.90398012133463L182.53333333333333,159.87901713840108L185,159.9327257829966L187.46666666666667,160.03013135649226L189.93333333333334,160.10620206498672L192.4,160.1789004851142L194.86666666666667,160.24630685089045L197.33333333333331,160.28453914188154L199.8,160.32041319472728L202.26666666666668,160.28837579374667L204.73333333333332,160.32831407879522L207.2,160.36247159905977L209.66666666666669,160.36635278601278L212.13333333333333,160.41308437766116L214.6,159.98419192964178L217.06666666666666,159.91154498559658L219.53333333333333,160.0348129243887L222,160.11971259866846L224.46666666666667,160.23739698653958L226.93333333333334,160.34900157743203L229.4,160.43812263392783L231.86666666666667,160.49917912549168L234.33333333333331,160.44209876587732L236.8,160.49086325994307L239.26666666666668,160.54491250674448L241.73333333333332,160.59307077828632L244.2,160.65378999186615L246.66666666666669,160.68804235090107L249.13333333333333,160.71353462128326L251.6,160.74102029999457L254.06666666666666,160.74953944076407L256.53333333333336,160.70431470842925L259,160.70988872142783L261.46666666666664,160.73166957411638L263.93333333333334,160.76303433886886L266.40000000000003,160.78214448020074L268.8666666666667,160.79338402535555" style="fill: none;" fill="none"></path></g><g><path stroke="rgb(238, 51, 119)" stroke-width="2px" d="M29.6,-6.950713170039222L32.06666666666667,32.483430680744135L34.53333333333333,62.73285557459481L37,79.88865440030453L39.46666666666667,90.25321219480108L41.93333333333333,93.55507336657907L44.4,98.69596634093918L46.86666666666667,102.95608319069167L49.33333333333333,105.68849335822067L51.8,108.08618502640884L54.266666666666666,109.98655765424812L56.733333333333334,111.80675251980976L59.2,112.41269440796846L61.66666666666667,113.92151312570688L64.13333333333334,114.78442885222636L66.60000000000001,115.65909217260011L69.06666666666666,116.37208347966116L71.53333333333333,116.58906843273701L74,118.0650073651592L76.46666666666667,118.56249335914194L78.93333333333334,118.40224465840001L81.4,117.84928136347104L83.86666666666666,117.7230685168231L86.33333333333334,119.0755720784949L88.8,119.41046466834749L91.26666666666667,120.10040301647697L93.73333333333333,120.79537976265458L96.2,121.05038631684447L98.66666666666666,121.92096682088412L101.13333333333334,122.60076500963712L103.6,122.88078514802675L106.06666666666666,123.48002184978148L108.53333333333333,123.35978341170151L111,123.43212263482536L113.46666666666667,123.31712714019775L115.93333333333334,122.90197977378807L118.4,123.58020668750018L120.86666666666666,123.52563718700435L123.33333333333334,124.52636264165183L125.8,124.12662261076642L128.26666666666668,123.81251429138356L130.73333333333332,122.52858334475488L133.20000000000002,123.26071768173927L135.66666666666666,124.36274115876162L138.13333333333333,125.26391953937362L140.6,126.0080536223891L143.06666666666666,125.1606040531384L145.53333333333333,125.34568754258011L148,125.72252923447877L150.46666666666667,126.52855722047698L152.93333333333334,126.34293727404167L155.4,126.01352088645837L157.86666666666667,126.19316635725355L160.33333333333331,126.86855864100698L162.8,125.887885086809L165.26666666666668,124.88374870927854L167.73333333333332,126.1404500381671L170.2,127.06940699133958L172.66666666666669,127.49452271334181L175.13333333333333,127.98081873817355L177.6,127.92892623630124L180.06666666666666,128.02782849374495L182.53333333333333,127.86064544316527L185,128.29416419211321L187.46666666666667,128.28908724165842L189.93333333333334,128.4561114594859L192.4,128.28209915996L194.86666666666667,128.51517976394808L197.33333333333331,128.62273936693597L199.8,128.234335887146L202.26666666666668,128.42567732685436L204.73333333333332,128.28364434583074L207.2,128.84968897330432L209.66666666666669,129.12874211121925L212.13333333333333,128.64129613190488L214.6,128.47803450814462L217.06666666666666,128.43557012574638L219.53333333333333,128.95322954083812L222,129.58911171700663L224.46666666666667,129.44015814098833L226.93333333333334,128.14641665846884L229.4,128.51513182560888L231.86666666666667,129.61611272088135L234.33333333333331,129.38390772402605L236.8,129.81615811340566L239.26666666666668,130.3241586464525L241.73333333333332,130.5433890470412L244.2,129.9746749451703L246.66666666666669,130.08801536430235L249.13333333333333,129.31919398489998L251.6,129.2962014287263L254.06666666666666,129.48691165937646L256.53333333333336,129.989097665348L259,130.25357881765916L261.46666666666664,130.0017567436234L263.93333333333334,130.20460296307743L266.40000000000003,130.60170342650315L268.8666666666667,130.73370308409457" style="fill: none;" fill="none"></path></g></g></g></g><g opacity="0.2"><g><g><g><path stroke="rgb(255, 112, 67)" stroke-width="2px" d="M24.666666666666664,-107.4726642261852L27.133333333333333,44.166016665371984L29.6,67.9007625579834L32.06666666666667,96.19945352727716L34.53333333333333,110.20527583902533L37,111.0056545084173L39.46666666666667,110.18078496239401L41.93333333333333,115.86136046322909L44.4,117.81820002469149L46.86666666666667,123.28358143026179L49.33333333333333,127.28939069401133L51.8,130.36218359253624L54.266666666666666,133.99462465806442L56.733333333333334,135.74946078387174L59.2,138.97646750103343L61.66666666666667,141.6028304533525L64.13333333333334,144.23512708057058L66.60000000000001,145.62196155027908L69.06666666666666,147.89645140821284L71.53333333333333,148.0296813141216L74,149.74789397283035L76.46666666666667,151.05775849385697L78.93333333333334,148.64111121134323L81.4,148.0092925050042L83.86666666666666,150.27690443125638L86.33333333333334,153.313125946305L88.8,154.65823950550774L91.26666666666667,155.03460202975708L93.73333333333333,155.40327739715576L96.2,156.08048649809578L98.66666666666666,156.39684145558965L101.13333333333334,156.6286188797517L103.6,156.59463672746313L106.06666666666666,156.20004348863256L108.53333333333333,157.08079249208623L111,157.63094745440915L113.46666666666667,157.7883427143097L115.93333333333334,158.16030875390226L118.4,158.19658306782895L120.86666666666666,158.10038220611486L123.33333333333334,158.17004477435893L125.8,157.19716707684776L128.26666666666668,157.68623518401927L130.73333333333332,158.4512579955838L133.20000000000002,158.673865808682L135.66666666666666,158.80291576277125L138.13333333333333,158.79083332690325L140.6,158.83897426724434L143.06666666666666,158.55444384975866L145.53333333333333,156.57074191895398L148,158.4252320988612L150.46666666666667,158.80372474681246L152.93333333333334,159.0188621770252L155.4,159.32135421037674L157.86666666666667,159.48209367286074L160.33333333333331,159.63449927351692L162.8,159.71325091611254L165.26666666666668,159.76843086155978L167.73333333333332,159.68881646340543L170.2,159.7219621430744L172.66666666666669,159.90338724309748L175.13333333333333,159.98429637740958L177.6,159.9475635588169L180.06666666666666,159.9249630042098L182.53333333333333,159.84157266400078L185,160.01328874988988L187.46666666666667,160.17623971673575L189.93333333333334,160.22030812772837L192.4,160.28794811530545L194.86666666666667,160.34741639955476L197.33333333333331,160.3418875783682L199.8,160.3742242739959L202.26666666666668,160.24031969227573L204.73333333333332,160.38822150636804L207.2,160.4137078794566L209.66666666666669,160.3721745664423L212.13333333333333,160.48318176513368L214.6,159.34085325761274L217.06666666666666,159.80257456952876L219.53333333333333,160.21971483257684L222,160.24706211008808L224.46666666666667,160.4139235683463L226.93333333333334,160.5164084637707L229.4,160.57180421867153L231.86666666666667,160.59076386283743L234.33333333333331,160.35647822645578L236.8,160.56401000104168L239.26666666666668,160.62598637694663L241.73333333333332,160.66530818559906L244.2,160.74486881223592L246.66666666666669,160.73942088945344L249.13333333333333,160.7517730268565L251.6,160.78224881806156L254.06666666666666,160.76231815191832L256.53333333333336,160.636477609927L259,160.7182497409257L261.46666666666664,160.76434085314924L263.93333333333334,160.81008148599756L266.40000000000003,160.81080969219857L268.8666666666667,160.81024334308776" style="fill: none;" fill="none"></path></g><g><path stroke="rgb(238, 51, 119)" stroke-width="2px" d="M24.666666666666664,-217.64068291404033L27.133333333333333,40.45453002236107L29.6,40.45453002236107L32.06666666666667,78.85798384926535L34.53333333333333,102.22650471600619L37,103.62130026383834L39.46666666666667,105.07469567385587L41.93333333333333,98.36921865289862L44.4,106.277784911069L46.86666666666667,109.281860221516L49.33333333333333,109.76232585040006L51.8,111.66967439651489L54.266666666666666,112.83091154965487L56.733333333333334,114.53347886692393L59.2,113.32089497826315L61.66666666666667,116.1836770664562L64.13333333333334,116.0784372849898L66.60000000000001,116.97086507623845L69.06666666666666,117.44146182320335L71.53333333333333,116.9145260290666L74,120.2788348197937L76.46666666666667,119.30870598012751L78.93333333333334,118.16187477111816L81.4,117.01984297145498L83.86666666666666,117.53375014391813L86.33333333333334,121.1043216531927L88.8,119.91280269622803L91.26666666666667,121.13530947945335L93.73333333333333,121.83784424174917L96.2,121.43289600719106L98.66666666666666,123.22683728824961L101.13333333333334,123.62046215750954L103.6,123.30081532218239L106.06666666666666,124.37887685949153L108.53333333333333,123.17942575974897L111,123.54063146764582L113.46666666666667,123.1446339000355L115.93333333333334,122.27925872802734L118.4,124.59754705429077L120.86666666666666,123.44378293644297L123.33333333333334,126.02745082161644L125.8,123.5270125649192L128.26666666666668,123.34135181253606L130.73333333333332,120.60268692536786L133.20000000000002,124.35891918702558L135.66666666666666,126.0157763741233L138.13333333333333,126.61568711020729L140.6,127.12425474687055L143.06666666666666,123.88942969929087L145.53333333333333,125.62331277673894L148,126.28779177232221L150.46666666666667,127.73759919946843L152.93333333333334,126.06450735438955L155.4,125.51939630508423L157.86666666666667,126.46263456344604L160.33333333333331,127.88164706663653L162.8,124.4168747555126L165.26666666666668,123.37754414298317L167.73333333333332,128.02550203149968L170.2,128.4628424210982L172.66666666666669,128.1321962963451L175.13333333333333,128.71026277542114L177.6,127.85108748349276L180.06666666666666,128.17618187991056L182.53333333333333,127.60987086729571L185,128.9444423155351L187.46666666666667,128.28147181597623L189.93333333333334,128.70664778622714L192.4,128.02108071067116L194.86666666666667,128.8648006699302L197.33333333333331,128.7840787714178L199.8,127.65173066746104L202.26666666666668,128.7126894864169L204.73333333333332,128.07059487429532L207.2,129.69875591451472L209.66666666666669,129.54732181809166L212.13333333333333,127.91012716293335L214.6,128.23314207250422L217.06666666666666,128.371873552149L219.53333333333333,129.72971866347572L222,130.54293498125944L224.46666666666667,129.21672777696088L226.93333333333334,126.20580443468961L229.4,129.06820457631892L231.86666666666667,131.26758406379005L234.33333333333331,129.0356002287431L236.8,130.46453369747508L239.26666666666668,131.08615944602272L241.73333333333332,130.87223464792424L244.2,129.12160379236394L246.66666666666669,130.2580259930004L249.13333333333333,128.16596191579646L251.6,129.26171259446576L254.06666666666666,129.77297700535166L256.53333333333336,130.74237667430532L259,130.65030054612592L261.46666666666664,129.62402363256976L263.93333333333334,130.50887229225853L266.40000000000003,131.19735412164167L268.8666666666667,130.93170257048175" style="fill: none;" fill="none"></path></g></g></g></g></g></g><g transform="translate(34, 178)" clip-path="url(#clip_1)"><clipPath id="clip_1"><rect width="296" height="22"></rect></clipPath><g><g><line x1="0" y1="0" x2="0" y2="5" style="visibility: inherit;" fill="rgb(0, 0, 0)" stroke="rgb(204, 204, 204)" stroke-width="1px"></line><line x1="24.666666666666664" y1="0" x2="24.666666666666664" y2="5" style="visibility: inherit;" fill="rgb(0, 0, 0)" stroke="rgb(204, 204, 204)" stroke-width="1px"></line><line x1="49.33333333333333" y1="0" x2="49.33333333333333" y2="5" style="visibility: inherit;" fill="rgb(0, 0, 0)" stroke="rgb(204, 204, 204)" stroke-width="1px"></line><line x1="74" y1="0" x2="74" y2="5" style="visibility: inherit;" fill="rgb(0, 0, 0)" stroke="rgb(204, 204, 204)" stroke-width="1px"></line><line x1="98.66666666666666" y1="0" x2="98.66666666666666" y2="5" style="visibility: inherit;" fill="rgb(0, 0, 0)" stroke="rgb(204, 204, 204)" stroke-width="1px"></line><line x1="123.33333333333334" y1="0" x2="123.33333333333334" y2="5" style="visibility: inherit;" fill="rgb(0, 0, 0)" stroke="rgb(204, 204, 204)" stroke-width="1px"></line><line x1="148" y1="0" x2="148" y2="5" style="visibility: inherit;" fill="rgb(0, 0, 0)" stroke="rgb(204, 204, 204)" stroke-width="1px"></line><line x1="172.66666666666669" y1="0" x2="172.66666666666669" y2="5" style="visibility: inherit;" fill="rgb(0, 0, 0)" stroke="rgb(204, 204, 204)" stroke-width="1px"></line><line x1="197.33333333333331" y1="0" x2="197.33333333333331" y2="5" style="visibility: inherit;" fill="rgb(0, 0, 0)" stroke="rgb(204, 204, 204)" stroke-width="1px"></line><line x1="222" y1="0" x2="222" y2="5" style="visibility: inherit;" fill="rgb(0, 0, 0)" stroke="rgb(204, 204, 204)" stroke-width="1px"></line><line x1="246.66666666666669" y1="0" x2="246.66666666666669" y2="5" style="visibility: inherit;" fill="rgb(0, 0, 0)" stroke="rgb(204, 204, 204)" stroke-width="1px"></line><line x1="271.3333333333333" y1="0" x2="271.3333333333333" y2="5" style="visibility: inherit;" fill="rgb(0, 0, 0)" stroke="rgb(204, 204, 204)" stroke-width="1px"></line><line x1="296" y1="0" x2="296" y2="5" style="visibility: inherit;" fill="rgb(0, 0, 0)" stroke="rgb(204, 204, 204)" stroke-width="1px"></line></g><g transform="translate(0, 8)"><text x="0" y="0" dx="0em" dy="0.95em" style="text-anchor: middle; visibility: hidden; font-family: &quot;Helvetica Neue&quot;, sans-serif; font-size: 12px; font-weight: 200;" fill="rgb(50, 49, 63)" stroke="none" stroke-width="1px">-10</text><text x="24.666666666666664" y="0" dx="0em" dy="0.95em" style="text-anchor: middle; visibility: inherit; font-family: &quot;Helvetica Neue&quot;, sans-serif; font-size: 12px; font-weight: 200;" fill="rgb(50, 49, 63)" stroke="none" stroke-width="1px">0</text><text x="49.33333333333333" y="0" dx="0em" dy="0.95em" style="text-anchor: middle; visibility: inherit; font-family: &quot;Helvetica Neue&quot;, sans-serif; font-size: 12px; font-weight: 200;" fill="rgb(50, 49, 63)" stroke="none" stroke-width="1px">10</text><text x="74" y="0" dx="0em" dy="0.95em" style="text-anchor: middle; visibility: inherit; font-family: &quot;Helvetica Neue&quot;, sans-serif; font-size: 12px; font-weight: 200;" fill="rgb(50, 49, 63)" stroke="none" stroke-width="1px">20</text><text x="98.66666666666666" y="0" dx="0em" dy="0.95em" style="text-anchor: middle; visibility: inherit; font-family: &quot;Helvetica Neue&quot;, sans-serif; font-size: 12px; font-weight: 200;" fill="rgb(50, 49, 63)" stroke="none" stroke-width="1px">30</text><text x="123.33333333333334" y="0" dx="0em" dy="0.95em" style="text-anchor: middle; visibility: inherit; font-family: &quot;Helvetica Neue&quot;, sans-serif; font-size: 12px; font-weight: 200;" fill="rgb(50, 49, 63)" stroke="none" stroke-width="1px">40</text><text x="148" y="0" dx="0em" dy="0.95em" style="text-anchor: middle; visibility: inherit; font-family: &quot;Helvetica Neue&quot;, sans-serif; font-size: 12px; font-weight: 200;" fill="rgb(50, 49, 63)" stroke="none" stroke-width="1px">50</text><text x="172.66666666666669" y="0" dx="0em" dy="0.95em" style="text-anchor: middle; visibility: inherit; font-family: &quot;Helvetica Neue&quot;, sans-serif; font-size: 12px; font-weight: 200;" fill="rgb(50, 49, 63)" stroke="none" stroke-width="1px">60</text><text x="197.33333333333331" y="0" dx="0em" dy="0.95em" style="text-anchor: middle; visibility: inherit; font-family: &quot;Helvetica Neue&quot;, sans-serif; font-size: 12px; font-weight: 200;" fill="rgb(50, 49, 63)" stroke="none" stroke-width="1px">70</text><text x="222" y="0" dx="0em" dy="0.95em" style="text-anchor: middle; visibility: inherit; font-family: &quot;Helvetica Neue&quot;, sans-serif; font-size: 12px; font-weight: 200;" fill="rgb(50, 49, 63)" stroke="none" stroke-width="1px">80</text><text x="246.66666666666669" y="0" dx="0em" dy="0.95em" style="text-anchor: middle; visibility: inherit; font-family: &quot;Helvetica Neue&quot;, sans-serif; font-size: 12px; font-weight: 200;" fill="rgb(50, 49, 63)" stroke="none" stroke-width="1px">90</text><text x="271.3333333333333" y="0" dx="0em" dy="0.95em" style="text-anchor: middle; visibility: inherit; font-family: &quot;Helvetica Neue&quot;, sans-serif; font-size: 12px; font-weight: 200;" fill="rgb(50, 49, 63)" stroke="none" stroke-width="1px">100</text><text x="296" y="0" dx="0em" dy="0.95em" style="text-anchor: middle; visibility: hidden; font-family: &quot;Helvetica Neue&quot;, sans-serif; font-size: 12px; font-weight: 200;" fill="rgb(50, 49, 63)" stroke="none" stroke-width="1px">110</text></g><line x1="0" y1="0" x2="296" y2="0" fill="rgb(0, 0, 0)" stroke="rgb(204, 204, 204)" stroke-width="1px"></line></g></g></g></g></svg>