<svg viewBox="0 0 330 200" xmlns="http://www.w3.org/2000/svg"><g><g><g><g><g><line x1="34" y1="178" x2="29" y2="178" style="visibility: inherit;" fill="rgb(0, 0, 0)" stroke="rgb(204, 204, 204)" stroke-width="1px"></line><line x1="34" y1="164.30769230769232" x2="29" y2="164.30769230769232" style="visibility: inherit;" fill="rgb(0, 0, 0)" stroke="rgb(204, 204, 204)" stroke-width="1px"></line><line x1="34" y1="150.6153846153846" x2="29" y2="150.6153846153846" style="visibility: inherit;" fill="rgb(0, 0, 0)" stroke="rgb(204, 204, 204)" stroke-width="1px"></line><line x1="34" y1="136.9230769230769" x2="29" y2="136.9230769230769" style="visibility: inherit;" fill="rgb(0, 0, 0)" stroke="rgb(204, 204, 204)" stroke-width="1px"></line><line x1="34" y1="123.23076923076923" x2="29" y2="123.23076923076923" style="visibility: inherit;" fill="rgb(0, 0, 0)" stroke="rgb(204, 204, 204)" stroke-width="1px"></line><line x1="34" y1="109.53846153846153" x2="29" y2="109.53846153846153" style="visibility: inherit;" fill="rgb(0, 0, 0)" stroke="rgb(204, 204, 204)" stroke-width="1px"></line><line x1="34" y1="95.84615384615384" x2="29" y2="95.84615384615384" style="visibility: inherit;" fill="rgb(0, 0, 0)" stroke="rgb(204, 204, 204)" stroke-width="1px"></line><line x1="34" y1="82.15384615384616" x2="29" y2="82.15384615384616" style="visibility: inherit;" fill="rgb(0, 0, 0)" stroke="rgb(204, 204, 204)" stroke-width="1px"></line><line x1="34" y1="68.46153846153845" x2="29" y2="68.46153846153845" style="visibility: inherit;" fill="rgb(0, 0, 0)" stroke="rgb(204, 204, 204)" stroke-width="1px"></line><line x1="34" y1="54.769230769230774" x2="29" y2="54.769230769230774" style="visibility: inherit;" fill="rgb(0, 0, 0)" stroke="rgb(204, 204, 204)" stroke-width="1px"></line><line x1="34" y1="41.076923076923066" x2="29" y2="41.076923076923066" style="visibility: inherit;" fill="rgb(0, 0, 0)" stroke="rgb(204, 204, 204)" stroke-width="1px"></line><line x1="34" y1="27.384615384615387" x2="29" y2="27.384615384615387" style="visibility: inherit;" fill="rgb(0, 0, 0)" stroke="rgb(204, 204, 204)" stroke-width="1px"></line><line x1="34" y1="13.69230769230768" x2="29" y2="13.69230769230768" style="visibility: inherit;" fill="rgb(0, 0, 0)" stroke="rgb(204, 204, 204)" stroke-width="1px"></line><line x1="34" y1="0" x2="29" y2="0" style="visibility: inherit;" fill="rgb(0, 0, 0)" stroke="rgb(204, 204, 204)" stroke-width="1px"></line></g><g transform="translate(24, 0)"><text x="0" y="178" dx="0em" dy="0.3em" style="text-anchor: end; visibility: hidden; font-family: &quot;Helvetica Neue&quot;, sans-serif; font-size: 12px; font-weight: 200;" fill="rgb(50, 49, 63)" stroke="none" stroke-width="1px">-4</text><text x="0" y="164.30769230769232" dx="0em" dy="0.3em" style="text-anchor: end; visibility: inherit; font-family: &quot;Helvetica Neue&quot;, sans-serif; font-size: 12px; font-weight: 200;" fill="rgb(50, 49, 63)" stroke="none" stroke-width="1px">-2</text><text x="0" y="150.6153846153846" dx="0em" dy="0.3em" style="text-anchor: end; visibility: hidden; font-family: &quot;Helvetica Neue&quot;, sans-serif; font-size: 12px; font-weight: 200;" fill="rgb(50, 49, 63)" stroke="none" stroke-width="1px">0</text><text x="0" y="136.9230769230769" dx="0em" dy="0.3em" style="text-anchor: end; visibility: inherit; font-family: &quot;Helvetica Neue&quot;, sans-serif; font-size: 12px; font-weight: 200;" fill="rgb(50, 49, 63)" stroke="none" stroke-width="1px">2</text><text x="0" y="123.23076923076923" dx="0em" dy="0.3em" style="text-anchor: end; visibility: hidden; font-family: &quot;Helvetica Neue&quot;, sans-serif; font-size: 12px; font-weight: 200;" fill="rgb(50, 49, 63)" stroke="none" stroke-width="1px">4</text><text x="0" y="109.53846153846153" dx="0em" dy="0.3em" style="text-anchor: end; visibility: inherit; font-family: &quot;Helvetica Neue&quot;, sans-serif; font-size: 12px; font-weight: 200;" fill="rgb(50, 49, 63)" stroke="none" stroke-width="1px">6</text><text x="0" y="95.84615384615384" dx="0em" dy="0.3em" style="text-anchor: end; visibility: hidden; font-family: &quot;Helvetica Neue&quot;, sans-serif; font-size: 12px; font-weight: 200;" fill="rgb(50, 49, 63)" stroke="none" stroke-width="1px">8</text><text x="0" y="82.15384615384616" dx="0em" dy="0.3em" style="text-anchor: end; visibility: inherit; font-family: &quot;Helvetica Neue&quot;, sans-serif; font-size: 12px; font-weight: 200;" fill="rgb(50, 49, 63)" stroke="none" stroke-width="1px">10</text><text x="0" y="68.46153846153845" dx="0em" dy="0.3em" style="text-anchor: end; visibility: hidden; font-family: &quot;Helvetica Neue&quot;, sans-serif; font-size: 12px; font-weight: 200;" fill="rgb(50, 49, 63)" stroke="none" stroke-width="1px">12</text><text x="0" y="54.769230769230774" dx="0em" dy="0.3em" style="text-anchor: end; visibility: inherit; font-family: &quot;Helvetica Neue&quot;, sans-serif; font-size: 12px; font-weight: 200;" fill="rgb(50, 49, 63)" stroke="none" stroke-width="1px">14</text><text x="0" y="41.076923076923066" dx="0em" dy="0.3em" style="text-anchor: end; visibility: hidden; font-family: &quot;Helvetica Neue&quot;, sans-serif; font-size: 12px; font-weight: 200;" fill="rgb(50, 49, 63)" stroke="none" stroke-width="1px">16</text><text x="0" y="27.384615384615387" dx="0em" dy="0.3em" style="text-anchor: end; visibility: inherit; font-family: &quot;Helvetica Neue&quot;, sans-serif; font-size: 12px; font-weight: 200;" fill="rgb(50, 49, 63)" stroke="none" stroke-width="1px">18</text><text x="0" y="13.69230769230768" dx="0em" dy="0.3em" style="text-anchor: end; visibility: hidden; font-family: &quot;Helvetica Neue&quot;, sans-serif; font-size: 12px; font-weight: 200;" fill="rgb(50, 49, 63)" stroke="none" stroke-width="1px">20</text><text x="0" y="0" dx="0em" dy="0.3em" style="text-anchor: end; visibility: hidden; font-family: &quot;Helvetica Neue&quot;, sans-serif; font-size: 12px; font-weight: 200;" fill="rgb(50, 49, 63)" stroke="none" stroke-width="1px">22</text></g><line x1="34" y1="0" x2="34" y2="178" fill="rgb(0, 0, 0)" stroke="rgb(204, 204, 204)" stroke-width="1px"></line></g></g><g transform="translate(34, 0)" clip-path="url(#clip_0)"><clipPath id="clip_0"><rect width="296" height="178"></rect></clipPath><g><g><g><line x1="0" y1="0" x2="0" y2="178" fill="rgb(0, 0, 0)" stroke="rgb(60, 60, 60)" stroke-width="1px" opacity="0.25"></line><line x1="24.666666666666664" y1="0" x2="24.666666666666664" y2="178" fill="rgb(0, 0, 0)" stroke="rgb(60, 60, 60)" stroke-width="1px" opacity="0.25"></line><line x1="49.33333333333333" y1="0" x2="49.33333333333333" y2="178" fill="rgb(0, 0, 0)" stroke="rgb(60, 60, 60)" stroke-width="1px" opacity="0.25"></line><line x1="74" y1="0" x2="74" y2="178" fill="rgb(0, 0, 0)" stroke="rgb(60, 60, 60)" stroke-width="1px" opacity="0.25"></line><line x1="98.66666666666666" y1="0" x2="98.66666666666666" y2="178" fill="rgb(0, 0, 0)" stroke="rgb(60, 60, 60)" stroke-width="1px" opacity="0.25"></line><line x1="123.33333333333334" y1="0" x2="123.33333333333334" y2="178" fill="rgb(0, 0, 0)" stroke="rgb(60, 60, 60)" stroke-width="1px" opacity="0.25"></line><line x1="148" y1="0" x2="148" y2="178" fill="rgb(0, 0, 0)" stroke="rgb(60, 60, 60)" stroke-width="1px" opacity="0.25"></line><line x1="172.66666666666669" y1="0" x2="172.66666666666669" y2="178" fill="rgb(0, 0, 0)" stroke="rgb(60, 60, 60)" stroke-width="1px" opacity="0.25"></line><line x1="197.33333333333331" y1="0" x2="197.33333333333331" y2="178" fill="rgb(0, 0, 0)" stroke="rgb(60, 60, 60)" stroke-width="1px" opacity="0.25"></line><line x1="222" y1="0" x2="222" y2="178" fill="rgb(0, 0, 0)" stroke="rgb(60, 60, 60)" stroke-width="1px" opacity="0.25"></line><line x1="246.66666666666669" y1="0" x2="246.66666666666669" y2="178" fill="rgb(0, 0, 0)" stroke="rgb(60, 60, 60)" stroke-width="1px" opacity="0.25"></line><line x1="271.3333333333333" y1="0" x2="271.3333333333333" y2="178" fill="rgb(0, 0, 0)" stroke="rgb(60, 60, 60)" stroke-width="1px" opacity="0.25"></line><line x1="296" y1="0" x2="296" y2="178" fill="rgb(0, 0, 0)" stroke="rgb(60, 60, 60)" stroke-width="1px" opacity="0.25"></line></g><g><line x1="0" y1="178" x2="296" y2="178" fill="rgb(0, 0, 0)" stroke="rgb(60, 60, 60)" stroke-width="1px" opacity="0.25"></line><line x1="0" y1="164.30769230769232" x2="296" y2="164.30769230769232" fill="rgb(0, 0, 0)" stroke="rgb(60, 60, 60)" stroke-width="1px" opacity="0.25"></line><line x1="0" y1="150.6153846153846" x2="296" y2="150.6153846153846" fill="rgb(0, 0, 0)" stroke="rgb(60, 60, 60)" stroke-width="1px" opacity="0.25"></line><line x1="0" y1="136.9230769230769" x2="296" y2="136.9230769230769" fill="rgb(0, 0, 0)" stroke="rgb(60, 60, 60)" stroke-width="1px" opacity="0.25"></line><line x1="0" y1="123.23076923076923" x2="296" y2="123.23076923076923" fill="rgb(0, 0, 0)" stroke="rgb(60, 60, 60)" stroke-width="1px" opacity="0.25"></line><line x1="0" y1="109.53846153846153" x2="296" y2="109.53846153846153" fill="rgb(0, 0, 0)" stroke="rgb(60, 60, 60)" stroke-width="1px" opacity="0.25"></line><line x1="0" y1="95.84615384615384" x2="296" y2="95.84615384615384" fill="rgb(0, 0, 0)" stroke="rgb(60, 60, 60)" stroke-width="1px" opacity="0.25"></line><line x1="0" y1="82.15384615384616" x2="296" y2="82.15384615384616" fill="rgb(0, 0, 0)" stroke="rgb(60, 60, 60)" stroke-width="1px" opacity="0.25"></line><line x1="0" y1="68.46153846153845" x2="296" y2="68.46153846153845" fill="rgb(0, 0, 0)" stroke="rgb(60, 60, 60)" stroke-width="1px" opacity="0.25"></line><line x1="0" y1="54.769230769230774" x2="296" y2="54.769230769230774" fill="rgb(0, 0, 0)" stroke="rgb(60, 60, 60)" stroke-width="1px" opacity="0.25"></line><line x1="0" y1="41.076923076923066" x2="296" y2="41.076923076923066" fill="rgb(0, 0, 0)" stroke="rgb(60, 60, 60)" stroke-width="1px" opacity="0.25"></line><line x1="0" y1="27.384615384615387" x2="296" y2="27.384615384615387" fill="rgb(0, 0, 0)" stroke="rgb(60, 60, 60)" stroke-width="1px" opacity="0.25"></line><line x1="0" y1="13.69230769230768" x2="296" y2="13.69230769230768" fill="rgb(0, 0, 0)" stroke="rgb(60, 60, 60)" stroke-width="1px" opacity="0.25"></line><line x1="0" y1="0" x2="296" y2="0" fill="rgb(0, 0, 0)" stroke="rgb(60, 60, 60)" stroke-width="1px" opacity="0.25"></line></g></g></g><g><g><line x1="0" y1="150.6153846153846" x2="296" y2="150.6153846153846" fill="rgb(0, 0, 0)" stroke="rgb(153, 153, 153)" stroke-width="1.5px"></line></g></g><g><g><line x1="24.666666666666664" y1="0" x2="24.666666666666664" y2="178" fill="rgb(0, 0, 0)" stroke="rgb(153, 153, 153)" stroke-width="1.5px"></line></g></g><g><g><g><g><g><path stroke="rgb(0, 153, 136)" stroke-width="2px" d="M24.666666666666664,-925.5088864839995L27.133333333333333,99.36099914404062L29.6,98.45908946257371L32.06666666666667,100.32324006007268L34.53333333333333,101.2051481467027L37,101.54660184566791L39.46666666666667,101.28163212996263L41.93333333333333,102.02246482555682L44.4,101.11945827190692L46.86666666666667,103.1087567622845L49.33333333333333,102.43744487028856L51.8,100.87193731161264L54.266666666666666,101.2648036296551L56.733333333333334,102.51864279233493L59.2,101.79778557557326L61.66666666666667,102.12462084109967L64.13333333333334,103.14819192886353L66.60000000000001,102.65647653432993L69.06666666666666,99.09635261388925L71.53333333333333,100.59991627473097L74,103.48918533325195L76.46666666666667,101.27757109128513L78.93333333333334,100.93800100913414L81.4,103.17700114616981L83.86666666666666,102.60364712201633L86.33333333333334,102.83313171680157L88.8,102.34496483435997L91.26666666666667,101.79650915586032L93.73333333333333,104.49075695184561L96.2,102.80774369606605L98.66666666666666,102.2367270543025L101.13333333333334,102.58172926535973L103.6,102.4698287156912L106.06666666666666,102.34511500138503L108.53333333333333,103.6733031639686L111,103.38632092109093L113.46666666666667,101.32059720846323L115.93333333333334,103.11103864816519L118.4,102.68584724572989L120.86666666666666,103.04937876187839L123.33333333333334,104.02425982401921L125.8,103.83932260366586L128.26666666666668,103.97169157174918L130.73333333333332,103.48237558511588L133.20000000000002,101.36499441587009L135.66666666666666,101.64155637300931L138.13333333333333,102.47932188327496L140.6,102.74537541316106L143.06666666666666,101.02759522658128L145.53333333333333,104.29651916944064L148,103.96634105535654L150.46666666666667,103.16820331720206L152.93333333333334,101.26063812696017L155.4,102.55781353436984L157.86666666666667,103.73560289236215L160.33333333333331,103.63651550733127L162.8,102.082322707543L165.26666666666668,102.46859473448534L167.73333333333332,102.661895605234L170.2,102.90861023389377L172.66666666666669,102.71204486260048L175.13333333333333,103.36974378732535L177.6,102.44786189152644L180.06666666666666,102.47073951134315L182.53333333333333,101.69041615266066L185,103.05167044126071L187.46666666666667,103.82704481711754L189.93333333333334,103.1370763045091L192.4,102.34033250808716L194.86666666666667,102.65217718711266L197.33333333333331,103.2810636300307L199.8,102.42362623948317L202.26666666666668,102.07727905420157L204.73333333333332,102.73552641501793L207.2,102.88459003888644L209.66666666666669,102.18043074241051L212.13333333333333,102.67750644683838L214.6,101.91267640774066L217.06666666666666,102.85787989543034L219.53333333333333,102.87348747253418L222,100.97964950708243L224.46666666666667,102.76796575692984L226.93333333333334,101.94881442876962L229.4,103.17229047188393L231.86666666666667,103.21699454234196L234.33333333333331,103.39362360880925L236.8,100.24500956902138L239.26666666666668,100.65566415053148L241.73333333333332,104.205315553225L244.2,102.88372494624211L246.66666666666669,103.48779465601994L249.13333333333333,102.5985251206618L251.6,101.00089487662682L254.06666666666666,104.32130325757541L256.53333333333336,103.87090338193454L259,102.63672630603497L261.46666666666664,101.33877394749568L263.93333333333334,103.41609316605788L266.40000000000003,102.43890736653255L268.8666666666667,102.37857939646794" style="fill: none;" fill="none"></path></g><g><path stroke="rgb(238, 51, 119)" stroke-width="2px" d="M24.666666666666664,39.55533937307504L27.133333333333333,100.10055215542133L29.6,102.27466381513156L32.06666666666667,103.50354913564829L34.53333333333333,103.41527704092172L37,105.12021141785841L39.46666666666667,106.69393572440514L41.93333333333333,108.16975113061758L44.4,109.07270218775822L46.86666666666667,110.1591410270104L49.33333333333333,110.90795216193565L51.8,111.93407608912541L54.266666666666666,113.51400947570801L56.733333333333334,112.96143399752103L59.2,115.56984175168552L61.66666666666667,115.74567428001991L64.13333333333334,116.11120040600116L66.60000000000001,118.08809705880972L69.06666666666666,118.55853117429294L71.53333333333333,119.49989887384268L74,119.94273163722112L76.46666666666667,119.20028954285841L78.93333333333334,119.8767103782067L81.4,120.74601422823392L83.86666666666666,121.2964318715609L86.33333333333334,121.39813412152805L88.8,121.6509729532095L91.26666666666667,121.79896255639883L93.73333333333333,121.8946026288546L96.2,121.82234290929941L98.66666666666666,122.63251686096191L101.13333333333334,122.674553834475L103.6,123.46885415223929L106.06666666666666,123.24744919630197L108.53333333333333,123.15559757672824L111,124.39799140049861L113.46666666666667,123.40873347795926L115.93333333333334,124.10947157786443L118.4,124.06137732359079L120.86666666666666,125.02702801044171L123.33333333333334,124.12729411858778L125.8,124.74185103636522L128.26666666666668,124.4192841053009L130.73333333333332,125.27905724598811L133.20000000000002,123.83251135165875L135.66666666666666,125.25273394584656L138.13333333333333,125.704785658763L140.6,125.62312254538902L143.06666666666666,125.18304012371944L145.53333333333333,125.64189179127033L148,125.55547066835257L150.46666666666667,126.30311637658339L152.93333333333334,126.52082428565392L155.4,125.42385416764479L157.86666666666667,126.91777612612798L160.33333333333331,126.87458841617291L162.8,127.24329906243544L165.26666666666668,127.47115140694838L167.73333333333332,127.91156354317299L170.2,128.48649268883923L172.66666666666669,130.54573636788587L175.13333333333333,131.30119729042053L177.6,131.1246122947106L180.06666666666666,131.11737816150372L182.53333333333333,131.8807359108558L185,132.28438487419714L187.46666666666667,132.78526208950922L189.93333333333334,131.85231353686407L192.4,133.07565247095548L194.86666666666667,133.32227406134973L197.33333333333331,133.70169879839972L199.8,133.09226551422705L202.26666666666668,133.36788076620837L204.73333333333332,134.4310078070714L207.2,134.11846942168017L209.66666666666669,133.8452862226046L212.13333333333333,134.7082781608288L214.6,134.09720120063196L217.06666666666666,135.02329266988315L219.53333333333333,135.02243573849017L222,134.6883777655088L224.46666666666667,134.93359562066885L226.93333333333334,135.13316106796265L229.4,135.0207708432124L231.86666666666667,135.48513298768262L234.33333333333331,135.4279911701496L236.8,135.90113971783563L239.26666666666668,135.73971995940576L241.73333333333332,135.57679200172424L244.2,135.8105547244732L246.66666666666669,135.51247317974384L249.13333333333333,136.222064605126L251.6,135.95699368990384L254.06666666666666,136.116017304934L256.53333333333336,136.45484634546133L259,136.38304039148184L261.46666666666664,135.74560748613797L263.93333333333334,136.18032633341275L266.40000000000003,136.35297434146588L268.8666666666667,135.91517543792725" style="fill: none;" fill="none"></path></g><g><path stroke="rgb(51, 187, 238)" stroke-width="2px" d="M24.666666666666664,52.79089120718149L27.133333333333333,97.37847449229314L29.6,99.27101318652814L32.06666666666667,99.27372925098126L34.53333333333333,99.2761025428772L37,99.28300696152907L39.46666666666667,100.3170962700477L41.93333333333333,102.65496507057777L44.4,103.64827423829298L46.86666666666667,104.10377326378456L49.33333333333333,105.36562351080087L51.8,106.69388022789589L54.266666666666666,107.88917383780846L56.733333333333334,108.80455937752357L59.2,109.71812332593478L61.66666666666667,111.82372617721558L64.13333333333334,112.38921928405762L66.60000000000001,111.9949361727788L69.06666666666666,113.53008387638972L71.53333333333333,114.24093213448158L74,115.28824593470647L76.46666666666667,116.8168679017287L78.93333333333334,118.8812009371244L81.4,121.40751303159274L83.86666666666666,124.68785782960745L86.33333333333334,125.78960880866417L88.8,127.04962114187387L91.26666666666667,127.78703264089731L93.73333333333333,128.27129518068753L96.2,128.79850548964282L98.66666666666666,129.07738360991846L101.13333333333334,129.87198262948255L103.6,130.07068135188177L106.06666666666666,130.20961196605975L108.53333333333333,130.72657664005573L111,130.88586467963L113.46666666666667,131.86489818646356L115.93333333333334,131.6192233012273L118.4,132.4099555198963L120.86666666666666,132.70814968989447L123.33333333333334,133.0182462288783L125.8,133.0375639108511L128.26666666666668,133.0625536625202L130.73333333333332,133.83088487845203L133.20000000000002,133.42139409138605L135.66666666666666,133.64948474443875L138.13333333333333,133.81914410224329L140.6,133.75952616104712L143.06666666666666,133.74251321645883L145.53333333333333,134.91035237679114L148,134.5604109764099L150.46666666666667,134.65886015158435L152.93333333333334,135.00411046468295L155.4,135.4665677730854L157.86666666666667,135.63104800077585L160.33333333333331,135.80811124581555L162.8,135.73506314937885L165.26666666666668,136.08201426726123L167.73333333333332,136.23212906030508L170.2,136.03568937228277L172.66666666666669,136.2615666939662L175.13333333333333,136.8353206194364L177.6,136.36765969716586L180.06666666666666,136.06398606300354L182.53333333333333,136.7750285588778L185,137.1567131464298L187.46666666666667,136.4486829684331L189.93333333333334,136.65563108370856L192.4,137.9126425247926L194.86666666666667,137.55210129114298L197.33333333333331,137.75870663386127L199.8,137.81202653738168L202.26666666666668,137.86995673179626L204.73333333333332,138.74439319280478L207.2,139.48514754038592L209.66666666666669,139.7845071370785L212.13333333333333,139.37782218823065L214.6,140.22707629203796L217.06666666666666,140.6679454583388L219.53333333333333,140.6701481800813L222,140.8751335144043L224.46666666666667,141.24412980446448L226.93333333333334,141.67119258183698L229.4,141.49549716252545L231.86666666666667,141.47884984199817L234.33333333333331,141.48778396386365L236.8,141.83798815653876L239.26666666666668,141.9183960694533L241.73333333333332,141.58899327424857L244.2,142.11727678775787L246.66666666666669,141.97647398251752L249.13333333333333,142.46697824734906L251.6,141.98860323429108L254.06666666666666,142.23740387879886L256.53333333333336,142.2770087994062L259,142.93258498265192L261.46666666666664,142.9566720999204L263.93333333333334,143.28892725247601L266.40000000000003,142.33642189319318L268.8666666666667,142.88872396945953" style="fill: none;" fill="none"></path></g><g><path stroke="rgb(204, 51, 17)" stroke-width="2px" d="M24.666666666666664,84.86633924337534L27.133333333333333,101.49912947874803L29.6,103.64440580514761L32.06666666666667,104.34962932880109L34.53333333333333,104.64742686198308L37,104.73158895052396L39.46666666666667,104.38872172282292L41.93333333333333,104.90526364399837L44.4,105.16609070851253L46.86666666666667,103.76245667384221L49.33333333333333,105.21479052763719L51.8,107.03555917739868L54.266666666666666,108.06556459573599L56.733333333333334,108.79295407808743L59.2,109.76703860209538L61.66666666666667,109.48038933827327L64.13333333333334,109.3919703410222L66.60000000000001,112.52490824919481L69.06666666666666,113.8879221035884L71.53333333333333,115.48217358955971L74,117.8005696443411L76.46666666666667,118.28752539708064L78.93333333333334,118.8903970351586L81.4,119.01821202498216L83.86666666666666,120.09710986797626L86.33333333333334,120.35431007238535L88.8,121.40737265806932L91.26666666666667,122.55601002619817L93.73333333333333,123.64883912526645L96.2,124.04377023990338L98.66666666666666,125.83194121947655L101.13333333333334,127.24538671053372L103.6,126.45847885425275L106.06666666666666,129.43513043110187L108.53333333333333,131.0421967139611L111,131.71858490430392L113.46666666666667,132.61146008051358L115.93333333333334,132.24819135665894L118.4,133.4934383539053L120.86666666666666,135.79853973021875L123.33333333333334,136.3966190814972L125.8,136.5985349691831L128.26666666666668,137.5857844077624L130.73333333333332,138.02612962172583L133.20000000000002,138.6860639131986L135.66666666666666,138.55312365752002L138.13333333333333,138.50913696105664L140.6,139.4864933307354L143.06666666666666,139.42031374344458L145.53333333333333,139.97667849063873L148,139.9936000292118L150.46666666666667,140.37711028869336L152.93333333333334,140.50447151294122L155.4,140.90723008375903L157.86666666666667,141.16693905683664L160.33333333333331,141.5616424725606L162.8,141.90749916663538L165.26666666666668,142.516932450808L167.73333333333332,142.3547014639928L170.2,142.47780659565558L172.66666666666669,142.56510668534497L175.13333333333333,143.4732825756073L177.6,143.24741667967578L180.06666666666666,143.3661751288634L182.53333333333333,143.3919508090386L185,143.14301305550794L187.46666666666667,143.82702385462247L189.93333333333334,143.79934252225436L192.4,143.5672120497777L194.86666666666667,144.1815747297727L197.33333333333331,144.56685312436178L199.8,143.8474253507761L202.26666666666668,144.48557807849005L204.73333333333332,144.5687473508028L207.2,144.76917993105374L209.66666666666669,145.01218404678198L212.13333333333333,145.21278801331152L214.6,145.0925466647515L217.06666666666666,144.97619619277808L219.53333333333333,144.9896830687156L222,145.75399935704013L224.46666666666667,145.96363986913974L226.93333333333334,145.73331221708884L229.4,146.04597628575107L231.86666666666667,145.92544970145593L234.33333333333331,145.7187529527224L236.8,145.5574919306315L239.26666666666668,145.87744685319754L241.73333333333332,145.86984750399222L244.2,145.9169032390301L246.66666666666669,145.43304019249402L249.13333333333333,146.5088449212221L251.6,146.2148937858068L254.06666666666666,146.59662366830386L256.53333333333336,146.16762096148273L259,146.15022035745474L261.46666666666664,146.6987001116459L263.93333333333334,145.53067773122052L266.40000000000003,146.17745649356107L268.8666666666667,146.72116681245657" style="fill: none;" fill="none"></path></g></g></g></g></g></g><g transform="translate(34, 178)" clip-path="url(#clip_1)"><clipPath id="clip_1"><rect width="296" height="22"></rect></clipPath><g><g><line x1="0" y1="0" x2="0" y2="5" style="visibility: inherit;" fill="rgb(0, 0, 0)" stroke="rgb(204, 204, 204)" stroke-width="1px"></line><line x1="24.666666666666664" y1="0" x2="24.666666666666664" y2="5" style="visibility: inherit;" fill="rgb(0, 0, 0)" stroke="rgb(204, 204, 204)" stroke-width="1px"></line><line x1="49.33333333333333" y1="0" x2="49.33333333333333" y2="5" style="visibility: inherit;" fill="rgb(0, 0, 0)" stroke="rgb(204, 204, 204)" stroke-width="1px"></line><line x1="74" y1="0" x2="74" y2="5" style="visibility: inherit;" fill="rgb(0, 0, 0)" stroke="rgb(204, 204, 204)" stroke-width="1px"></line><line x1="98.66666666666666" y1="0" x2="98.66666666666666" y2="5" style="visibility: inherit;" fill="rgb(0, 0, 0)" stroke="rgb(204, 204, 204)" stroke-width="1px"></line><line x1="123.33333333333334" y1="0" x2="123.33333333333334" y2="5" style="visibility: inherit;" fill="rgb(0, 0, 0)" stroke="rgb(204, 204, 204)" stroke-width="1px"></line><line x1="148" y1="0" x2="148" y2="5" style="visibility: inherit;" fill="rgb(0, 0, 0)" stroke="rgb(204, 204, 204)" stroke-width="1px"></line><line x1="172.66666666666669" y1="0" x2="172.66666666666669" y2="5" style="visibility: inherit;" fill="rgb(0, 0, 0)" stroke="rgb(204, 204, 204)" stroke-width="1px"></line><line x1="197.33333333333331" y1="0" x2="197.33333333333331" y2="5" style="visibility: inherit;" fill="rgb(0, 0, 0)" stroke="rgb(204, 204, 204)" stroke-width="1px"></line><line x1="222" y1="0" x2="222" y2="5" style="visibility: inherit;" fill="rgb(0, 0, 0)" stroke="rgb(204, 204, 204)" stroke-width="1px"></line><line x1="246.66666666666669" y1="0" x2="246.66666666666669" y2="5" style="visibility: inherit;" fill="rgb(0, 0, 0)" stroke="rgb(204, 204, 204)" stroke-width="1px"></line><line x1="271.3333333333333" y1="0" x2="271.3333333333333" y2="5" style="visibility: inherit;" fill="rgb(0, 0, 0)" stroke="rgb(204, 204, 204)" stroke-width="1px"></line><line x1="296" y1="0" x2="296" y2="5" style="visibility: inherit;" fill="rgb(0, 0, 0)" stroke="rgb(204, 204, 204)" stroke-width="1px"></line></g><g transform="translate(0, 8)"><text x="0" y="0" dx="0em" dy="0.95em" style="text-anchor: middle; visibility: hidden; font-family: &quot;Helvetica Neue&quot;, sans-serif; font-size: 12px; font-weight: 200;" fill="rgb(50, 49, 63)" stroke="none" stroke-width="1px">-10</text><text x="24.666666666666664" y="0" dx="0em" dy="0.95em" style="text-anchor: middle; visibility: inherit; font-family: &quot;Helvetica Neue&quot;, sans-serif; font-size: 12px; font-weight: 200;" fill="rgb(50, 49, 63)" stroke="none" stroke-width="1px">0</text><text x="49.33333333333333" y="0" dx="0em" dy="0.95em" style="text-anchor: middle; visibility: inherit; font-family: &quot;Helvetica Neue&quot;, sans-serif; font-size: 12px; font-weight: 200;" fill="rgb(50, 49, 63)" stroke="none" stroke-width="1px">10</text><text x="74" y="0" dx="0em" dy="0.95em" style="text-anchor: middle; visibility: inherit; font-family: &quot;Helvetica Neue&quot;, sans-serif; font-size: 12px; font-weight: 200;" fill="rgb(50, 49, 63)" stroke="none" stroke-width="1px">20</text><text x="98.66666666666666" y="0" dx="0em" dy="0.95em" style="text-anchor: middle; visibility: inherit; font-family: &quot;Helvetica Neue&quot;, sans-serif; font-size: 12px; font-weight: 200;" fill="rgb(50, 49, 63)" stroke="none" stroke-width="1px">30</text><text x="123.33333333333334" y="0" dx="0em" dy="0.95em" style="text-anchor: middle; visibility: inherit; font-family: &quot;Helvetica Neue&quot;, sans-serif; font-size: 12px; font-weight: 200;" fill="rgb(50, 49, 63)" stroke="none" stroke-width="1px">40</text><text x="148" y="0" dx="0em" dy="0.95em" style="text-anchor: middle; visibility: inherit; font-family: &quot;Helvetica Neue&quot;, sans-serif; font-size: 12px; font-weight: 200;" fill="rgb(50, 49, 63)" stroke="none" stroke-width="1px">50</text><text x="172.66666666666669" y="0" dx="0em" dy="0.95em" style="text-anchor: middle; visibility: inherit; font-family: &quot;Helvetica Neue&quot;, sans-serif; font-size: 12px; font-weight: 200;" fill="rgb(50, 49, 63)" stroke="none" stroke-width="1px">60</text><text x="197.33333333333331" y="0" dx="0em" dy="0.95em" style="text-anchor: middle; visibility: inherit; font-family: &quot;Helvetica Neue&quot;, sans-serif; font-size: 12px; font-weight: 200;" fill="rgb(50, 49, 63)" stroke="none" stroke-width="1px">70</text><text x="222" y="0" dx="0em" dy="0.95em" style="text-anchor: middle; visibility: inherit; font-family: &quot;Helvetica Neue&quot;, sans-serif; font-size: 12px; font-weight: 200;" fill="rgb(50, 49, 63)" stroke="none" stroke-width="1px">80</text><text x="246.66666666666669" y="0" dx="0em" dy="0.95em" style="text-anchor: middle; visibility: inherit; font-family: &quot;Helvetica Neue&quot;, sans-serif; font-size: 12px; font-weight: 200;" fill="rgb(50, 49, 63)" stroke="none" stroke-width="1px">90</text><text x="271.3333333333333" y="0" dx="0em" dy="0.95em" style="text-anchor: middle; visibility: inherit; font-family: &quot;Helvetica Neue&quot;, sans-serif; font-size: 12px; font-weight: 200;" fill="rgb(50, 49, 63)" stroke="none" stroke-width="1px">100</text><text x="296" y="0" dx="0em" dy="0.95em" style="text-anchor: middle; visibility: hidden; font-family: &quot;Helvetica Neue&quot;, sans-serif; font-size: 12px; font-weight: 200;" fill="rgb(50, 49, 63)" stroke="none" stroke-width="1px">110</text></g><line x1="0" y1="0" x2="296" y2="0" fill="rgb(0, 0, 0)" stroke="rgb(204, 204, 204)" stroke-width="1px"></line></g></g></g></g></svg>